<svg xmlns="http://www.w3.org/2000/svg" xmlns:xlink="http://www.w3.org/1999/xlink" width="45" zoomAndPan="magnify" viewBox="0 0 33.75 33.749998" height="45" preserveAspectRatio="xMidYMid meet" version="1.0"><defs><clipPath id="fe73982a35"><path d="M 1.488281 29 L 15 29 L 15 33.5 L 1.488281 33.5 Z M 1.488281 29 " clip-rule="nonzero"/></clipPath><clipPath id="37edad9f93"><path d="M 1.488281 20 L 15 20 L 15 25 L 1.488281 25 Z M 1.488281 20 " clip-rule="nonzero"/></clipPath><clipPath id="d08d1db438"><path d="M 1.488281 25 L 15 25 L 15 29 L 1.488281 29 Z M 1.488281 25 " clip-rule="nonzero"/></clipPath></defs><path fill="#c4942e" d="M 29.761719 12.289062 L 6.496094 12.289062 C 5.460938 12.289062 4.574219 11.929688 3.828125 11.207031 L 3.828125 19.695312 L 13.054688 19.695312 C 13.398438 19.699219 13.730469 19.761719 14.046875 19.894531 C 14.363281 20.027344 14.644531 20.214844 14.886719 20.457031 C 15.128906 20.699219 15.316406 20.980469 15.449219 21.296875 C 15.582031 21.613281 15.644531 21.945312 15.648438 22.289062 L 15.648438 22.839844 C 15.644531 23.660156 15.324219 24.328125 14.683594 24.839844 C 15.324219 25.351562 15.644531 26.019531 15.648438 26.835938 L 15.648438 27.207031 L 31.980469 27.207031 L 31.980469 12.292969 L 29.769531 12.292969 Z M 18.449219 14.59375 C 18.417969 14.664062 18.375 14.726562 18.320312 14.78125 C 18.265625 14.839844 18.203125 14.882812 18.128906 14.914062 C 18.054688 14.945312 17.976562 14.960938 17.898438 14.960938 C 17.734375 14.957031 17.597656 14.898438 17.484375 14.78125 C 17.425781 14.730469 17.382812 14.664062 17.351562 14.59375 C 17.324219 14.519531 17.304688 14.445312 17.304688 14.367188 C 17.308594 14.289062 17.324219 14.210938 17.351562 14.136719 C 17.382812 14.0625 17.425781 14 17.484375 13.945312 C 17.597656 13.828125 17.738281 13.769531 17.902344 13.769531 C 18.066406 13.769531 18.203125 13.828125 18.320312 13.945312 C 18.375 14 18.417969 14.066406 18.449219 14.136719 C 18.476562 14.210938 18.492188 14.289062 18.492188 14.367188 C 18.492188 14.445312 18.480469 14.519531 18.449219 14.59375 Z M 20.066406 14.367188 C 20.066406 14.203125 20.121094 14.0625 20.238281 13.945312 C 20.355469 13.832031 20.492188 13.773438 20.65625 13.773438 L 26.734375 13.773438 C 26.898438 13.773438 27.039062 13.832031 27.15625 13.945312 C 27.269531 14.0625 27.328125 14.203125 27.328125 14.367188 C 27.328125 14.53125 27.269531 14.667969 27.15625 14.785156 C 27.039062 14.902344 26.898438 14.957031 26.734375 14.957031 L 20.65625 14.957031 C 20.492188 14.957031 20.355469 14.902344 20.238281 14.785156 C 20.121094 14.667969 20.066406 14.53125 20.066406 14.367188 Z M 30.15625 20.894531 L 30.15625 23.992188 C 30.15625 24.148438 30.125 24.300781 30.066406 24.449219 C 30.003906 24.597656 29.917969 24.726562 29.804688 24.839844 C 29.691406 24.949219 29.5625 25.039062 29.417969 25.097656 C 29.269531 25.160156 29.117188 25.191406 28.957031 25.191406 L 23.855469 25.191406 C 23.695312 25.191406 23.542969 25.160156 23.398438 25.097656 C 23.25 25.039062 23.121094 24.949219 23.007812 24.839844 C 22.894531 24.726562 22.808594 24.597656 22.75 24.449219 C 22.6875 24.300781 22.65625 24.148438 22.65625 23.992188 L 22.65625 20.894531 C 22.65625 20.738281 22.6875 20.585938 22.75 20.4375 C 22.808594 20.289062 22.894531 20.160156 23.007812 20.046875 C 23.121094 19.9375 23.25 19.851562 23.398438 19.789062 C 23.542969 19.726562 23.695312 19.699219 23.855469 19.695312 L 28.957031 19.695312 C 29.117188 19.699219 29.269531 19.726562 29.417969 19.789062 C 29.5625 19.847656 29.691406 19.9375 29.804688 20.046875 C 29.917969 20.160156 30.003906 20.289062 30.066406 20.4375 C 30.125 20.585938 30.15625 20.738281 30.15625 20.894531 Z M 30.15625 20.894531 " fill-opacity="1" fill-rule="nonzero"/><g clip-path="url(#fe73982a35)"><path fill="#c4942e" d="M 2.863281 29.980469 L 13.054688 29.980469 C 13.242188 29.980469 13.421875 30.015625 13.59375 30.089844 C 13.765625 30.160156 13.917969 30.261719 14.050781 30.394531 C 14.179688 30.523438 14.28125 30.675781 14.355469 30.847656 C 14.425781 31.019531 14.460938 31.199219 14.460938 31.386719 L 14.460938 31.941406 C 14.460938 32.128906 14.425781 32.308594 14.355469 32.480469 C 14.28125 32.652344 14.179688 32.804688 14.050781 32.933594 C 13.917969 33.066406 13.765625 33.167969 13.59375 33.238281 C 13.421875 33.3125 13.242188 33.347656 13.054688 33.347656 L 2.863281 33.347656 C 2.675781 33.347656 2.496094 33.3125 2.324219 33.238281 C 2.152344 33.167969 2 33.066406 1.871094 32.933594 C 1.738281 32.804688 1.636719 32.652344 1.566406 32.480469 C 1.492188 32.308594 1.457031 32.128906 1.457031 31.941406 L 1.457031 31.386719 C 1.457031 31.199219 1.492188 31.019531 1.566406 30.847656 C 1.636719 30.675781 1.738281 30.523438 1.871094 30.394531 C 2 30.261719 2.152344 30.160156 2.324219 30.089844 C 2.496094 30.015625 2.675781 29.980469 2.863281 29.980469 Z M 2.863281 29.980469 " fill-opacity="1" fill-rule="nonzero"/></g><g clip-path="url(#37edad9f93)"><path fill="#c4942e" d="M 13.054688 20.882812 L 2.863281 20.882812 C 2.675781 20.882812 2.496094 20.917969 2.324219 20.988281 C 2.152344 21.0625 2 21.164062 1.871094 21.292969 C 1.738281 21.425781 1.636719 21.578125 1.566406 21.75 C 1.492188 21.921875 1.457031 22.101562 1.457031 22.289062 L 1.457031 22.839844 C 1.457031 23.027344 1.496094 23.207031 1.566406 23.378906 C 1.636719 23.550781 1.738281 23.703125 1.871094 23.835938 C 2.003906 23.964844 2.152344 24.066406 2.324219 24.140625 C 2.5 24.210938 2.675781 24.246094 2.863281 24.246094 L 13.058594 24.246094 C 13.242188 24.246094 13.421875 24.210938 13.59375 24.140625 C 13.765625 24.066406 13.917969 23.964844 14.050781 23.835938 C 14.183594 23.703125 14.285156 23.550781 14.355469 23.378906 C 14.425781 23.207031 14.464844 23.027344 14.464844 22.839844 L 14.464844 22.289062 C 14.464844 22.101562 14.425781 21.921875 14.355469 21.75 C 14.285156 21.578125 14.183594 21.425781 14.050781 21.292969 C 13.917969 21.164062 13.765625 21.0625 13.59375 20.988281 C 13.421875 20.917969 13.242188 20.882812 13.054688 20.882812 Z M 13.054688 20.882812 " fill-opacity="1" fill-rule="nonzero"/></g><g clip-path="url(#d08d1db438)"><path fill="#c4942e" d="M 2.863281 25.429688 L 13.054688 25.429688 C 13.242188 25.429688 13.421875 25.46875 13.59375 25.539062 C 13.765625 25.609375 13.917969 25.710938 14.050781 25.84375 C 14.179688 25.976562 14.28125 26.125 14.355469 26.300781 C 14.425781 26.472656 14.460938 26.652344 14.460938 26.835938 L 14.460938 27.390625 C 14.460938 27.578125 14.425781 27.757812 14.355469 27.929688 C 14.28125 28.101562 14.179688 28.253906 14.050781 28.382812 C 13.917969 28.515625 13.765625 28.617188 13.59375 28.6875 C 13.421875 28.761719 13.242188 28.796875 13.054688 28.796875 L 2.863281 28.796875 C 2.675781 28.796875 2.496094 28.761719 2.324219 28.6875 C 2.152344 28.617188 2 28.515625 1.871094 28.382812 C 1.738281 28.253906 1.636719 28.101562 1.566406 27.929688 C 1.492188 27.757812 1.457031 27.578125 1.457031 27.390625 L 1.457031 26.835938 C 1.457031 26.652344 1.492188 26.472656 1.566406 26.300781 C 1.636719 26.125 1.738281 25.976562 1.871094 25.84375 C 2 25.710938 2.152344 25.609375 2.324219 25.539062 C 2.496094 25.46875 2.675781 25.429688 2.863281 25.429688 Z M 2.863281 25.429688 " fill-opacity="1" fill-rule="nonzero"/></g><path fill="#c4942e" d="M 23.84375 23.992188 L 28.957031 24.003906 C 28.96875 24.003906 28.972656 24 28.972656 23.992188 L 28.972656 20.894531 L 23.855469 20.882812 Z M 23.84375 23.992188 " fill-opacity="1" fill-rule="nonzero"/><path fill="#c4942e" d="M 16.476562 0.15625 C 15.75 0.152344 15.042969 0.277344 14.355469 0.523438 C 13.671875 0.773438 13.050781 1.132812 12.496094 1.601562 C 11.9375 2.070312 11.476562 2.621094 11.117188 3.253906 C 10.753906 3.886719 10.511719 4.558594 10.390625 5.277344 C 10.332031 5.625 10.300781 5.976562 10.300781 6.332031 C 10.300781 7.257812 10.496094 8.136719 10.894531 8.976562 C 11.292969 9.8125 11.851562 10.523438 12.570312 11.105469 L 20.386719 11.105469 C 21.105469 10.523438 21.664062 9.8125 22.0625 8.976562 C 22.460938 8.140625 22.660156 7.257812 22.65625 6.332031 C 22.65625 5.976562 22.625 5.621094 22.570312 5.273438 C 22.445312 4.554688 22.203125 3.878906 21.839844 3.25 C 21.476562 2.617188 21.015625 2.066406 20.460938 1.597656 C 19.902344 1.128906 19.28125 0.773438 18.597656 0.523438 C 17.910156 0.277344 17.203125 0.152344 16.476562 0.15625 Z M 16.476562 5.738281 C 16.71875 5.738281 16.949219 5.78125 17.175781 5.863281 C 17.402344 5.949219 17.609375 6.066406 17.789062 6.222656 C 17.972656 6.382812 18.125 6.566406 18.242188 6.777344 C 18.355469 6.988281 18.433594 7.210938 18.46875 7.449219 C 18.503906 7.6875 18.5 7.925781 18.449219 8.160156 C 18.398438 8.398438 18.3125 8.617188 18.183594 8.820312 C 18.054688 9.023438 17.894531 9.199219 17.703125 9.347656 C 17.511719 9.492188 17.300781 9.601562 17.070312 9.671875 L 17.070312 10.296875 C 17.070312 10.460938 17.011719 10.601562 16.894531 10.714844 C 16.78125 10.832031 16.640625 10.890625 16.476562 10.890625 C 16.3125 10.890625 16.171875 10.832031 16.058594 10.714844 C 15.941406 10.601562 15.882812 10.460938 15.882812 10.296875 L 15.882812 9.671875 C 15.460938 9.542969 15.121094 9.300781 14.859375 8.949219 C 14.59375 8.59375 14.464844 8.199219 14.460938 7.757812 C 14.460938 7.59375 14.519531 7.453125 14.636719 7.335938 C 14.75 7.222656 14.890625 7.164062 15.054688 7.164062 C 15.21875 7.164062 15.359375 7.222656 15.472656 7.335938 C 15.589844 7.453125 15.648438 7.59375 15.648438 7.757812 C 15.648438 7.984375 15.726562 8.179688 15.890625 8.34375 C 16.050781 8.503906 16.246094 8.585938 16.476562 8.585938 C 16.707031 8.585938 16.902344 8.503906 17.0625 8.34375 C 17.226562 8.179688 17.304688 7.984375 17.304688 7.757812 C 17.304688 7.527344 17.226562 7.332031 17.0625 7.171875 C 16.902344 7.007812 16.707031 6.925781 16.476562 6.925781 C 16.234375 6.929688 16 6.886719 15.777344 6.804688 C 15.550781 6.71875 15.34375 6.601562 15.160156 6.441406 C 14.980469 6.285156 14.828125 6.101562 14.710938 5.890625 C 14.59375 5.679688 14.519531 5.457031 14.484375 5.21875 C 14.445312 4.980469 14.453125 4.742188 14.503906 4.507812 C 14.550781 4.269531 14.640625 4.050781 14.769531 3.847656 C 14.898438 3.644531 15.058594 3.46875 15.25 3.320312 C 15.441406 3.175781 15.652344 3.066406 15.882812 2.996094 L 15.882812 2.367188 C 15.882812 2.203125 15.941406 2.0625 16.058594 1.949219 C 16.171875 1.832031 16.3125 1.773438 16.476562 1.773438 C 16.640625 1.773438 16.78125 1.832031 16.894531 1.949219 C 17.011719 2.0625 17.070312 2.203125 17.070312 2.367188 L 17.070312 2.996094 C 17.492188 3.125 17.832031 3.363281 18.09375 3.71875 C 18.359375 4.074219 18.488281 4.46875 18.492188 4.910156 C 18.492188 5.074219 18.433594 5.214844 18.316406 5.328125 C 18.203125 5.445312 18.0625 5.503906 17.898438 5.503906 C 17.734375 5.503906 17.59375 5.445312 17.480469 5.328125 C 17.363281 5.214844 17.304688 5.074219 17.304688 4.910156 C 17.304688 4.679688 17.226562 4.484375 17.0625 4.324219 C 16.902344 4.160156 16.707031 4.082031 16.476562 4.082031 C 16.246094 4.082031 16.050781 4.160156 15.890625 4.324219 C 15.726562 4.484375 15.648438 4.679688 15.648438 4.910156 C 15.648438 5.140625 15.726562 5.335938 15.890625 5.496094 C 16.050781 5.660156 16.246094 5.738281 16.476562 5.738281 Z M 16.476562 5.738281 " fill-opacity="1" fill-rule="nonzero"/><path fill="#c4942e" d="M 6.496094 11.105469 L 10.878906 11.105469 C 10.308594 10.441406 9.871094 9.699219 9.566406 8.875 C 9.265625 8.054688 9.113281 7.207031 9.117188 6.332031 C 9.117188 6.148438 9.125 5.960938 9.140625 5.769531 L 6.496094 5.769531 C 6.144531 5.769531 5.804688 5.839844 5.476562 5.972656 C 5.148438 6.109375 4.859375 6.300781 4.609375 6.550781 C 4.359375 6.800781 4.167969 7.089844 4.03125 7.417969 C 3.898438 7.742188 3.828125 8.085938 3.828125 8.4375 C 3.828125 8.792969 3.898438 9.132812 4.03125 9.457031 C 4.167969 9.785156 4.359375 10.074219 4.609375 10.324219 C 4.859375 10.574219 5.148438 10.765625 5.476562 10.902344 C 5.804688 11.039062 6.144531 11.105469 6.496094 11.105469 Z M 6.496094 11.105469 " fill-opacity="1" fill-rule="nonzero"/><path fill="#c4942e" d="M 29.175781 5.769531 L 23.820312 5.769531 C 23.832031 5.960938 23.84375 6.144531 23.84375 6.332031 C 23.84375 7.207031 23.695312 8.054688 23.390625 8.875 C 23.085938 9.699219 22.648438 10.441406 22.078125 11.105469 L 29.175781 11.105469 Z M 29.175781 5.769531 " fill-opacity="1" fill-rule="nonzero"/></svg>