<svg xmlns="http://www.w3.org/2000/svg" xmlns:xlink="http://www.w3.org/1999/xlink" width="45" zoomAndPan="magnify" viewBox="0 0 33.75 33.749998" height="45" preserveAspectRatio="xMidYMid meet" version="1.0"><defs><clipPath id="009c11cf5a"><path d="M 3 3.351562 L 13 3.351562 L 13 11 L 3 11 Z M 3 3.351562 " clip-rule="nonzero"/></clipPath><clipPath id="2f882e41d8"><path d="M 2.066406 3.351562 L 13 3.351562 L 13 11 L 2.066406 11 Z M 2.066406 3.351562 " clip-rule="nonzero"/></clipPath><clipPath id="bec09bf110"><path d="M 2.066406 10 L 14 10 L 14 12 L 2.066406 12 Z M 2.066406 10 " clip-rule="nonzero"/></clipPath><clipPath id="f948d1b075"><path d="M 2.066406 9 L 14 9 L 14 12 L 2.066406 12 Z M 2.066406 9 " clip-rule="nonzero"/></clipPath><clipPath id="65b3a14d6e"><path d="M 20 3.351562 L 31 3.351562 L 31 11 L 20 11 Z M 20 3.351562 " clip-rule="nonzero"/></clipPath><clipPath id="834d42e9de"><path d="M 20 3.351562 L 31 3.351562 L 31 11 L 20 11 Z M 20 3.351562 " clip-rule="nonzero"/></clipPath><clipPath id="530dadd914"><path d="M 19 10 L 31.101562 10 L 31.101562 12 L 19 12 Z M 19 10 " clip-rule="nonzero"/></clipPath><clipPath id="2296d3f8b6"><path d="M 19 9 L 31.101562 9 L 31.101562 12 L 19 12 Z M 19 9 " clip-rule="nonzero"/></clipPath><clipPath id="5f5dcdf386"><path d="M 2.066406 22 L 13 22 L 13 30 L 2.066406 30 Z M 2.066406 22 " clip-rule="nonzero"/></clipPath><clipPath id="443a763fa4"><path d="M 2.066406 28 L 14 28 L 14 30 L 2.066406 30 Z M 2.066406 28 " clip-rule="nonzero"/></clipPath><clipPath id="d70335d079"><path d="M 2.066406 28 L 14 28 L 14 30.152344 L 2.066406 30.152344 Z M 2.066406 28 " clip-rule="nonzero"/></clipPath><clipPath id="d7d606c8f9"><path d="M 19 28 L 31.101562 28 L 31.101562 30 L 19 30 Z M 19 28 " clip-rule="nonzero"/></clipPath><clipPath id="7799674d6a"><path d="M 19 28 L 31.101562 28 L 31.101562 30.152344 L 19 30.152344 Z M 19 28 " clip-rule="nonzero"/></clipPath></defs><path fill="#c4942e" d="M 25.5625 25.867188 L 7.929688 25.867188 C 7.800781 25.867188 7.695312 25.761719 7.695312 25.632812 L 7.695312 6.824219 C 7.695312 6.695312 7.800781 6.59375 7.929688 6.59375 L 25.5625 6.59375 C 25.691406 6.59375 25.792969 6.695312 25.792969 6.824219 L 25.792969 25.632812 C 25.792969 25.761719 25.691406 25.867188 25.5625 25.867188 Z M 8.160156 25.402344 L 25.332031 25.402344 L 25.332031 7.054688 L 8.160156 7.054688 Z M 8.160156 25.402344 " fill-opacity="1" fill-rule="nonzero"/><path fill="#c4942e" d="M 25.5625 25.867188 C 25.5 25.867188 25.441406 25.839844 25.394531 25.792969 L 7.757812 6.980469 C 7.671875 6.886719 7.675781 6.742188 7.769531 6.65625 C 7.863281 6.566406 8.007812 6.574219 8.097656 6.664062 L 25.730469 25.476562 C 25.820312 25.570312 25.8125 25.714844 25.722656 25.804688 C 25.675781 25.84375 25.621094 25.867188 25.5625 25.867188 Z M 25.5625 25.867188 " fill-opacity="1" fill-rule="nonzero"/><path fill="#c4942e" d="M 7.929688 25.867188 C 7.871094 25.867188 7.816406 25.84375 7.769531 25.804688 C 7.675781 25.714844 7.671875 25.570312 7.757812 25.476562 L 25.394531 6.664062 C 25.480469 6.574219 25.628906 6.566406 25.722656 6.65625 C 25.8125 6.742188 25.820312 6.886719 25.730469 6.980469 L 8.097656 25.792969 C 8.050781 25.839844 7.988281 25.867188 7.929688 25.867188 Z M 7.929688 25.867188 " fill-opacity="1" fill-rule="nonzero"/><g clip-path="url(#009c11cf5a)"><path fill="#c4942e" d="M 12.691406 10.070312 L 3.167969 10.070312 L 3.167969 4.066406 C 3.167969 3.796875 3.386719 3.578125 3.65625 3.578125 L 12.199219 3.578125 C 12.46875 3.578125 12.6875 3.796875 12.6875 4.066406 L 12.6875 10.070312 Z M 12.691406 10.070312 " fill-opacity="1" fill-rule="nonzero"/></g><path fill="#ffffff" d="M 4.117188 9.160156 L 4.117188 4.488281 C 4.117188 4.421875 4.171875 4.363281 4.238281 4.363281 L 11.617188 4.363281 C 11.683594 4.363281 11.738281 4.421875 11.738281 4.488281 L 11.738281 9.160156 C 11.738281 9.226562 11.683594 9.28125 11.617188 9.28125 L 4.238281 9.28125 C 4.171875 9.28125 4.117188 9.226562 4.117188 9.160156 Z M 4.117188 9.160156 " fill-opacity="1" fill-rule="nonzero"/><g clip-path="url(#2f882e41d8)"><path fill="#c4942e" d="M 12.691406 10.300781 L 3.167969 10.300781 C 3.039062 10.300781 2.933594 10.199219 2.933594 10.070312 L 2.933594 4.066406 C 2.933594 3.667969 3.257812 3.347656 3.65625 3.347656 L 12.199219 3.347656 C 12.597656 3.347656 12.921875 3.667969 12.921875 4.066406 L 12.921875 10.070312 C 12.921875 10.199219 12.816406 10.300781 12.691406 10.300781 Z M 3.398438 9.839844 L 12.457031 9.839844 L 12.457031 4.066406 C 12.457031 3.925781 12.34375 3.808594 12.199219 3.808594 L 3.65625 3.808594 C 3.515625 3.808594 3.398438 3.925781 3.398438 4.066406 Z M 3.398438 9.839844 " fill-opacity="1" fill-rule="nonzero"/></g><path fill="#c4942e" d="M 11.617188 9.511719 L 4.238281 9.511719 C 4.042969 9.511719 3.886719 9.355469 3.886719 9.160156 L 3.886719 4.488281 C 3.886719 4.292969 4.042969 4.132812 4.238281 4.132812 L 11.617188 4.132812 C 11.8125 4.132812 11.96875 4.292969 11.96875 4.488281 L 11.96875 9.160156 C 11.96875 9.355469 11.8125 9.511719 11.617188 9.511719 Z M 4.347656 9.050781 L 11.507812 9.050781 L 11.507812 4.597656 L 4.347656 4.597656 Z M 4.347656 9.050781 " fill-opacity="1" fill-rule="nonzero"/><g clip-path="url(#bec09bf110)"><path fill="#c4942e" d="M 13.15625 11.101562 L 2.703125 11.101562 C 2.480469 11.101562 2.296875 10.921875 2.296875 10.699219 L 2.296875 10.160156 C 2.296875 10.109375 2.339844 10.070312 2.386719 10.070312 L 13.46875 10.070312 C 13.515625 10.070312 13.558594 10.109375 13.558594 10.160156 L 13.558594 10.699219 C 13.558594 10.921875 13.375 11.101562 13.15625 11.101562 Z M 13.15625 11.101562 " fill-opacity="1" fill-rule="nonzero"/></g><g clip-path="url(#f948d1b075)"><path fill="#c4942e" d="M 13.15625 11.332031 L 2.703125 11.332031 C 2.351562 11.332031 2.066406 11.050781 2.066406 10.699219 L 2.066406 10.160156 C 2.066406 9.984375 2.210938 9.839844 2.386719 9.839844 L 13.46875 9.839844 C 13.644531 9.839844 13.789062 9.984375 13.789062 10.160156 L 13.789062 10.699219 C 13.789062 11.050781 13.503906 11.332031 13.15625 11.332031 Z M 2.53125 10.300781 L 2.53125 10.699219 C 2.53125 10.792969 2.605469 10.871094 2.703125 10.871094 L 13.15625 10.871094 C 13.25 10.871094 13.324219 10.792969 13.324219 10.699219 L 13.324219 10.300781 Z M 2.53125 10.300781 " fill-opacity="1" fill-rule="nonzero"/></g><path fill="#c4942e" d="M 9.496094 7.726562 L 6.359375 7.726562 C 6.164062 7.726562 6.007812 7.566406 6.007812 7.371094 L 6.007812 6.273438 C 6.007812 6.082031 6.164062 5.921875 6.359375 5.921875 L 9.496094 5.921875 C 9.691406 5.921875 9.847656 6.082031 9.847656 6.273438 L 9.847656 7.371094 C 9.847656 7.566406 9.691406 7.726562 9.496094 7.726562 Z M 9.496094 7.726562 " fill-opacity="1" fill-rule="nonzero"/><path fill="#c4942e" d="M 9.496094 7.957031 L 6.359375 7.957031 C 6.039062 7.957031 5.777344 7.695312 5.777344 7.371094 L 5.777344 6.273438 C 5.777344 5.953125 6.039062 5.691406 6.359375 5.691406 L 9.496094 5.691406 C 9.816406 5.691406 10.078125 5.953125 10.078125 6.273438 L 10.078125 7.371094 C 10.078125 7.695312 9.816406 7.957031 9.496094 7.957031 Z M 6.359375 6.152344 C 6.292969 6.152344 6.238281 6.207031 6.238281 6.273438 L 6.238281 7.371094 C 6.238281 7.4375 6.292969 7.492188 6.359375 7.492188 L 9.496094 7.492188 C 9.5625 7.492188 9.617188 7.4375 9.617188 7.371094 L 9.617188 6.273438 C 9.617188 6.207031 9.5625 6.152344 9.496094 6.152344 Z M 6.359375 6.152344 " fill-opacity="1" fill-rule="nonzero"/><g clip-path="url(#65b3a14d6e)"><path fill="#c4942e" d="M 30.324219 10.070312 L 20.800781 10.070312 L 20.800781 4.066406 C 20.800781 3.796875 21.019531 3.578125 21.289062 3.578125 L 29.835938 3.578125 C 30.105469 3.578125 30.324219 3.796875 30.324219 4.066406 Z M 30.324219 10.070312 " fill-opacity="1" fill-rule="nonzero"/></g><path fill="#ffffff" d="M 21.75 9.160156 L 21.75 4.488281 C 21.75 4.421875 21.808594 4.363281 21.875 4.363281 L 29.25 4.363281 C 29.320312 4.363281 29.375 4.421875 29.375 4.488281 L 29.375 9.160156 C 29.375 9.226562 29.320312 9.28125 29.25 9.28125 L 21.875 9.28125 C 21.808594 9.28125 21.75 9.226562 21.75 9.160156 Z M 21.75 9.160156 " fill-opacity="1" fill-rule="nonzero"/><g clip-path="url(#834d42e9de)"><path fill="#c4942e" d="M 30.324219 10.300781 L 20.800781 10.300781 C 20.675781 10.300781 20.570312 10.199219 20.570312 10.070312 L 20.570312 4.066406 C 20.570312 3.667969 20.894531 3.347656 21.292969 3.347656 L 29.835938 3.347656 C 30.230469 3.347656 30.554688 3.667969 30.554688 4.066406 L 30.554688 10.070312 C 30.554688 10.199219 30.453125 10.300781 30.324219 10.300781 Z M 21.03125 9.839844 L 30.09375 9.839844 L 30.09375 4.066406 C 30.09375 3.925781 29.976562 3.808594 29.835938 3.808594 L 21.289062 3.808594 C 21.148438 3.808594 21.03125 3.925781 21.03125 4.066406 Z M 21.03125 9.839844 " fill-opacity="1" fill-rule="nonzero"/></g><path fill="#c4942e" d="M 29.25 9.511719 L 21.875 9.511719 C 21.679688 9.511719 21.519531 9.355469 21.519531 9.160156 L 21.519531 4.488281 C 21.519531 4.292969 21.679688 4.132812 21.875 4.132812 L 29.25 4.132812 C 29.445312 4.132812 29.605469 4.292969 29.605469 4.488281 L 29.605469 9.160156 C 29.605469 9.355469 29.445312 9.511719 29.25 9.511719 Z M 21.984375 9.050781 L 29.144531 9.050781 L 29.144531 4.597656 L 21.984375 4.597656 Z M 21.984375 9.050781 " fill-opacity="1" fill-rule="nonzero"/><g clip-path="url(#530dadd914)"><path fill="#c4942e" d="M 30.789062 11.101562 L 20.335938 11.101562 C 20.113281 11.101562 19.933594 10.921875 19.933594 10.699219 L 19.933594 10.160156 C 19.933594 10.109375 19.972656 10.070312 20.023438 10.070312 L 31.101562 10.070312 C 31.152344 10.070312 31.191406 10.109375 31.191406 10.160156 L 31.191406 10.699219 C 31.191406 10.921875 31.011719 11.101562 30.789062 11.101562 Z M 30.789062 11.101562 " fill-opacity="1" fill-rule="nonzero"/></g><g clip-path="url(#2296d3f8b6)"><path fill="#c4942e" d="M 30.789062 11.332031 L 20.335938 11.332031 C 19.988281 11.332031 19.703125 11.050781 19.703125 10.699219 L 19.703125 10.160156 C 19.703125 9.984375 19.847656 9.839844 20.023438 9.839844 L 31.101562 9.839844 C 31.28125 9.839844 31.421875 9.984375 31.421875 10.160156 L 31.421875 10.699219 C 31.421875 11.050781 31.140625 11.332031 30.789062 11.332031 Z M 20.164062 10.300781 L 20.164062 10.699219 C 20.164062 10.792969 20.242188 10.871094 20.335938 10.871094 L 30.789062 10.871094 C 30.882812 10.871094 30.960938 10.792969 30.960938 10.699219 L 30.960938 10.300781 Z M 20.164062 10.300781 " fill-opacity="1" fill-rule="nonzero"/></g><path fill="#c4942e" d="M 27.128906 7.726562 L 23.996094 7.726562 C 23.800781 7.726562 23.644531 7.566406 23.644531 7.371094 L 23.644531 6.273438 C 23.644531 6.082031 23.800781 5.921875 23.996094 5.921875 L 27.128906 5.921875 C 27.324219 5.921875 27.484375 6.082031 27.484375 6.273438 L 27.484375 7.371094 C 27.484375 7.566406 27.324219 7.726562 27.128906 7.726562 Z M 27.128906 7.726562 " fill-opacity="1" fill-rule="nonzero"/><path fill="#c4942e" d="M 27.128906 7.957031 L 23.996094 7.957031 C 23.671875 7.957031 23.410156 7.695312 23.410156 7.371094 L 23.410156 6.273438 C 23.410156 5.953125 23.671875 5.691406 23.996094 5.691406 L 27.128906 5.691406 C 27.453125 5.691406 27.714844 5.953125 27.714844 6.273438 L 27.714844 7.371094 C 27.714844 7.695312 27.453125 7.957031 27.128906 7.957031 Z M 23.996094 6.152344 C 23.929688 6.152344 23.875 6.207031 23.875 6.273438 L 23.875 7.371094 C 23.875 7.4375 23.929688 7.492188 23.996094 7.492188 L 27.128906 7.492188 C 27.199219 7.492188 27.253906 7.4375 27.253906 7.371094 L 27.253906 6.273438 C 27.253906 6.207031 27.199219 6.152344 27.128906 6.152344 Z M 23.996094 6.152344 " fill-opacity="1" fill-rule="nonzero"/><path fill="#c4942e" d="M 12.691406 28.878906 L 3.167969 28.878906 L 3.167969 22.878906 C 3.167969 22.605469 3.386719 22.386719 3.65625 22.386719 L 12.199219 22.386719 C 12.46875 22.386719 12.6875 22.605469 12.6875 22.878906 L 12.6875 28.878906 Z M 12.691406 28.878906 " fill-opacity="1" fill-rule="nonzero"/><path fill="#ffffff" d="M 4.117188 27.96875 L 4.117188 23.296875 C 4.117188 23.230469 4.171875 23.175781 4.238281 23.175781 L 11.617188 23.175781 C 11.683594 23.175781 11.738281 23.230469 11.738281 23.296875 L 11.738281 27.96875 C 11.738281 28.039062 11.683594 28.09375 11.617188 28.09375 L 4.238281 28.09375 C 4.171875 28.09375 4.117188 28.039062 4.117188 27.96875 Z M 4.117188 27.96875 " fill-opacity="1" fill-rule="nonzero"/><g clip-path="url(#5f5dcdf386)"><path fill="#c4942e" d="M 12.691406 29.113281 L 3.167969 29.113281 C 3.039062 29.113281 2.933594 29.007812 2.933594 28.878906 L 2.933594 22.878906 C 2.933594 22.480469 3.257812 22.15625 3.65625 22.15625 L 12.199219 22.15625 C 12.597656 22.15625 12.921875 22.480469 12.921875 22.878906 L 12.921875 28.878906 C 12.921875 29.007812 12.816406 29.113281 12.691406 29.113281 Z M 3.398438 28.648438 L 12.457031 28.648438 L 12.457031 22.878906 C 12.457031 22.734375 12.34375 22.621094 12.199219 22.621094 L 3.65625 22.621094 C 3.515625 22.621094 3.398438 22.734375 3.398438 22.878906 Z M 3.398438 28.648438 " fill-opacity="1" fill-rule="nonzero"/></g><path fill="#c4942e" d="M 11.617188 28.324219 L 4.238281 28.324219 C 4.042969 28.324219 3.886719 28.164062 3.886719 27.96875 L 3.886719 23.296875 C 3.886719 23.101562 4.042969 22.945312 4.238281 22.945312 L 11.617188 22.945312 C 11.8125 22.945312 11.96875 23.101562 11.96875 23.296875 L 11.96875 27.96875 C 11.96875 28.164062 11.8125 28.324219 11.617188 28.324219 Z M 4.347656 27.863281 L 11.507812 27.863281 L 11.507812 23.40625 L 4.347656 23.40625 Z M 4.347656 27.863281 " fill-opacity="1" fill-rule="nonzero"/><g clip-path="url(#443a763fa4)"><path fill="#c4942e" d="M 13.15625 29.914062 L 2.703125 29.914062 C 2.480469 29.914062 2.296875 29.734375 2.296875 29.511719 L 2.296875 28.96875 C 2.296875 28.921875 2.339844 28.878906 2.386719 28.878906 L 13.46875 28.878906 C 13.515625 28.878906 13.558594 28.921875 13.558594 28.96875 L 13.558594 29.511719 C 13.558594 29.734375 13.375 29.914062 13.15625 29.914062 Z M 13.15625 29.914062 " fill-opacity="1" fill-rule="nonzero"/></g><g clip-path="url(#d70335d079)"><path fill="#c4942e" d="M 13.15625 30.144531 L 2.703125 30.144531 C 2.351562 30.144531 2.066406 29.859375 2.066406 29.511719 L 2.066406 28.96875 C 2.066406 28.792969 2.210938 28.648438 2.386719 28.648438 L 13.46875 28.648438 C 13.644531 28.648438 13.789062 28.792969 13.789062 28.96875 L 13.789062 29.511719 C 13.789062 29.859375 13.503906 30.144531 13.15625 30.144531 Z M 2.53125 29.113281 L 2.53125 29.511719 C 2.53125 29.605469 2.605469 29.679688 2.703125 29.679688 L 13.15625 29.679688 C 13.25 29.679688 13.324219 29.605469 13.324219 29.511719 L 13.324219 29.113281 Z M 2.53125 29.113281 " fill-opacity="1" fill-rule="nonzero"/></g><path fill="#c4942e" d="M 9.496094 26.535156 L 6.359375 26.535156 C 6.164062 26.535156 6.007812 26.378906 6.007812 26.183594 L 6.007812 25.085938 C 6.007812 24.890625 6.164062 24.734375 6.359375 24.734375 L 9.496094 24.734375 C 9.691406 24.734375 9.847656 24.890625 9.847656 25.085938 L 9.847656 26.183594 C 9.847656 26.378906 9.691406 26.535156 9.496094 26.535156 Z M 9.496094 26.535156 " fill-opacity="1" fill-rule="nonzero"/><path fill="#c4942e" d="M 9.496094 26.765625 L 6.359375 26.765625 C 6.039062 26.765625 5.777344 26.503906 5.777344 26.183594 L 5.777344 25.085938 C 5.777344 24.765625 6.039062 24.5 6.359375 24.5 L 9.496094 24.5 C 9.816406 24.5 10.078125 24.765625 10.078125 25.085938 L 10.078125 26.183594 C 10.078125 26.503906 9.816406 26.765625 9.496094 26.765625 Z M 6.359375 24.964844 C 6.292969 24.964844 6.238281 25.019531 6.238281 25.085938 L 6.238281 26.183594 C 6.238281 26.25 6.292969 26.304688 6.359375 26.304688 L 9.496094 26.304688 C 9.5625 26.304688 9.617188 26.25 9.617188 26.183594 L 9.617188 25.085938 C 9.617188 25.019531 9.5625 24.964844 9.496094 24.964844 Z M 6.359375 24.964844 " fill-opacity="1" fill-rule="nonzero"/><path fill="#c4942e" d="M 30.324219 28.878906 L 20.800781 28.878906 L 20.800781 22.878906 C 20.800781 22.605469 21.019531 22.386719 21.289062 22.386719 L 29.835938 22.386719 C 30.105469 22.386719 30.324219 22.605469 30.324219 22.878906 Z M 30.324219 28.878906 " fill-opacity="1" fill-rule="nonzero"/><path fill="#ffffff" d="M 21.75 27.96875 L 21.75 23.296875 C 21.75 23.230469 21.808594 23.175781 21.875 23.175781 L 29.25 23.175781 C 29.320312 23.175781 29.375 23.230469 29.375 23.296875 L 29.375 27.96875 C 29.375 28.039062 29.320312 28.09375 29.25 28.09375 L 21.875 28.09375 C 21.808594 28.09375 21.75 28.039062 21.75 27.96875 Z M 21.75 27.96875 " fill-opacity="1" fill-rule="nonzero"/><path fill="#c4942e" d="M 30.324219 29.113281 L 20.800781 29.113281 C 20.675781 29.113281 20.570312 29.007812 20.570312 28.878906 L 20.570312 22.878906 C 20.570312 22.480469 20.894531 22.15625 21.292969 22.15625 L 29.835938 22.15625 C 30.230469 22.15625 30.554688 22.480469 30.554688 22.878906 L 30.554688 28.878906 C 30.554688 29.007812 30.453125 29.113281 30.324219 29.113281 Z M 21.03125 28.648438 L 30.09375 28.648438 L 30.09375 22.878906 C 30.09375 22.734375 29.976562 22.621094 29.835938 22.621094 L 21.289062 22.621094 C 21.148438 22.621094 21.03125 22.734375 21.03125 22.878906 Z M 21.03125 28.648438 " fill-opacity="1" fill-rule="nonzero"/><path fill="#c4942e" d="M 29.25 28.324219 L 21.875 28.324219 C 21.679688 28.324219 21.519531 28.164062 21.519531 27.96875 L 21.519531 23.296875 C 21.519531 23.101562 21.679688 22.945312 21.875 22.945312 L 29.25 22.945312 C 29.445312 22.945312 29.605469 23.101562 29.605469 23.296875 L 29.605469 27.96875 C 29.605469 28.164062 29.445312 28.324219 29.25 28.324219 Z M 21.984375 27.863281 L 29.144531 27.863281 L 29.144531 23.40625 L 21.984375 23.40625 Z M 21.984375 27.863281 " fill-opacity="1" fill-rule="nonzero"/><g clip-path="url(#d7d606c8f9)"><path fill="#c4942e" d="M 30.789062 29.914062 L 20.335938 29.914062 C 20.113281 29.914062 19.933594 29.734375 19.933594 29.511719 L 19.933594 28.96875 C 19.933594 28.921875 19.972656 28.878906 20.023438 28.878906 L 31.101562 28.878906 C 31.152344 28.878906 31.191406 28.921875 31.191406 28.96875 L 31.191406 29.511719 C 31.191406 29.734375 31.011719 29.914062 30.789062 29.914062 Z M 30.789062 29.914062 " fill-opacity="1" fill-rule="nonzero"/></g><g clip-path="url(#7799674d6a)"><path fill="#c4942e" d="M 30.789062 30.144531 L 20.335938 30.144531 C 19.988281 30.144531 19.703125 29.859375 19.703125 29.511719 L 19.703125 28.96875 C 19.703125 28.792969 19.847656 28.648438 20.023438 28.648438 L 31.101562 28.648438 C 31.28125 28.648438 31.421875 28.792969 31.421875 28.96875 L 31.421875 29.511719 C 31.421875 29.859375 31.140625 30.144531 30.789062 30.144531 Z M 20.164062 29.113281 L 20.164062 29.511719 C 20.164062 29.605469 20.242188 29.679688 20.335938 29.679688 L 30.789062 29.679688 C 30.882812 29.679688 30.960938 29.605469 30.960938 29.511719 L 30.960938 29.113281 Z M 20.164062 29.113281 " fill-opacity="1" fill-rule="nonzero"/></g><path fill="#c4942e" d="M 27.128906 26.535156 L 23.996094 26.535156 C 23.800781 26.535156 23.644531 26.378906 23.644531 26.183594 L 23.644531 25.085938 C 23.644531 24.890625 23.800781 24.734375 23.996094 24.734375 L 27.128906 24.734375 C 27.324219 24.734375 27.484375 24.890625 27.484375 25.085938 L 27.484375 26.183594 C 27.484375 26.378906 27.324219 26.535156 27.128906 26.535156 Z M 27.128906 26.535156 " fill-opacity="1" fill-rule="nonzero"/><path fill="#c4942e" d="M 27.128906 26.765625 L 23.996094 26.765625 C 23.671875 26.765625 23.410156 26.503906 23.410156 26.183594 L 23.410156 25.085938 C 23.410156 24.765625 23.671875 24.5 23.996094 24.5 L 27.128906 24.5 C 27.453125 24.5 27.714844 24.765625 27.714844 25.085938 L 27.714844 26.183594 C 27.714844 26.503906 27.453125 26.765625 27.128906 26.765625 Z M 23.996094 24.964844 C 23.929688 24.964844 23.875 25.019531 23.875 25.085938 L 23.875 26.183594 C 23.875 26.25 23.929688 26.304688 23.996094 26.304688 L 27.128906 26.304688 C 27.199219 26.304688 27.253906 26.25 27.253906 26.183594 L 27.253906 25.085938 C 27.253906 25.019531 27.199219 24.964844 27.128906 24.964844 Z M 23.996094 24.964844 " fill-opacity="1" fill-rule="nonzero"/><path fill="#ffffff" d="M 20.582031 18.785156 L 12.90625 18.785156 C 12.523438 18.785156 12.214844 18.476562 12.214844 18.09375 L 12.214844 14.472656 C 12.214844 14.089844 12.523438 13.777344 12.90625 13.777344 L 20.582031 13.777344 C 20.964844 13.777344 21.277344 14.089844 21.277344 14.472656 L 21.277344 18.09375 C 21.277344 18.476562 20.964844 18.785156 20.582031 18.785156 Z M 20.582031 18.785156 " fill-opacity="1" fill-rule="nonzero"/><path fill="#c4942e" d="M 13.386719 18.015625 C 13.261719 18.015625 13.15625 17.914062 13.15625 17.785156 L 13.15625 14.78125 C 13.15625 14.652344 13.261719 14.550781 13.386719 14.550781 L 14.429688 14.550781 C 14.875 14.550781 15.238281 14.914062 15.238281 15.359375 C 15.238281 15.804688 14.875 16.167969 14.429688 16.167969 L 13.621094 16.167969 L 13.621094 17.785156 C 13.621094 17.914062 13.515625 18.015625 13.386719 18.015625 Z M 13.621094 15.703125 L 14.429688 15.703125 C 14.621094 15.703125 14.777344 15.550781 14.777344 15.359375 C 14.777344 15.167969 14.621094 15.011719 14.429688 15.011719 L 13.621094 15.011719 Z M 13.621094 15.703125 " fill-opacity="1" fill-rule="nonzero"/><path fill="#c4942e" d="M 17.453125 18.015625 L 15.835938 18.015625 C 15.707031 18.015625 15.605469 17.914062 15.605469 17.785156 L 15.605469 16.515625 C 15.605469 16.066406 15.96875 15.703125 16.414062 15.703125 L 16.875 15.703125 C 17.066406 15.703125 17.222656 15.550781 17.222656 15.359375 C 17.222656 15.167969 17.066406 15.011719 16.875 15.011719 L 15.835938 15.011719 C 15.707031 15.011719 15.605469 14.90625 15.605469 14.78125 C 15.605469 14.652344 15.707031 14.550781 15.835938 14.550781 L 16.875 14.550781 C 17.324219 14.550781 17.6875 14.914062 17.6875 15.359375 C 17.6875 15.804688 17.324219 16.167969 16.875 16.167969 L 16.414062 16.167969 C 16.222656 16.167969 16.066406 16.324219 16.066406 16.515625 L 16.066406 17.554688 L 17.453125 17.554688 C 17.582031 17.554688 17.6875 17.65625 17.6875 17.785156 C 17.6875 17.914062 17.582031 18.015625 17.453125 18.015625 Z M 17.453125 18.015625 " fill-opacity="1" fill-rule="nonzero"/><path fill="#c4942e" d="M 18.484375 18.015625 C 18.355469 18.015625 18.253906 17.914062 18.253906 17.785156 L 18.253906 14.78125 C 18.253906 14.652344 18.355469 14.550781 18.484375 14.550781 L 19.523438 14.550781 C 19.96875 14.550781 20.332031 14.914062 20.332031 15.359375 C 20.332031 15.804688 19.96875 16.167969 19.523438 16.167969 L 18.714844 16.167969 L 18.714844 17.785156 C 18.714844 17.914062 18.613281 18.015625 18.484375 18.015625 Z M 18.714844 15.703125 L 19.523438 15.703125 C 19.714844 15.703125 19.871094 15.550781 19.871094 15.359375 C 19.871094 15.167969 19.714844 15.011719 19.523438 15.011719 L 18.714844 15.011719 Z M 18.714844 15.703125 " fill-opacity="1" fill-rule="nonzero"/><path fill="#c4942e" d="M 20.582031 19.019531 L 12.90625 19.019531 C 12.398438 19.019531 11.984375 18.601562 11.984375 18.09375 L 11.984375 14.472656 C 11.984375 13.960938 12.398438 13.546875 12.90625 13.546875 L 20.582031 13.546875 C 21.09375 13.546875 21.507812 13.960938 21.507812 14.472656 L 21.507812 18.09375 C 21.507812 18.601562 21.09375 19.019531 20.582031 19.019531 Z M 12.90625 14.011719 C 12.652344 14.011719 12.445312 14.21875 12.445312 14.472656 L 12.445312 18.09375 C 12.445312 18.347656 12.652344 18.554688 12.90625 18.554688 L 20.582031 18.554688 C 20.839844 18.554688 21.046875 18.347656 21.046875 18.09375 L 21.046875 14.472656 C 21.046875 14.21875 20.839844 14.011719 20.582031 14.011719 Z M 12.90625 14.011719 " fill-opacity="1" fill-rule="nonzero"/></svg>