<svg xmlns="http://www.w3.org/2000/svg" xmlns:xlink="http://www.w3.org/1999/xlink" width="45" zoomAndPan="magnify" viewBox="0 0 33.75 33.749998" height="45" preserveAspectRatio="xMidYMid meet" version="1.0"><defs><clipPath id="4c93aab4fa"><path d="M 17 1.871094 L 31.851562 1.871094 L 31.851562 17 L 17 17 Z M 17 1.871094 " clip-rule="nonzero"/></clipPath><clipPath id="256d82fad3"><path d="M 1.328125 17 L 16 17 L 16 31.652344 L 1.328125 31.652344 Z M 1.328125 17 " clip-rule="nonzero"/></clipPath><clipPath id="e32638bd08"><path d="M 19 17 L 31 17 L 31 31.652344 L 19 31.652344 Z M 19 17 " clip-rule="nonzero"/></clipPath></defs><g clip-path="url(#4c93aab4fa)"><path fill="#c4942e" d="M 24.929688 1.875 C 20.9375 1.875 17.691406 5.121094 17.691406 9.113281 C 17.691406 13.101562 20.941406 16.351562 24.929688 16.351562 C 28.917969 16.351562 32.167969 13.101562 32.167969 9.113281 C 32.167969 5.121094 28.921875 1.875 24.929688 1.875 Z M 29.246094 6.808594 C 29.121094 6.882812 28.988281 6.898438 28.847656 6.863281 C 28.707031 6.824219 28.601562 6.742188 28.53125 6.617188 C 27.59375 4.996094 26.332031 4.304688 24.96875 4.664062 C 23.933594 4.9375 23.042969 5.761719 22.492188 6.847656 L 26.914062 6.847656 C 27.058594 6.847656 27.183594 6.902344 27.285156 7.003906 C 27.390625 7.105469 27.441406 7.230469 27.441406 7.375 C 27.441406 7.519531 27.390625 7.644531 27.285156 7.746094 C 27.183594 7.851562 27.058594 7.902344 26.914062 7.902344 L 22.085938 7.902344 C 21.957031 8.378906 21.890625 8.863281 21.886719 9.355469 C 21.886719 9.585938 21.90625 9.816406 21.949219 10.042969 L 26.835938 10.015625 C 26.980469 10.011719 27.105469 10.066406 27.210938 10.167969 C 27.3125 10.269531 27.363281 10.394531 27.363281 10.539062 C 27.363281 10.683594 27.3125 10.808594 27.210938 10.910156 C 27.109375 11.015625 26.984375 11.066406 26.839844 11.066406 L 22.3125 11.089844 C 22.859375 12.148438 23.859375 12.921875 24.839844 13.171875 C 26.234375 13.53125 27.488281 12.886719 28.289062 11.410156 C 28.359375 11.285156 28.460938 11.203125 28.601562 11.164062 C 28.738281 11.121094 28.871094 11.136719 28.996094 11.203125 C 29.125 11.273438 29.207031 11.375 29.25 11.511719 C 29.292969 11.652344 29.277344 11.785156 29.210938 11.910156 C 28.371094 13.46875 27.0625 14.320312 25.59375 14.320312 C 25.25 14.320312 24.914062 14.277344 24.582031 14.191406 C 23.578125 13.933594 22.644531 13.316406 21.949219 12.453125 C 21.621094 12.039062 21.359375 11.589844 21.164062 11.097656 L 19.753906 11.105469 L 19.75 11.105469 C 19.605469 11.105469 19.480469 11.054688 19.378906 10.953125 C 19.273438 10.847656 19.222656 10.726562 19.222656 10.582031 C 19.222656 10.433594 19.273438 10.3125 19.375 10.207031 C 19.476562 10.105469 19.601562 10.054688 19.746094 10.050781 L 20.886719 10.046875 C 20.851562 9.816406 20.835938 9.582031 20.835938 9.347656 C 20.839844 8.859375 20.894531 8.375 21.003906 7.898438 L 19.683594 7.898438 C 19.539062 7.898438 19.414062 7.847656 19.3125 7.746094 C 19.207031 7.644531 19.15625 7.519531 19.15625 7.375 C 19.15625 7.226562 19.207031 7.105469 19.3125 7 C 19.414062 6.898438 19.539062 6.847656 19.683594 6.847656 L 21.335938 6.847656 C 21.503906 6.433594 21.71875 6.039062 21.972656 5.671875 C 22.683594 4.644531 23.652344 3.925781 24.699219 3.648438 C 25.574219 3.410156 26.417969 3.492188 27.234375 3.886719 C 28.09375 4.304688 28.832031 5.042969 29.4375 6.09375 C 29.507812 6.21875 29.527344 6.351562 29.488281 6.488281 C 29.453125 6.628906 29.371094 6.734375 29.246094 6.808594 Z M 29.246094 6.808594 " fill-opacity="1" fill-rule="nonzero"/></g><g clip-path="url(#256d82fad3)"><path fill="#c4942e" d="M 8.566406 17.148438 C 4.574219 17.148438 1.328125 20.394531 1.328125 24.386719 C 1.328125 28.375 4.574219 31.625 8.566406 31.625 C 12.554688 31.625 15.800781 28.378906 15.800781 24.386719 C 15.800781 20.398438 12.554688 17.148438 8.566406 17.148438 Z M 8.578125 24.074219 C 8.613281 24.074219 8.652344 24.078125 8.6875 24.085938 C 10.195312 24.148438 11.402344 25.347656 11.402344 26.796875 C 11.402344 28.117188 10.402344 29.226562 9.089844 29.464844 L 9.089844 30.382812 C 9.089844 30.527344 9.039062 30.652344 8.9375 30.753906 C 8.832031 30.855469 8.710938 30.90625 8.566406 30.90625 C 8.417969 30.90625 8.296875 30.855469 8.191406 30.753906 C 8.089844 30.652344 8.039062 30.527344 8.039062 30.382812 L 8.039062 29.46875 C 6.714844 29.234375 5.710938 28.125 5.710938 26.796875 C 5.710938 26.652344 5.765625 26.527344 5.867188 26.425781 C 5.96875 26.324219 6.09375 26.273438 6.238281 26.273438 C 6.382812 26.273438 6.507812 26.324219 6.609375 26.425781 C 6.714844 26.527344 6.765625 26.652344 6.765625 26.796875 C 6.765625 27.714844 7.570312 28.464844 8.558594 28.464844 L 8.574219 28.464844 C 9.554688 28.457031 10.351562 27.707031 10.351562 26.796875 C 10.351562 25.886719 9.554688 25.140625 8.574219 25.132812 C 8.539062 25.132812 8.507812 25.128906 8.472656 25.125 C 6.953125 25.070312 5.734375 23.875 5.734375 22.410156 C 5.734375 22.34375 5.734375 22.273438 5.742188 22.210938 C 5.835938 20.976562 6.804688 19.976562 8.039062 19.746094 L 8.039062 18.828125 C 8.039062 18.683594 8.089844 18.558594 8.195312 18.457031 C 8.296875 18.355469 8.421875 18.300781 8.566406 18.300781 C 8.710938 18.300781 8.835938 18.355469 8.9375 18.457031 C 9.039062 18.558594 9.09375 18.683594 9.09375 18.828125 L 9.09375 19.742188 C 10.339844 19.960938 11.320312 20.96875 11.417969 22.210938 C 11.421875 22.355469 11.378906 22.480469 11.285156 22.585938 C 11.191406 22.695312 11.074219 22.753906 10.929688 22.765625 C 10.789062 22.773438 10.664062 22.734375 10.554688 22.640625 C 10.445312 22.550781 10.382812 22.433594 10.367188 22.292969 C 10.304688 21.425781 9.515625 20.746094 8.582031 20.746094 L 8.558594 20.746094 C 7.628906 20.757812 6.855469 21.433594 6.789062 22.292969 C 6.785156 22.332031 6.785156 22.371094 6.785156 22.410156 C 6.785156 23.328125 7.589844 24.074219 8.578125 24.074219 Z M 8.578125 24.074219 " fill-opacity="1" fill-rule="nonzero"/></g><path fill="#c4942e" d="M 13.960938 8.449219 L 11.277344 8.4375 C 11.132812 8.4375 11.007812 8.488281 10.90625 8.589844 C 10.804688 8.691406 10.75 8.816406 10.75 8.960938 L 10.742188 16.386719 C 9.285156 15.996094 7.832031 15.996094 6.375 16.390625 L 6.378906 8.964844 C 6.378906 8.820312 6.328125 8.695312 6.226562 8.59375 C 6.125 8.488281 6 8.4375 5.855469 8.4375 L 3.167969 8.4375 L 3.179688 8.417969 L 8.535156 2.433594 C 8.539062 2.433594 8.546875 2.433594 8.554688 2.433594 L 8.59375 2.433594 C 8.601562 2.4375 8.609375 2.441406 8.617188 2.449219 Z M 13.960938 8.449219 " fill-opacity="1" fill-rule="nonzero"/><g clip-path="url(#e32638bd08)"><path fill="#c4942e" d="M 30.324219 25.101562 L 24.960938 31.089844 C 24.953125 31.09375 24.945312 31.097656 24.9375 31.101562 L 24.898438 31.101562 C 24.890625 31.101562 24.886719 31.101562 24.878906 31.101562 L 19.539062 25.101562 C 19.539062 25.097656 19.535156 25.089844 19.53125 25.082031 L 22.214844 25.089844 C 22.359375 25.089844 22.484375 25.039062 22.585938 24.9375 C 22.691406 24.835938 22.742188 24.710938 22.742188 24.566406 L 22.753906 17.113281 C 24.210938 17.503906 25.664062 17.5 27.121094 17.109375 L 27.117188 24.582031 C 27.117188 24.726562 27.167969 24.851562 27.269531 24.953125 C 27.371094 25.054688 27.496094 25.105469 27.640625 25.105469 Z M 30.324219 25.101562 " fill-opacity="1" fill-rule="nonzero"/></g></svg>