<svg xmlns="http://www.w3.org/2000/svg" xmlns:xlink="http://www.w3.org/1999/xlink" width="45" zoomAndPan="magnify" viewBox="0 0 33.75 33.749998" height="45" preserveAspectRatio="xMidYMid meet" version="1.0"><defs><clipPath id="81d9b9fbf9"><path d="M 1.675781 1.675781 L 32 1.675781 L 32 32 L 1.675781 32 Z M 1.675781 1.675781 " clip-rule="nonzero"/></clipPath></defs><g clip-path="url(#81d9b9fbf9)"><path fill="#c4942e" d="M 29.816406 23.785156 L 18.761719 23.785156 C 18.207031 23.785156 17.757812 23.335938 17.757812 22.78125 L 17.757812 12.730469 L 30.820312 12.730469 L 30.820312 22.78125 C 30.820312 23.335938 30.371094 23.785156 29.816406 23.785156 Z M 24.792969 26.800781 L 8.710938 26.800781 L 8.710938 23.785156 C 8.914062 23.785156 9.113281 23.777344 9.316406 23.761719 C 9.644531 23.730469 9.921875 23.519531 10.050781 23.207031 L 10.378906 22.386719 C 10.773438 22.269531 11.152344 22.113281 11.511719 21.914062 L 12.328125 22.261719 C 12.632812 22.394531 12.984375 22.34375 13.238281 22.132812 C 13.394531 22.007812 13.542969 21.867188 13.683594 21.726562 C 13.828125 21.582031 13.964844 21.433594 14.09375 21.28125 C 14.304688 21.027344 14.355469 20.675781 14.222656 20.367188 L 13.875 19.554688 C 14.070312 19.191406 14.226562 18.8125 14.347656 18.417969 L 15.164062 18.089844 C 15.167969 18.089844 15.167969 18.089844 15.167969 18.089844 C 15.480469 17.964844 15.6875 17.683594 15.71875 17.355469 C 15.738281 17.15625 15.746094 16.953125 15.746094 16.75 C 15.746094 16.546875 15.738281 16.347656 15.71875 16.144531 C 15.6875 15.820312 15.480469 15.539062 15.164062 15.410156 L 14.347656 15.082031 C 14.226562 14.6875 14.070312 14.308594 13.875 13.949219 L 14.222656 13.132812 C 14.355469 12.824219 14.304688 12.476562 14.09375 12.222656 C 13.964844 12.066406 13.828125 11.921875 13.683594 11.777344 C 13.542969 11.632812 13.394531 11.496094 13.238281 11.367188 C 12.984375 11.15625 12.632812 11.105469 12.328125 11.238281 L 11.511719 11.585938 C 11.152344 11.390625 10.773438 11.234375 10.378906 11.113281 L 10.050781 10.292969 C 9.921875 9.984375 9.644531 9.773438 9.316406 9.742188 C 9.113281 9.722656 8.914062 9.714844 8.710938 9.714844 L 8.710938 6.699219 L 24.792969 6.699219 L 24.792969 7.707031 L 18.761719 7.707031 C 17.652344 7.707031 16.75 8.605469 16.75 9.714844 L 16.75 22.78125 C 16.75 23.890625 17.652344 24.792969 18.761719 24.792969 L 24.792969 24.792969 Z M 23.785156 30.820312 L 9.714844 30.820312 C 9.160156 30.820312 8.710938 30.371094 8.710938 29.816406 L 8.710938 27.804688 L 24.792969 27.804688 L 24.792969 29.816406 C 24.792969 30.371094 24.339844 30.820312 23.785156 30.820312 Z M 6.199219 20.925781 C 6.058594 20.839844 5.890625 20.824219 5.742188 20.890625 L 4.765625 21.3125 C 4.65625 21.214844 4.550781 21.117188 4.445312 21.015625 C 4.34375 20.914062 4.246094 20.804688 4.152344 20.695312 L 4.570312 19.71875 C 4.632812 19.570312 4.621094 19.402344 4.539062 19.261719 C 4.285156 18.84375 4.097656 18.394531 3.980469 17.925781 C 3.941406 17.769531 3.832031 17.640625 3.679688 17.578125 L 2.695312 17.183594 C 2.6875 17.042969 2.679688 16.894531 2.679688 16.75 C 2.679688 16.605469 2.6875 16.460938 2.695312 16.316406 L 3.679688 15.921875 C 3.832031 15.863281 3.941406 15.734375 3.980469 15.578125 C 4.097656 15.105469 4.285156 14.65625 4.539062 14.242188 C 4.621094 14.101562 4.632812 13.929688 4.570312 13.78125 L 4.152344 12.804688 C 4.246094 12.695312 4.34375 12.589844 4.445312 12.488281 C 4.550781 12.382812 4.65625 12.285156 4.765625 12.191406 L 5.742188 12.609375 C 5.890625 12.671875 6.058594 12.660156 6.199219 12.578125 C 6.617188 12.328125 7.066406 12.140625 7.535156 12.023438 C 7.695312 11.984375 7.820312 11.871094 7.882812 11.722656 L 8.277344 10.734375 C 8.5625 10.714844 8.855469 10.714844 9.144531 10.734375 L 9.539062 11.722656 C 9.601562 11.871094 9.726562 11.984375 9.882812 12.023438 C 10.355469 12.140625 10.804688 12.328125 11.222656 12.578125 C 11.359375 12.660156 11.53125 12.671875 11.679688 12.609375 L 12.65625 12.191406 C 12.765625 12.285156 12.871094 12.382812 12.972656 12.488281 C 13.078125 12.589844 13.175781 12.695312 13.269531 12.804688 L 12.851562 13.78125 C 12.789062 13.929688 12.800781 14.101562 12.882812 14.242188 C 13.136719 14.65625 13.320312 15.105469 13.4375 15.578125 C 13.480469 15.734375 13.589844 15.863281 13.738281 15.921875 L 14.726562 16.316406 C 14.734375 16.460938 14.742188 16.605469 14.742188 16.75 C 14.742188 16.894531 14.734375 17.042969 14.726562 17.183594 L 13.738281 17.578125 C 13.589844 17.640625 13.480469 17.769531 13.4375 17.925781 C 13.320312 18.394531 13.136719 18.84375 12.882812 19.261719 C 12.800781 19.402344 12.789062 19.570312 12.851562 19.71875 L 13.269531 20.695312 C 13.175781 20.804688 13.078125 20.914062 12.972656 21.015625 C 12.871094 21.117188 12.765625 21.214844 12.65625 21.3125 L 11.679688 20.890625 C 11.53125 20.824219 11.359375 20.839844 11.222656 20.925781 C 10.804688 21.175781 10.355469 21.363281 9.882812 21.480469 C 9.726562 21.519531 9.601562 21.632812 9.539062 21.78125 L 9.144531 22.765625 C 8.859375 22.789062 8.566406 22.789062 8.277344 22.765625 L 7.882812 21.78125 C 7.820312 21.632812 7.695312 21.519531 7.535156 21.480469 C 7.066406 21.363281 6.617188 21.175781 6.199219 20.925781 Z M 9.714844 2.679688 L 23.785156 2.679688 C 24.339844 2.679688 24.792969 3.132812 24.792969 3.683594 L 24.792969 5.695312 L 8.710938 5.695312 L 8.710938 3.683594 C 8.710938 3.132812 9.160156 2.679688 9.714844 2.679688 Z M 30.820312 9.714844 L 30.820312 11.726562 L 17.757812 11.726562 L 17.757812 9.714844 C 17.757812 9.160156 18.207031 8.710938 18.761719 8.710938 L 29.816406 8.710938 C 30.371094 8.710938 30.820312 9.160156 30.820312 9.714844 Z M 29.816406 7.707031 L 25.796875 7.707031 L 25.796875 3.683594 C 25.796875 2.574219 24.894531 1.675781 23.785156 1.675781 L 9.714844 1.675781 C 8.605469 1.675781 7.707031 2.574219 7.707031 3.683594 L 7.707031 9.886719 C 7.558594 9.988281 7.441406 10.125 7.371094 10.296875 L 7.042969 11.113281 C 6.648438 11.234375 6.265625 11.390625 5.90625 11.585938 L 5.09375 11.238281 C 4.785156 11.105469 4.433594 11.15625 4.183594 11.367188 C 4.027344 11.496094 3.878906 11.632812 3.734375 11.777344 C 3.59375 11.921875 3.457031 12.066406 3.328125 12.222656 C 3.117188 12.476562 3.066406 12.824219 3.199219 13.132812 L 3.546875 13.949219 C 3.347656 14.308594 3.191406 14.6875 3.074219 15.082031 L 2.253906 15.414062 C 1.941406 15.539062 1.730469 15.820312 1.703125 16.144531 C 1.683594 16.347656 1.675781 16.546875 1.675781 16.75 C 1.675781 16.953125 1.683594 17.15625 1.703125 17.355469 C 1.730469 17.683594 1.941406 17.964844 2.257812 18.089844 L 3.074219 18.417969 C 3.191406 18.8125 3.347656 19.191406 3.546875 19.554688 L 3.199219 20.367188 C 3.066406 20.675781 3.117188 21.027344 3.328125 21.28125 C 3.457031 21.433594 3.59375 21.582031 3.734375 21.726562 C 3.878906 21.867188 4.027344 22.007812 4.183594 22.136719 C 4.433594 22.34375 4.785156 22.394531 5.09375 22.261719 L 5.90625 21.914062 C 6.265625 22.113281 6.648438 22.269531 7.042969 22.386719 L 7.371094 23.207031 C 7.441406 23.378906 7.558594 23.515625 7.707031 23.613281 L 7.707031 29.816406 C 7.707031 30.925781 8.605469 31.828125 9.714844 31.828125 L 23.785156 31.828125 C 24.894531 31.828125 25.796875 30.925781 25.796875 29.816406 L 25.796875 24.792969 L 29.816406 24.792969 C 30.925781 24.792969 31.828125 23.890625 31.828125 22.78125 L 31.828125 9.714844 C 31.828125 8.605469 30.925781 7.707031 29.816406 7.707031 " fill-opacity="1" fill-rule="nonzero"/></g><path fill="#c4942e" d="M 5.695312 16.75 C 5.695312 15.441406 6.539062 14.328125 7.707031 13.910156 L 7.707031 15.019531 C 7.105469 15.367188 6.699219 16.011719 6.699219 16.75 C 6.699219 17.492188 7.105469 18.132812 7.707031 18.480469 L 7.707031 19.589844 C 6.539062 19.175781 5.695312 18.058594 5.695312 16.75 Z M 8.710938 15.746094 C 9.265625 15.746094 9.714844 16.199219 9.714844 16.75 C 9.714844 17.304688 9.265625 17.757812 8.710938 17.757812 C 8.15625 17.757812 7.707031 17.304688 7.707031 16.75 C 7.707031 16.199219 8.15625 15.746094 8.710938 15.746094 Z M 11.726562 16.75 C 11.726562 18.414062 10.375 19.765625 8.710938 19.765625 L 8.710938 18.761719 C 9.820312 18.761719 10.71875 17.859375 10.71875 16.75 C 10.71875 15.640625 9.820312 14.742188 8.710938 14.742188 L 8.710938 13.734375 C 10.375 13.734375 11.726562 15.089844 11.726562 16.75 Z M 12.730469 16.75 C 12.730469 14.535156 10.925781 12.730469 8.710938 12.730469 C 6.496094 12.730469 4.691406 14.535156 4.691406 16.75 C 4.691406 18.96875 6.496094 20.769531 8.710938 20.769531 C 10.925781 20.769531 12.730469 18.96875 12.730469 16.75 " fill-opacity="1" fill-rule="nonzero"/><path fill="#c4942e" d="M 19.765625 16.75 L 19.765625 14.742188 L 28.8125 14.742188 L 28.8125 16.75 Z M 28.8125 13.734375 L 19.765625 13.734375 C 19.210938 13.734375 18.761719 14.1875 18.761719 14.742188 L 18.761719 16.75 C 18.761719 17.304688 19.210938 17.757812 19.765625 17.757812 L 28.8125 17.757812 C 29.363281 17.757812 29.816406 17.304688 29.816406 16.75 L 29.816406 14.742188 C 29.816406 14.1875 29.363281 13.734375 28.8125 13.734375 " fill-opacity="1" fill-rule="nonzero"/><path fill="#c4942e" d="M 14.742188 4.691406 L 15.242188 4.691406 C 15.519531 4.691406 15.746094 4.464844 15.746094 4.1875 C 15.746094 3.910156 15.519531 3.683594 15.242188 3.683594 L 14.742188 3.683594 C 14.464844 3.683594 14.238281 3.910156 14.238281 4.1875 C 14.238281 4.464844 14.464844 4.691406 14.742188 4.691406 " fill-opacity="1" fill-rule="nonzero"/><path fill="#c4942e" d="M 17.253906 4.691406 L 18.761719 4.691406 C 19.039062 4.691406 19.261719 4.464844 19.261719 4.1875 C 19.261719 3.910156 19.039062 3.683594 18.761719 3.683594 L 17.253906 3.683594 C 16.976562 3.683594 16.75 3.910156 16.75 4.1875 C 16.75 4.464844 16.976562 4.691406 17.253906 4.691406 " fill-opacity="1" fill-rule="nonzero"/><path fill="#c4942e" d="M 17.757812 28.8125 L 15.746094 28.8125 C 15.46875 28.8125 15.242188 29.039062 15.242188 29.3125 C 15.242188 29.589844 15.46875 29.816406 15.746094 29.816406 L 17.757812 29.816406 C 18.03125 29.816406 18.257812 29.589844 18.257812 29.3125 C 18.257812 29.039062 18.03125 28.8125 17.757812 28.8125 " fill-opacity="1" fill-rule="nonzero"/><path fill="#c4942e" d="M 19.765625 9.714844 L 19.261719 9.714844 C 18.988281 9.714844 18.761719 9.941406 18.761719 10.21875 C 18.761719 10.496094 18.988281 10.71875 19.261719 10.71875 L 19.765625 10.71875 C 20.042969 10.71875 20.269531 10.496094 20.269531 10.21875 C 20.269531 9.941406 20.042969 9.714844 19.765625 9.714844 " fill-opacity="1" fill-rule="nonzero"/><path fill="#c4942e" d="M 22.277344 9.714844 L 21.777344 9.714844 C 21.5 9.714844 21.273438 9.941406 21.273438 10.21875 C 21.273438 10.496094 21.5 10.71875 21.777344 10.71875 L 22.277344 10.71875 C 22.554688 10.71875 22.78125 10.496094 22.78125 10.21875 C 22.78125 9.941406 22.554688 9.714844 22.277344 9.714844 " fill-opacity="1" fill-rule="nonzero"/><path fill="#c4942e" d="M 26.800781 10.71875 L 29.3125 10.71875 C 29.589844 10.71875 29.816406 10.496094 29.816406 10.21875 C 29.816406 9.941406 29.589844 9.714844 29.3125 9.714844 L 26.800781 9.714844 C 26.523438 9.714844 26.300781 9.941406 26.300781 10.21875 C 26.300781 10.496094 26.523438 10.71875 26.800781 10.71875 " fill-opacity="1" fill-rule="nonzero"/><path fill="#c4942e" d="M 24.792969 18.761719 L 20.269531 18.761719 C 19.992188 18.761719 19.765625 18.988281 19.765625 19.261719 C 19.765625 19.539062 19.992188 19.765625 20.269531 19.765625 L 24.792969 19.765625 C 25.066406 19.765625 25.292969 19.539062 25.292969 19.261719 C 25.292969 18.988281 25.066406 18.761719 24.792969 18.761719 " fill-opacity="1" fill-rule="nonzero"/><path fill="#c4942e" d="M 23.785156 20.769531 L 20.269531 20.769531 C 19.992188 20.769531 19.765625 20.996094 19.765625 21.273438 C 19.765625 21.550781 19.992188 21.777344 20.269531 21.777344 L 23.785156 21.777344 C 24.0625 21.777344 24.289062 21.550781 24.289062 21.273438 C 24.289062 20.996094 24.0625 20.769531 23.785156 20.769531 " fill-opacity="1" fill-rule="nonzero"/><path fill="#c4942e" d="M 28.308594 18.761719 L 26.800781 18.761719 C 26.523438 18.761719 26.300781 18.988281 26.300781 19.261719 C 26.300781 19.539062 26.523438 19.765625 26.800781 19.765625 L 28.308594 19.765625 C 28.585938 19.765625 28.8125 19.539062 28.8125 19.261719 C 28.8125 18.988281 28.585938 18.761719 28.308594 18.761719 " fill-opacity="1" fill-rule="nonzero"/><path fill="#c4942e" d="M 27.304688 20.769531 L 25.796875 20.769531 C 25.519531 20.769531 25.292969 20.996094 25.292969 21.273438 C 25.292969 21.550781 25.519531 21.777344 25.796875 21.777344 L 27.304688 21.777344 C 27.582031 21.777344 27.804688 21.550781 27.804688 21.273438 C 27.804688 20.996094 27.582031 20.769531 27.304688 20.769531 " fill-opacity="1" fill-rule="nonzero"/></svg>