<svg xmlns="http://www.w3.org/2000/svg" xmlns:xlink="http://www.w3.org/1999/xlink" width="45" zoomAndPan="magnify" viewBox="0 0 33.75 33.749998" height="45" preserveAspectRatio="xMidYMid meet" version="1.0"><defs><clipPath id="4da8531ddf"><path d="M 10.246094 7.886719 L 33.324219 7.886719 L 33.324219 30.964844 L 10.246094 30.964844 Z M 10.246094 7.886719 " clip-rule="nonzero"/></clipPath><clipPath id="dc2a94b75e"><path d="M 0.988281 2.308594 L 13.644531 2.308594 L 13.644531 13.476562 L 0.988281 13.476562 Z M 0.988281 2.308594 " clip-rule="nonzero"/></clipPath></defs><g clip-path="url(#4da8531ddf)"><path fill="#c4942e" d="M 13.164062 7.890625 C 11.570312 7.890625 10.246094 9.214844 10.246094 10.808594 L 10.246094 28.21875 C 10.246094 29.8125 11.539062 31.140625 13.136719 31.140625 L 21.128906 31.140625 C 22.726562 31.140625 24.050781 29.816406 24.050781 28.21875 L 24.050781 25.691406 L 28.046875 25.691406 L 28.046875 27.203125 C 27.621094 27.347656 27.320312 27.761719 27.320312 28.230469 C 27.320312 28.828125 27.796875 29.328125 28.410156 29.324219 C 29.027344 29.320312 29.5 28.828125 29.5 28.230469 C 29.5 27.761719 29.195312 27.347656 28.773438 27.207031 L 28.773438 25.324219 C 28.773438 25.125 28.609375 24.960938 28.410156 24.964844 L 24.050781 24.964844 L 24.050781 24.332031 C 24.363281 23.964844 24.476562 23.601562 24.296875 23.152344 C 24.246094 23.03125 24.121094 22.773438 24.199219 22.421875 L 27.746094 22.425781 C 27.894531 22.847656 28.304688 23.148438 28.773438 23.148438 C 29.371094 23.148438 29.863281 22.664062 29.863281 22.054688 C 29.863281 21.449219 29.382812 20.964844 28.773438 20.96875 C 28.289062 20.96875 27.890625 21.269531 27.738281 21.691406 L 24.480469 21.695312 C 24.722656 21.230469 25.0625 21.136719 25.171875 21.085938 C 25.335938 21.011719 25.558594 20.882812 25.691406 20.601562 C 25.785156 20.410156 25.832031 20.183594 25.855469 19.875 L 32.042969 19.875 L 32.042969 22.480469 C 31.621094 22.625 31.316406 23.039062 31.316406 23.507812 C 31.3125 24.128906 31.808594 24.597656 32.40625 24.597656 C 33.003906 24.597656 33.5 24.125 33.496094 23.507812 C 33.492188 23.039062 33.1875 22.617188 32.769531 22.484375 L 32.769531 16.917969 C 33.191406 16.765625 33.496094 16.351562 33.496094 15.878906 C 33.496094 15.28125 33.023438 14.789062 32.40625 14.789062 C 31.800781 14.792969 31.316406 15.28125 31.316406 15.878906 C 31.316406 16.347656 31.625 16.765625 32.046875 16.917969 L 32.042969 19.148438 L 25.855469 19.148438 C 25.832031 18.84375 25.785156 18.617188 25.691406 18.425781 C 25.5625 18.144531 25.335938 18.015625 25.171875 17.941406 C 25.109375 17.894531 24.742188 17.832031 24.480469 17.332031 L 27.746094 17.339844 C 27.898438 17.757812 28.304688 18.0625 28.773438 18.058594 C 29.394531 18.054688 29.863281 17.566406 29.863281 16.96875 C 29.863281 16.375 29.378906 15.878906 28.773438 15.878906 C 28.292969 15.878906 27.898438 16.1875 27.742188 16.605469 L 24.203125 16.605469 C 24.136719 16.308594 24.199219 16.117188 24.296875 15.875 C 24.492188 15.425781 24.339844 15.058594 24.054688 14.6875 L 24.050781 14.082031 L 28.410156 14.082031 C 28.609375 14.082031 28.773438 13.921875 28.773438 13.71875 L 28.777344 11.820312 C 29.195312 11.671875 29.5 11.265625 29.5 10.796875 C 29.5 10.199219 29.03125 9.699219 28.410156 9.703125 C 27.789062 9.707031 27.320312 10.199219 27.320312 10.796875 C 27.320312 11.265625 27.625 11.679688 28.046875 11.832031 L 28.046875 13.355469 L 24.050781 13.355469 L 24.050781 10.808594 C 24.050781 9.214844 22.753906 7.886719 21.15625 7.886719 L 13.167969 7.890625 Z M 21.15625 10.070312 C 21.582031 10.070312 21.871094 10.398438 21.871094 10.785156 C 21.871094 12.023438 21.871094 12.867188 21.871094 13.875 C 21.355469 13.984375 20.527344 13.574219 20.308594 13.3125 C 20.128906 13.140625 20.101562 12.628906 19.640625 12.414062 C 19.390625 12.269531 18.871094 12.238281 18.601562 12.246094 C 18.601562 11.480469 17.988281 10.792969 17.148438 10.796875 C 16.3125 10.800781 15.695312 11.449219 15.695312 12.25 L 15.695312 26.777344 C 15.695312 27.597656 16.347656 28.230469 17.148438 28.230469 C 17.945312 28.230469 18.601562 27.59375 18.609375 26.78125 C 19.007812 26.792969 19.390625 26.742188 19.640625 26.613281 C 19.914062 26.484375 20.054688 26.238281 20.125 26.066406 C 20.253906 25.460938 21.496094 25.003906 21.871094 25.160156 L 21.871094 28.242188 C 21.871094 28.632812 21.554688 28.960938 21.128906 28.960938 L 13.136719 28.960938 C 12.75 28.960938 12.425781 28.671875 12.425781 28.242188 C 12.425781 22.402344 12.425781 16.628906 12.425781 10.785156 C 12.425781 10.367188 12.765625 10.070312 13.167969 10.070312 Z M 28.773438 10.796875 C 28.773438 10.980469 28.613281 11.15625 28.410156 11.15625 C 28.203125 11.15625 28.050781 10.976562 28.046875 10.796875 C 28.273438 10.246094 28.578125 10.484375 28.773438 10.796875 Z M 22.5625 14.394531 C 22.816406 14.402344 23.726562 15.285156 23.652344 15.511719 C 23.40625 16.003906 23.335938 16.640625 23.679688 17.34375 C 24.078125 18.398438 24.542969 18.394531 24.992188 18.691406 C 25.195312 19.042969 25.175781 20.140625 25 20.347656 C 24.824219 20.476562 24.085938 20.585938 23.679688 21.683594 C 23.175781 22.695312 23.621094 23.363281 23.65625 23.558594 C 23.636719 23.839844 22.761719 24.648438 22.570312 24.628906 C 22.300781 24.5625 21.789062 24.15625 20.703125 24.625 C 20.019531 24.875 19.617188 25.265625 19.386719 25.90625 C 19.296875 26.082031 18.195312 26.109375 17.855469 25.949219 C 17.773438 25.898438 17.671875 25.472656 17.441406 25.242188 C 17.183594 24.9375 16.820312 24.730469 16.421875 24.597656 L 16.421875 22.417969 C 18.632812 24.160156 22.242188 22.671875 22.234375 19.476562 C 22.234375 17.351562 20.464844 15.878906 18.597656 15.882812 C 17.792969 15.878906 17.027344 16.136719 16.421875 16.609375 L 16.429688 14.441406 C 17.449219 14.074219 17.621094 13.550781 17.832031 13.105469 C 17.960938 12.925781 19.113281 12.953125 19.304688 13.054688 C 19.460938 13.128906 19.449219 13.453125 19.855469 13.90625 C 20.921875 14.777344 21.90625 14.75 22.566406 14.394531 Z M 32.40625 15.519531 C 32.613281 15.519531 32.769531 15.691406 32.769531 15.878906 C 32.769531 16.070312 32.613281 16.246094 32.40625 16.246094 C 32.203125 16.246094 32.042969 16.074219 32.042969 15.878906 C 32.042969 15.6875 32.203125 15.519531 32.40625 15.519531 Z M 28.773438 16.605469 C 28.976562 16.605469 29.132812 16.78125 29.136719 16.972656 C 29.136719 17.164062 28.976562 17.332031 28.773438 17.332031 C 28.578125 17.332031 28.410156 17.175781 28.410156 16.972656 C 28.410156 16.765625 28.585938 16.605469 28.773438 16.605469 Z M 28.773438 21.695312 C 28.976562 21.695312 29.132812 21.863281 29.136719 22.054688 C 29.136719 22.261719 28.96875 22.421875 28.773438 22.421875 C 28.578125 22.421875 28.410156 22.261719 28.410156 22.054688 C 28.40625 21.867188 28.570312 21.695312 28.773438 21.695312 Z M 32.769531 23.511719 C 32.765625 23.703125 32.613281 23.875 32.40625 23.875 C 32.203125 23.875 32.042969 23.699219 32.042969 23.511719 C 32.042969 23.304688 32.214844 23.148438 32.40625 23.148438 C 32.613281 23.148438 32.773438 23.320312 32.769531 23.511719 Z M 28.410156 27.871094 C 28.597656 27.867188 28.773438 28.027344 28.773438 28.230469 C 28.773438 28.4375 28.601562 28.597656 28.410156 28.597656 C 28.214844 28.59375 28.046875 28.4375 28.046875 28.230469 C 28.046875 28.027344 28.21875 27.871094 28.410156 27.871094 Z M 28.410156 27.871094 " fill-opacity="1" fill-rule="nonzero"/></g><g clip-path="url(#dc2a94b75e)"><path fill="#c4942e" d="M 13.574219 2.308594 L 11.355469 13.464844 L 7.269531 10.328125 L 6.332031 9.609375 L 11.609375 4.324219 C 11.675781 4.257812 11.683594 4.152344 11.625 4.078125 C 11.566406 4.003906 11.460938 3.984375 11.382812 4.035156 L 4.101562 8.558594 L 0.992188 7.339844 L 13.574219 2.308594 " fill-opacity="1" fill-rule="nonzero"/></g><path fill="#c4942e" d="M 6.894531 10.507812 L 5.625 12.097656 L 6.164062 9.945312 Z M 6.894531 10.507812 " fill-opacity="1" fill-rule="nonzero"/><path fill="#c4942e" d="M 10.214844 5.195312 L 5.921875 9.496094 C 5.917969 9.496094 5.917969 9.5 5.917969 9.5 C 5.914062 9.5 5.914062 9.503906 5.914062 9.503906 C 5.910156 9.503906 5.910156 9.507812 5.910156 9.507812 C 5.90625 9.507812 5.90625 9.511719 5.90625 9.511719 C 5.902344 9.515625 5.902344 9.515625 5.902344 9.515625 C 5.902344 9.519531 5.898438 9.519531 5.898438 9.523438 C 5.898438 9.523438 5.894531 9.527344 5.894531 9.527344 C 5.894531 9.527344 5.894531 9.53125 5.890625 9.53125 C 5.890625 9.535156 5.890625 9.535156 5.890625 9.539062 C 5.886719 9.539062 5.886719 9.542969 5.886719 9.542969 C 5.886719 9.546875 5.882812 9.546875 5.882812 9.546875 C 5.882812 9.550781 5.882812 9.550781 5.878906 9.554688 C 5.878906 9.554688 5.878906 9.558594 5.878906 9.558594 C 5.878906 9.5625 5.878906 9.5625 5.875 9.566406 C 5.875 9.566406 5.875 9.570312 5.875 9.570312 C 5.875 9.574219 5.871094 9.578125 5.871094 9.582031 L 5.234375 12.144531 L 4.976562 11.199219 L 4.335938 8.847656 L 10.214844 5.195312 " fill-opacity="1" fill-rule="nonzero"/></svg>