<svg xmlns="http://www.w3.org/2000/svg" xmlns:xlink="http://www.w3.org/1999/xlink" width="45" zoomAndPan="magnify" viewBox="0 0 33.75 33.749998" height="45" preserveAspectRatio="xMidYMid meet" version="1.0"><defs><clipPath id="ecf2440c70"><path d="M 2.429688 2.230469 L 30.71875 2.230469 L 30.71875 31.265625 L 2.429688 31.265625 Z M 2.429688 2.230469 " clip-rule="nonzero"/></clipPath></defs><g clip-path="url(#ecf2440c70)"><path fill="#c4942e" d="M 5.328125 27.125 C 5.324219 27.277344 5.351562 27.421875 5.40625 27.5625 L 5.40625 27.59375 C 5.433594 27.652344 5.46875 27.707031 5.503906 27.761719 C 5.542969 27.824219 5.589844 27.882812 5.648438 27.929688 C 5.703125 27.980469 5.761719 28.023438 5.824219 28.0625 C 5.875 28.097656 5.933594 28.128906 5.992188 28.152344 C 6.058594 28.183594 6.128906 28.207031 6.203125 28.21875 C 6.277344 28.234375 6.355469 28.242188 6.433594 28.242188 L 18.457031 28.242188 C 18.625 28.242188 18.761719 28.300781 18.878906 28.417969 C 18.996094 28.535156 19.050781 28.679688 19.042969 28.84375 L 19.042969 30.570312 C 19.050781 30.738281 18.996094 30.882812 18.882812 31.003906 C 18.765625 31.125 18.625 31.183594 18.457031 31.183594 L 6.457031 31.183594 C 6.183594 31.183594 5.914062 31.160156 5.648438 31.105469 C 5.386719 31.050781 5.132812 30.96875 4.886719 30.859375 C 4.652344 30.757812 4.425781 30.636719 4.210938 30.492188 C 3.996094 30.355469 3.796875 30.195312 3.617188 30.011719 C 3.4375 29.824219 3.273438 29.621094 3.128906 29.410156 C 2.976562 29.191406 2.847656 28.960938 2.738281 28.71875 C 2.632812 28.464844 2.554688 28.207031 2.503906 27.9375 C 2.449219 27.671875 2.425781 27.40625 2.425781 27.132812 L 2.425781 6.367188 C 2.421875 6.105469 2.453125 5.84375 2.515625 5.589844 C 2.574219 5.324219 2.65625 5.070312 2.769531 4.828125 C 2.875 4.589844 3.007812 4.363281 3.160156 4.148438 C 3.304688 3.9375 3.46875 3.738281 3.648438 3.554688 C 3.839844 3.371094 4.042969 3.203125 4.261719 3.054688 C 4.472656 2.910156 4.695312 2.777344 4.925781 2.664062 C 5.167969 2.550781 5.417969 2.464844 5.679688 2.40625 C 5.9375 2.34375 6.195312 2.316406 6.460938 2.316406 L 25.332031 2.316406 C 25.496094 2.320312 25.632812 2.378906 25.75 2.496094 C 25.863281 2.609375 25.921875 2.75 25.921875 2.910156 L 25.921875 18.472656 C 25.921875 18.632812 25.863281 18.773438 25.75 18.886719 C 25.636719 19.003906 25.496094 19.0625 25.332031 19.0625 L 23.613281 19.0625 C 23.449219 19.0625 23.308594 19.007812 23.195312 18.890625 C 23.078125 18.773438 23.023438 18.636719 23.027344 18.472656 L 23.027344 5.230469 L 6.457031 5.230469 C 6.398438 5.226562 6.34375 5.234375 6.292969 5.253906 C 6.226562 5.265625 6.164062 5.285156 6.105469 5.320312 C 6.027344 5.355469 5.953125 5.398438 5.882812 5.445312 C 5.820312 5.496094 5.761719 5.550781 5.707031 5.609375 C 5.585938 5.71875 5.492188 5.851562 5.417969 5.996094 C 5.359375 6.109375 5.328125 6.230469 5.328125 6.355469 L 5.328125 23.230469 L 5.40625 23.210938 C 5.75 23.121094 6.101562 23.074219 6.457031 23.074219 L 20.171875 23.074219 C 20.335938 23.074219 20.472656 23.132812 20.589844 23.25 C 20.703125 23.367188 20.761719 23.503906 20.761719 23.667969 L 20.761719 25.398438 C 20.761719 25.5625 20.703125 25.699219 20.589844 25.816406 C 20.472656 25.933594 20.335938 25.992188 20.171875 25.992188 L 6.457031 25.992188 C 6.304688 25.984375 6.15625 26.011719 6.015625 26.070312 C 5.949219 26.097656 5.886719 26.132812 5.828125 26.179688 C 5.765625 26.214844 5.710938 26.257812 5.660156 26.3125 C 5.605469 26.359375 5.554688 26.414062 5.515625 26.476562 C 5.472656 26.539062 5.4375 26.601562 5.40625 26.667969 C 5.382812 26.738281 5.363281 26.808594 5.351562 26.878906 C 5.332031 26.957031 5.324219 27.035156 5.328125 27.113281 Z M 4.332031 28.0625 C 4.15625 27.613281 4.113281 27.152344 4.199219 26.675781 C 4.230469 26.523438 4.273438 26.375 4.332031 26.234375 C 4.390625 26.09375 4.464844 25.964844 4.554688 25.84375 C 4.632812 25.714844 4.726562 25.597656 4.832031 25.496094 C 4.933594 25.390625 5.042969 25.296875 5.164062 25.214844 C 5.285156 25.128906 5.417969 25.058594 5.554688 25.003906 C 5.84375 24.875 6.144531 24.8125 6.460938 24.816406 L 19.585938 24.816406 L 19.585938 24.257812 L 6.457031 24.257812 C 6.203125 24.253906 5.953125 24.285156 5.707031 24.347656 C 5.484375 24.40625 5.273438 24.492188 5.074219 24.605469 C 4.976562 24.675781 4.867188 24.714844 4.742188 24.71875 C 4.582031 24.71875 4.441406 24.660156 4.328125 24.542969 C 4.210938 24.429688 4.15625 24.289062 4.15625 24.125 L 4.15625 6.367188 C 4.15625 6.058594 4.226562 5.765625 4.367188 5.488281 C 4.503906 5.222656 4.671875 4.984375 4.875 4.773438 C 4.980469 4.671875 5.089844 4.578125 5.207031 4.496094 C 5.324219 4.410156 5.445312 4.335938 5.574219 4.269531 C 5.710938 4.195312 5.851562 4.140625 6.003906 4.105469 C 6.152344 4.070312 6.304688 4.050781 6.457031 4.046875 L 23.625 4.046875 C 23.785156 4.050781 23.921875 4.113281 24.035156 4.230469 C 24.148438 4.347656 24.199219 4.488281 24.199219 4.652344 L 24.199219 17.917969 L 24.738281 17.917969 L 24.738281 3.5 L 6.457031 3.5 C 6.277344 3.496094 6.101562 3.515625 5.925781 3.554688 C 5.746094 3.589844 5.578125 3.648438 5.417969 3.734375 C 5.246094 3.816406 5.078125 3.910156 4.917969 4.015625 C 4.773438 4.125 4.632812 4.25 4.488281 4.382812 C 4.355469 4.515625 4.234375 4.660156 4.121094 4.816406 C 4.019531 4.976562 3.925781 5.144531 3.847656 5.320312 C 3.765625 5.488281 3.707031 5.664062 3.671875 5.84375 C 3.628906 6.015625 3.613281 6.191406 3.617188 6.367188 L 3.617188 27.125 C 3.613281 27.320312 3.628906 27.515625 3.660156 27.707031 C 3.707031 27.886719 3.761719 28.0625 3.828125 28.242188 C 3.902344 28.414062 3.992188 28.574219 4.089844 28.734375 C 4.199219 28.882812 4.316406 29.023438 4.441406 29.15625 C 4.570312 29.285156 4.710938 29.402344 4.863281 29.503906 C 5.019531 29.605469 5.183594 29.695312 5.351562 29.773438 C 5.523438 29.851562 5.699219 29.90625 5.882812 29.9375 C 6.070312 29.980469 6.261719 30 6.457031 29.992188 L 17.871094 29.992188 L 17.871094 29.449219 L 6.457031 29.449219 C 6.300781 29.449219 6.144531 29.433594 5.992188 29.402344 C 5.839844 29.367188 5.691406 29.320312 5.550781 29.257812 C 5.425781 29.210938 5.3125 29.148438 5.207031 29.070312 L 5.164062 29.046875 C 5.046875 28.960938 4.9375 28.867188 4.832031 28.765625 C 4.726562 28.664062 4.632812 28.546875 4.554688 28.421875 C 4.476562 28.308594 4.410156 28.191406 4.355469 28.0625 Z M 7.582031 13.300781 L 7.582031 8.097656 C 7.585938 7.9375 7.640625 7.796875 7.753906 7.683594 C 7.867188 7.566406 8.003906 7.507812 8.164062 7.503906 L 20.171875 7.503906 C 20.335938 7.503906 20.472656 7.5625 20.589844 7.679688 C 20.703125 7.792969 20.761719 7.933594 20.761719 8.097656 L 20.761719 13.28125 C 20.761719 13.445312 20.703125 13.585938 20.589844 13.703125 C 20.472656 13.816406 20.335938 13.875 20.171875 13.875 L 8.164062 13.875 C 8.003906 13.875 7.863281 13.816406 7.75 13.699219 C 7.636719 13.585938 7.578125 13.445312 7.574219 13.28125 Z M 8.753906 8.710938 L 8.753906 12.691406 L 19.585938 12.691406 L 19.585938 8.691406 Z M 10.46875 10.984375 L 17.878906 10.984375 L 17.878906 10.4375 L 10.46875 10.4375 Z M 18.453125 12.15625 L 9.871094 12.15625 C 9.707031 12.152344 9.570312 12.09375 9.457031 11.976562 C 9.34375 11.863281 9.285156 11.722656 9.285156 11.5625 L 9.285156 9.824219 C 9.285156 9.664062 9.34375 9.523438 9.457031 9.410156 C 9.570312 9.296875 9.707031 9.238281 9.871094 9.234375 L 18.453125 9.234375 C 18.617188 9.234375 18.757812 9.292969 18.871094 9.40625 C 18.984375 9.523438 19.042969 9.664062 19.039062 9.824219 L 19.039062 11.554688 C 19.042969 11.71875 18.984375 11.855469 18.871094 11.972656 C 18.757812 12.089844 18.617188 12.148438 18.453125 12.148438 Z M 28.652344 25.914062 L 28.722656 25.957031 C 28.921875 26.113281 29.113281 26.28125 29.308594 26.457031 C 29.488281 26.636719 29.660156 26.824219 29.816406 27.023438 C 29.972656 27.226562 30.117188 27.4375 30.25 27.648438 C 30.375 27.871094 30.488281 28.097656 30.59375 28.332031 C 30.691406 28.570312 30.773438 28.8125 30.847656 29.058594 C 30.914062 29.304688 30.964844 29.558594 31 29.816406 C 31.035156 30.074219 31.054688 30.332031 31.058594 30.59375 C 31.054688 30.757812 31 30.894531 30.882812 31.011719 C 30.769531 31.125 30.628906 31.183594 30.46875 31.183594 L 28.753906 31.183594 C 28.59375 31.183594 28.453125 31.125 28.339844 31.007812 C 28.226562 30.890625 28.167969 30.753906 28.167969 30.589844 C 28.167969 30.398438 28.152344 30.203125 28.113281 30.011719 C 28.078125 29.828125 28.023438 29.648438 27.949219 29.476562 C 27.867188 29.304688 27.777344 29.136719 27.675781 28.980469 C 27.570312 28.828125 27.457031 28.6875 27.332031 28.554688 C 27.199219 28.425781 27.058594 28.308594 26.910156 28.207031 C 26.757812 28.097656 26.589844 28.007812 26.414062 27.941406 C 26.246094 27.867188 26.074219 27.8125 25.894531 27.773438 C 25.710938 27.734375 25.523438 27.714844 25.332031 27.71875 C 25.140625 27.714844 24.949219 27.734375 24.757812 27.773438 C 24.578125 27.808594 24.398438 27.867188 24.230469 27.941406 C 24.054688 28.007812 23.890625 28.09375 23.742188 28.207031 C 23.589844 28.308594 23.449219 28.421875 23.320312 28.554688 L 23.289062 28.589844 C 23.171875 28.710938 23.0625 28.839844 22.96875 28.980469 C 22.867188 29.136719 22.78125 29.296875 22.703125 29.46875 C 22.625 29.644531 22.566406 29.824219 22.527344 30.011719 C 22.492188 30.203125 22.472656 30.398438 22.472656 30.589844 C 22.476562 30.753906 22.417969 30.894531 22.304688 31.011719 C 22.191406 31.125 22.050781 31.183594 21.886719 31.183594 L 20.171875 31.183594 C 20.007812 31.183594 19.871094 31.125 19.757812 31.007812 C 19.644531 30.890625 19.585938 30.753906 19.585938 30.589844 C 19.589844 30.328125 19.605469 30.070312 19.640625 29.8125 C 19.679688 29.554688 19.734375 29.300781 19.808594 29.054688 C 19.875 28.808594 19.957031 28.566406 20.050781 28.328125 C 20.15625 28.09375 20.273438 27.867188 20.40625 27.644531 C 20.53125 27.425781 20.671875 27.21875 20.828125 27.019531 L 20.859375 26.988281 C 21.007812 26.804688 21.167969 26.625 21.332031 26.453125 C 21.523438 26.273438 21.722656 26.105469 21.929688 25.953125 L 21.984375 25.910156 L 21.964844 25.863281 C 21.824219 25.648438 21.707031 25.421875 21.609375 25.183594 C 21.511719 24.941406 21.433594 24.691406 21.375 24.433594 C 21.332031 24.175781 21.308594 23.914062 21.308594 23.652344 C 21.308594 23.105469 21.410156 22.578125 21.621094 22.070312 C 21.734375 21.832031 21.863281 21.605469 22.011719 21.390625 C 22.152344 21.171875 22.316406 20.96875 22.5 20.785156 C 22.683594 20.601562 22.882812 20.4375 23.097656 20.292969 C 23.3125 20.144531 23.535156 20.015625 23.773438 19.902344 C 24.023438 19.800781 24.285156 19.722656 24.554688 19.667969 C 24.820312 19.617188 25.089844 19.589844 25.359375 19.589844 C 25.902344 19.585938 26.421875 19.691406 26.921875 19.902344 C 27.160156 20.019531 27.386719 20.148438 27.609375 20.292969 C 27.816406 20.441406 28.011719 20.605469 28.191406 20.785156 C 28.382812 20.964844 28.550781 21.167969 28.6875 21.390625 C 28.835938 21.605469 28.957031 21.832031 29.054688 22.070312 C 29.164062 22.320312 29.242188 22.582031 29.289062 22.851562 C 29.34375 23.117188 29.375 23.390625 29.375 23.664062 C 29.375 23.925781 29.347656 24.1875 29.296875 24.445312 C 29.25 24.703125 29.179688 24.953125 29.078125 25.195312 C 28.980469 25.433594 28.855469 25.660156 28.710938 25.875 Z M 28.027344 26.890625 C 27.867188 26.773438 27.699219 26.671875 27.527344 26.578125 C 27.472656 26.546875 27.425781 26.511719 27.386719 26.464844 C 27.269531 26.351562 27.210938 26.210938 27.210938 26.050781 C 27.210938 25.886719 27.269531 25.746094 27.386719 25.632812 C 27.511719 25.5 27.621094 25.359375 27.71875 25.207031 C 27.820312 25.054688 27.902344 24.894531 27.972656 24.726562 C 28.039062 24.558594 28.089844 24.382812 28.125 24.203125 C 28.160156 24.023438 28.179688 23.839844 28.179688 23.65625 C 28.179688 23.460938 28.164062 23.269531 28.125 23.074219 C 28.089844 22.890625 28.035156 22.714844 27.960938 22.542969 C 27.878906 22.375 27.78125 22.214844 27.675781 22.0625 C 27.460938 21.753906 27.203125 21.492188 26.894531 21.28125 C 26.734375 21.179688 26.570312 21.089844 26.398438 21.015625 C 26.058594 20.867188 25.703125 20.792969 25.332031 20.789062 C 25.140625 20.789062 24.949219 20.808594 24.757812 20.847656 C 24.390625 20.925781 24.050781 21.070312 23.742188 21.28125 C 23.585938 21.386719 23.445312 21.503906 23.320312 21.640625 C 23.1875 21.765625 23.070312 21.90625 22.96875 22.0625 C 22.863281 22.21875 22.777344 22.382812 22.703125 22.554688 C 22.554688 22.910156 22.480469 23.28125 22.480469 23.667969 C 22.484375 23.851562 22.5 24.035156 22.535156 24.214844 C 22.570312 24.394531 22.625 24.570312 22.691406 24.738281 C 22.761719 24.90625 22.847656 25.066406 22.945312 25.21875 C 23.042969 25.375 23.15625 25.515625 23.289062 25.644531 C 23.320312 25.6875 23.351562 25.730469 23.378906 25.777344 C 23.453125 25.917969 23.46875 26.0625 23.421875 26.214844 C 23.375 26.367188 23.285156 26.480469 23.144531 26.554688 C 22.957031 26.65625 22.777344 26.769531 22.601562 26.890625 C 22.4375 27.007812 22.28125 27.140625 22.136719 27.28125 C 21.996094 27.414062 21.867188 27.554688 21.746094 27.707031 L 21.722656 27.738281 C 21.597656 27.894531 21.484375 28.058594 21.378906 28.230469 C 21.28125 28.40625 21.191406 28.589844 21.117188 28.777344 C 21.03125 28.960938 20.960938 29.152344 20.90625 29.347656 C 20.847656 29.542969 20.808594 29.742188 20.785156 29.945312 L 20.785156 30.011719 L 21.324219 30.011719 C 21.324219 29.945312 21.355469 29.867188 21.367188 29.792969 C 21.421875 29.53125 21.5 29.277344 21.601562 29.03125 C 21.710938 28.789062 21.84375 28.558594 21.992188 28.339844 C 22.128906 28.136719 22.28125 27.949219 22.445312 27.769531 L 22.480469 27.738281 C 22.660156 27.554688 22.859375 27.390625 23.078125 27.246094 C 23.519531 26.953125 23.996094 26.75 24.515625 26.632812 C 24.78125 26.578125 25.050781 26.554688 25.320312 26.554688 C 25.585938 26.554688 25.84375 26.582031 26.101562 26.632812 C 26.371094 26.683594 26.632812 26.765625 26.882812 26.878906 C 27.125 26.980469 27.351562 27.101562 27.570312 27.246094 C 27.996094 27.542969 28.355469 27.910156 28.648438 28.339844 C 28.796875 28.554688 28.917969 28.785156 29.015625 29.03125 C 29.125 29.273438 29.203125 29.527344 29.25 29.792969 C 29.25 29.867188 29.28125 29.945312 29.292969 30.011719 L 29.847656 30.011719 L 29.847656 29.988281 C 29.824219 29.785156 29.78125 29.585938 29.726562 29.390625 C 29.667969 29.199219 29.601562 29 29.527344 28.820312 C 29.453125 28.640625 29.347656 28.453125 29.25 28.273438 C 29.148438 28.101562 29.035156 27.9375 28.90625 27.78125 C 28.789062 27.617188 28.660156 27.464844 28.515625 27.324219 C 28.371094 27.183594 28.21875 27.054688 28.054688 26.933594 Z M 25.332031 24.808594 C 25.410156 24.804688 25.488281 24.796875 25.566406 24.785156 C 25.632812 24.769531 25.695312 24.746094 25.753906 24.71875 C 25.832031 24.683594 25.898438 24.648438 25.953125 24.617188 C 26.007812 24.585938 26.0625 24.527344 26.117188 24.472656 C 26.167969 24.421875 26.21875 24.363281 26.261719 24.304688 C 26.300781 24.238281 26.335938 24.171875 26.363281 24.101562 C 26.398438 24.039062 26.421875 23.972656 26.429688 23.902344 C 26.441406 23.824219 26.449219 23.746094 26.449219 23.667969 C 26.449219 23.589844 26.441406 23.511719 26.429688 23.433594 L 26.429688 23.410156 L 26.363281 23.222656 C 26.332031 23.160156 26.300781 23.09375 26.261719 23.03125 C 26.21875 22.976562 26.175781 22.921875 26.117188 22.855469 C 26.011719 22.75 25.890625 22.667969 25.753906 22.609375 C 25.691406 22.582031 25.625 22.566406 25.554688 22.554688 C 25.480469 22.535156 25.402344 22.527344 25.320312 22.53125 C 25.238281 22.527344 25.160156 22.535156 25.078125 22.554688 C 25.011719 22.566406 24.945312 22.585938 24.878906 22.609375 C 24.8125 22.640625 24.746094 22.679688 24.679688 22.722656 L 24.515625 22.855469 C 24.464844 22.910156 24.421875 22.96875 24.382812 23.03125 C 24.335938 23.09375 24.300781 23.15625 24.273438 23.222656 C 24.25 23.289062 24.230469 23.355469 24.207031 23.433594 C 24.199219 23.511719 24.199219 23.589844 24.207031 23.667969 C 24.199219 23.746094 24.199219 23.824219 24.207031 23.902344 C 24.222656 23.972656 24.246094 24.035156 24.273438 24.101562 C 24.296875 24.175781 24.335938 24.242188 24.382812 24.304688 C 24.421875 24.363281 24.464844 24.421875 24.515625 24.472656 C 24.621094 24.578125 24.742188 24.660156 24.878906 24.71875 C 24.945312 24.75 25.011719 24.773438 25.078125 24.785156 C 25.160156 24.800781 25.242188 24.808594 25.320312 24.808594 Z M 25.785156 25.945312 C 25.636719 25.972656 25.484375 25.988281 25.332031 25.992188 C 25.175781 25.988281 25.023438 25.972656 24.867188 25.945312 C 24.714844 25.914062 24.570312 25.863281 24.429688 25.800781 C 24.15625 25.679688 23.917969 25.515625 23.710938 25.308594 C 23.601562 25.203125 23.507812 25.089844 23.421875 24.964844 C 23.34375 24.839844 23.273438 24.707031 23.210938 24.574219 C 23.152344 24.433594 23.109375 24.289062 23.078125 24.140625 C 23.046875 23.988281 23.03125 23.832031 23.035156 23.671875 C 23.03125 23.515625 23.046875 23.359375 23.078125 23.203125 C 23.109375 23.050781 23.152344 22.902344 23.210938 22.757812 C 23.277344 22.625 23.34375 22.492188 23.421875 22.367188 C 23.507812 22.246094 23.605469 22.136719 23.710938 22.035156 C 23.804688 21.925781 23.917969 21.832031 24.042969 21.753906 C 24.164062 21.667969 24.296875 21.59375 24.433594 21.53125 C 24.71875 21.410156 25.019531 21.351562 25.332031 21.347656 C 25.484375 21.34375 25.636719 21.359375 25.785156 21.394531 C 25.9375 21.421875 26.085938 21.464844 26.230469 21.527344 C 26.507812 21.648438 26.75 21.816406 26.960938 22.03125 C 27.0625 22.132812 27.152344 22.246094 27.238281 22.363281 C 27.316406 22.484375 27.386719 22.617188 27.449219 22.753906 C 27.503906 22.890625 27.546875 23.03125 27.582031 23.175781 L 27.582031 23.199219 C 27.605469 23.355469 27.621094 23.511719 27.625 23.667969 C 27.617188 23.824219 27.605469 23.980469 27.582031 24.136719 C 27.546875 24.285156 27.5 24.429688 27.4375 24.570312 C 27.320312 24.847656 27.15625 25.09375 26.949219 25.308594 C 26.84375 25.414062 26.730469 25.507812 26.605469 25.589844 C 26.480469 25.671875 26.351562 25.742188 26.214844 25.800781 C 26.089844 25.855469 25.957031 25.898438 25.824219 25.933594 Z M 25.785156 25.945312 " fill-opacity="1" fill-rule="nonzero"/></g></svg>