<svg xmlns="http://www.w3.org/2000/svg" xmlns:xlink="http://www.w3.org/1999/xlink" width="45" zoomAndPan="magnify" viewBox="0 0 33.75 33.749998" height="45" preserveAspectRatio="xMidYMid meet" version="1.0"><defs><clipPath id="50c2be7174"><path d="M 3.351562 3.351562 L 30.152344 3.351562 L 30.152344 29.40625 L 3.351562 29.40625 Z M 3.351562 3.351562 " clip-rule="nonzero"/></clipPath></defs><g clip-path="url(#50c2be7174)"><path fill="#c4942e" d="M 14.324219 20.222656 C 14.199219 20.445312 13.957031 20.597656 13.683594 20.597656 L 11.453125 20.597656 C 11.179688 20.597656 10.9375 20.445312 10.8125 20.222656 Z M 19.765625 15.175781 C 20.136719 15.265625 20.488281 15.410156 20.8125 15.609375 L 21.492188 15.308594 L 22.292969 16.109375 L 21.992188 16.789062 C 22.191406 17.113281 22.339844 17.464844 22.425781 17.835938 L 23.121094 18.101562 L 23.121094 19.238281 L 22.425781 19.503906 C 22.339844 19.875 22.191406 20.226562 21.992188 20.550781 L 22.292969 21.230469 L 21.492188 22.03125 L 20.8125 21.730469 C 20.488281 21.929688 20.136719 22.074219 19.765625 22.164062 L 19.5 22.855469 L 18.367188 22.855469 L 18.097656 22.164062 C 17.730469 22.074219 17.375 21.929688 17.050781 21.730469 L 16.371094 22.03125 L 15.570312 21.230469 L 15.871094 20.550781 C 15.671875 20.226562 15.527344 19.875 15.4375 19.503906 L 14.746094 19.238281 L 14.746094 18.101562 L 15.4375 17.835938 C 15.527344 17.464844 15.671875 17.113281 15.871094 16.789062 L 15.570312 16.109375 L 16.371094 15.308594 L 17.050781 15.609375 C 17.375 15.410156 17.730469 15.265625 18.097656 15.175781 L 18.367188 14.480469 L 19.5 14.480469 Z M 18.933594 16.519531 C 17.746094 16.519531 16.78125 17.484375 16.78125 18.667969 C 16.78125 19.855469 17.746094 20.820312 18.933594 20.820312 C 20.121094 20.820312 21.082031 19.855469 21.082031 18.667969 C 21.082031 17.484375 20.121094 16.519531 18.933594 16.519531 Z M 18.933594 12.074219 L 8.492188 17.597656 L 13.851562 17.597656 L 13.851562 17.488281 L 14.710938 17.160156 C 14.757812 17.019531 14.816406 16.882812 14.878906 16.75 L 14.503906 15.910156 L 16.175781 14.242188 L 17.015625 14.617188 C 17.148438 14.550781 17.285156 14.496094 17.421875 14.445312 L 17.753906 13.589844 L 20.113281 13.589844 L 20.441406 14.445312 C 20.582031 14.496094 20.71875 14.550781 20.851562 14.617188 L 21.691406 14.242188 L 23.359375 15.910156 L 22.988281 16.75 C 23.050781 16.882812 23.105469 17.019531 23.15625 17.160156 L 24.011719 17.488281 L 24.011719 17.597656 L 29.375 17.597656 Z M 9.152344 28.605469 C 15.671875 28.605469 22.191406 28.605469 28.710938 28.605469 L 28.710938 29.707031 L 9.152344 29.707031 Z M 27.8125 18.488281 L 27.8125 19.332031 L 24.011719 19.332031 L 24.011719 18.488281 Z M 13.851562 19.332031 L 10.050781 19.332031 L 10.050781 18.488281 L 13.851562 18.488281 Z M 30.152344 12.480469 C 30.152344 12.695312 29.972656 12.875 29.757812 12.875 L 25.582031 12.875 C 25.363281 12.875 25.1875 12.695312 25.1875 12.480469 L 25.1875 8.777344 L 22.4375 8.777344 L 22.4375 12.914062 L 21.542969 12.441406 L 21.542969 8.328125 C 21.542969 8.082031 21.742188 7.882812 21.988281 7.882812 L 25.1875 7.882812 L 25.1875 4.1875 C 25.1875 3.972656 25.363281 3.796875 25.582031 3.796875 L 26.003906 3.796875 L 26.289062 4.9375 C 26.335938 5.136719 26.515625 5.273438 26.71875 5.273438 L 28.617188 5.277344 C 28.839844 5.277344 29.023438 5.117188 29.058594 4.90625 L 29.332031 3.796875 L 29.757812 3.796875 C 29.972656 3.796875 30.152344 3.972656 30.152344 4.1875 Z M 4.84375 12.484375 L 4.84375 11.789062 C 4.84375 11.519531 5.121094 11.300781 5.457031 11.300781 L 6.546875 11.300781 L 6.546875 10.160156 L 4.066406 10.160156 C 3.671875 10.160156 3.351562 9.839844 3.351562 9.445312 L 3.351562 4.511719 C 3.351562 4.117188 3.671875 3.796875 4.066406 3.796875 L 11.960938 3.796875 C 12.355469 3.796875 12.675781 4.117188 12.675781 4.511719 L 12.675781 7.230469 L 14.628906 7.230469 C 14.875 7.230469 15.074219 7.429688 15.074219 7.675781 L 15.074219 12.203125 L 16.777344 12.203125 L 15.089844 13.09375 L 14.628906 13.09375 C 14.378906 13.09375 14.179688 12.894531 14.179688 12.648438 L 14.179688 8.125 L 12.675781 8.125 L 12.675781 9.445312 C 12.675781 9.839844 12.355469 10.160156 11.960938 10.160156 L 9.480469 10.160156 L 9.480469 11.300781 L 10.570312 11.300781 C 10.90625 11.300781 11.183594 11.519531 11.183594 11.789062 L 11.183594 12.484375 Z M 18.933594 8.859375 C 18.5 8.859375 18.152344 9.207031 18.152344 9.640625 C 18.152344 10.070312 18.5 10.421875 18.933594 10.421875 C 19.363281 10.421875 19.714844 10.070312 19.714844 9.640625 C 19.714844 9.207031 19.363281 8.859375 18.933594 8.859375 Z M 21.0625 7.917969 C 20.511719 7.316406 19.753906 6.957031 18.933594 6.957031 C 18.109375 6.957031 17.355469 7.316406 16.800781 7.917969 C 16.636719 8.101562 16.648438 8.382812 16.832031 8.546875 C 17.011719 8.710938 17.292969 8.699219 17.457031 8.519531 C 17.839844 8.101562 18.363281 7.847656 18.933594 7.847656 C 19.503906 7.847656 20.023438 8.101562 20.40625 8.519531 C 20.570312 8.699219 20.851562 8.710938 21.035156 8.546875 C 21.214844 8.382812 21.226562 8.101562 21.0625 7.917969 Z M 16.292969 7.242188 C 16.976562 6.496094 17.914062 6.046875 18.933594 6.046875 C 19.4375 6.046875 19.917969 6.15625 20.355469 6.351562 C 20.8125 6.5625 21.226562 6.867188 21.570312 7.242188 C 21.738281 7.425781 22.019531 7.4375 22.199219 7.273438 C 22.382812 7.105469 22.394531 6.824219 22.226562 6.644531 C 21.375 5.710938 20.203125 5.152344 18.933594 5.152344 C 17.660156 5.152344 16.492188 5.710938 15.636719 6.644531 C 15.472656 6.824219 15.484375 7.105469 15.664062 7.273438 C 15.847656 7.4375 16.128906 7.425781 16.292969 7.242188 Z M 23.394531 5.367188 C 22.238281 4.105469 20.65625 3.347656 18.933594 3.347656 C 17.210938 3.347656 15.628906 4.105469 14.472656 5.367188 C 14.304688 5.550781 14.320312 5.832031 14.5 5.996094 C 14.679688 6.164062 14.960938 6.148438 15.128906 5.96875 C 16.113281 4.890625 17.460938 4.242188 18.933594 4.242188 C 20.402344 4.242188 21.75 4.890625 22.738281 5.96875 C 22.902344 6.148438 23.183594 6.164062 23.363281 5.996094 C 23.546875 5.832031 23.558594 5.550781 23.394531 5.367188 Z M 26.921875 3.796875 L 27.070312 4.382812 L 28.269531 4.382812 L 28.414062 3.796875 Z M 27.308594 12.210938 C 27.058594 12.210938 26.859375 12.011719 26.859375 11.765625 C 26.859375 11.519531 27.058594 11.320312 27.308594 11.320312 L 28.03125 11.320312 C 28.277344 11.320312 28.476562 11.519531 28.476562 11.765625 C 28.476562 12.011719 28.277344 12.210938 28.03125 12.210938 Z M 26.167969 21.492188 L 26.167969 26.445312 L 24.421875 26.445312 L 24.421875 21.492188 Z M 19.804688 23.75 L 19.804688 26.445312 L 18.058594 26.445312 L 18.058594 23.75 Z M 13.441406 21.492188 L 13.441406 26.445312 L 11.695312 26.445312 L 11.695312 21.492188 Z M 11.453125 27.339844 L 13.683594 27.339844 C 13.957031 27.339844 14.199219 27.488281 14.324219 27.714844 L 10.8125 27.714844 C 10.9375 27.488281 11.179688 27.339844 11.453125 27.339844 Z M 17.816406 27.339844 L 20.046875 27.339844 C 20.320312 27.339844 20.5625 27.488281 20.691406 27.714844 L 17.175781 27.714844 C 17.300781 27.488281 17.542969 27.339844 17.816406 27.339844 Z M 24.183594 27.339844 L 26.410156 27.339844 C 26.6875 27.339844 26.925781 27.488281 27.054688 27.714844 L 23.539062 27.714844 C 23.667969 27.488281 23.90625 27.339844 24.183594 27.339844 Z M 27.054688 20.222656 C 26.925781 20.445312 26.6875 20.597656 26.410156 20.597656 L 24.183594 20.597656 C 23.90625 20.597656 23.667969 20.445312 23.539062 20.222656 Z M 27.054688 20.222656 " fill-opacity="1" fill-rule="evenodd"/></g></svg>