<svg xmlns="http://www.w3.org/2000/svg" xmlns:xlink="http://www.w3.org/1999/xlink" width="45" zoomAndPan="magnify" viewBox="0 0 33.75 33.749998" height="45" preserveAspectRatio="xMidYMid meet" version="1.0"><defs><clipPath id="a1f3ecd98f"><path d="M 3 1.453125 L 22 1.453125 L 22 20 L 3 20 Z M 3 1.453125 " clip-rule="nonzero"/></clipPath><clipPath id="a6c12a3bab"><path d="M 9 22 L 16 22 L 16 31.976562 L 9 31.976562 Z M 9 22 " clip-rule="nonzero"/></clipPath><clipPath id="6cd0831681"><path d="M 12 26 L 13 26 L 13 31.976562 L 12 31.976562 Z M 12 26 " clip-rule="nonzero"/></clipPath><clipPath id="74f072acde"><path d="M 15 20 L 31 20 L 31 31.976562 L 15 31.976562 Z M 15 20 " clip-rule="nonzero"/></clipPath></defs><path fill="#c4942e" d="M 24.734375 19.984375 C 24.660156 19.984375 24.589844 19.949219 24.519531 19.894531 L 23.28125 18.691406 C 23.171875 18.585938 23.171875 18.386719 23.28125 18.28125 C 23.390625 18.15625 23.585938 18.15625 23.710938 18.28125 L 24.429688 18.980469 L 24.429688 10.824219 L 21.113281 10.824219 C 20.953125 10.824219 20.808594 10.699219 20.808594 10.539062 C 20.808594 10.378906 20.953125 10.234375 21.113281 10.234375 L 24.734375 10.234375 C 24.894531 10.234375 25.039062 10.378906 25.039062 10.539062 L 25.039062 19.679688 C 25.039062 19.804688 24.964844 19.910156 24.859375 19.964844 C 24.804688 19.984375 24.769531 19.984375 24.734375 19.984375 Z M 24.734375 19.984375 " fill-opacity="1" fill-rule="evenodd"/><path fill="#c4942e" d="M 12.332031 17.976562 C 8.226562 17.976562 4.894531 14.644531 4.894531 10.539062 C 4.894531 8.550781 5.664062 6.683594 7.0625 5.269531 C 8.476562 3.871094 10.339844 3.101562 12.332031 3.101562 C 12.492188 3.101562 12.617188 3.226562 12.617188 3.40625 C 12.617188 3.566406 12.492188 3.691406 12.332031 3.691406 C 10.503906 3.691406 8.78125 4.410156 7.492188 5.699219 C 6.203125 6.988281 5.484375 8.710938 5.484375 10.539062 C 5.484375 14.300781 8.550781 17.367188 12.332031 17.367188 C 12.492188 17.367188 12.617188 17.511719 12.617188 17.671875 C 12.617188 17.832031 12.492188 17.976562 12.332031 17.976562 Z M 12.332031 17.976562 " fill-opacity="1" fill-rule="evenodd"/><path fill="#c4942e" d="M 12.652344 17.957031 C 12.492188 17.957031 12.367188 17.832031 12.367188 17.671875 C 12.347656 17.511719 12.472656 17.367188 12.636719 17.367188 C 12.832031 17.367188 13.03125 17.347656 13.207031 17.3125 C 13.371094 17.296875 13.53125 17.421875 13.550781 17.582031 C 13.566406 17.742188 13.460938 17.886719 13.28125 17.90625 C 13.082031 17.941406 12.886719 17.957031 12.671875 17.957031 C 12.671875 17.957031 12.652344 17.957031 12.652344 17.957031 Z M 14.984375 17.457031 C 14.859375 17.457031 14.75 17.386719 14.695312 17.277344 C 14.644531 17.117188 14.714844 16.953125 14.875 16.882812 C 15.054688 16.8125 15.214844 16.738281 15.394531 16.648438 C 15.539062 16.578125 15.71875 16.632812 15.789062 16.792969 C 15.863281 16.9375 15.808594 17.117188 15.664062 17.1875 C 15.46875 17.277344 15.289062 17.367188 15.089844 17.4375 C 15.054688 17.457031 15.019531 17.457031 14.984375 17.457031 Z M 17.007812 16.21875 C 16.917969 16.21875 16.847656 16.183594 16.777344 16.113281 C 16.667969 15.988281 16.6875 15.808594 16.8125 15.699219 C 16.953125 15.574219 17.097656 15.449219 17.222656 15.304688 C 17.347656 15.179688 17.527344 15.179688 17.652344 15.304688 C 17.761719 15.414062 17.777344 15.609375 17.652344 15.71875 C 17.511719 15.863281 17.367188 16.003906 17.207031 16.148438 C 17.152344 16.203125 17.082031 16.21875 17.007812 16.21875 Z M 18.515625 14.390625 C 18.460938 14.390625 18.425781 14.375 18.371094 14.355469 C 18.226562 14.265625 18.171875 14.085938 18.261719 13.945312 C 18.351562 13.765625 18.441406 13.601562 18.53125 13.425781 C 18.605469 13.28125 18.765625 13.207031 18.925781 13.28125 C 19.070312 13.351562 19.140625 13.53125 19.070312 13.691406 C 18.980469 13.871094 18.890625 14.050781 18.78125 14.230469 C 18.730469 14.339844 18.621094 14.390625 18.515625 14.390625 Z M 19.339844 12.152344 C 19.320312 12.152344 19.300781 12.152344 19.285156 12.152344 C 19.125 12.117188 19.015625 11.972656 19.050781 11.792969 C 19.085938 11.613281 19.105469 11.417969 19.125 11.238281 C 19.140625 11.074219 19.300781 10.949219 19.464844 10.96875 C 19.625 10.988281 19.75 11.128906 19.734375 11.292969 C 19.695312 11.507812 19.679688 11.703125 19.644531 11.917969 C 19.605469 12.0625 19.480469 12.152344 19.339844 12.152344 Z M 19.390625 9.785156 C 19.25 9.785156 19.125 9.679688 19.085938 9.515625 C 19.070312 9.335938 19.035156 9.140625 18.980469 8.960938 C 18.945312 8.800781 19.050781 8.636719 19.214844 8.601562 C 19.375 8.566406 19.535156 8.65625 19.570312 8.816406 C 19.605469 9.015625 19.660156 9.230469 19.679688 9.425781 C 19.714844 9.605469 19.589844 9.75 19.429688 9.769531 C 19.410156 9.769531 19.410156 9.785156 19.390625 9.785156 Z M 18.65625 7.507812 C 18.550781 7.507812 18.441406 7.457031 18.386719 7.367188 C 18.300781 7.1875 18.191406 7.027344 18.101562 6.863281 C 18.011719 6.722656 18.046875 6.542969 18.191406 6.453125 C 18.335938 6.363281 18.515625 6.398438 18.605469 6.542969 C 18.710938 6.722656 18.820312 6.898438 18.910156 7.078125 C 18.996094 7.222656 18.925781 7.402344 18.78125 7.492188 C 18.746094 7.507812 18.691406 7.507812 18.65625 7.507812 Z M 17.207031 5.628906 C 17.132812 5.628906 17.0625 5.59375 17.007812 5.539062 C 16.863281 5.414062 16.722656 5.289062 16.578125 5.179688 C 16.433594 5.070312 16.417969 4.875 16.523438 4.75 C 16.632812 4.625 16.8125 4.605469 16.9375 4.695312 C 17.097656 4.839844 17.257812 4.964844 17.421875 5.109375 C 17.527344 5.214844 17.546875 5.414062 17.421875 5.539062 C 17.367188 5.59375 17.296875 5.628906 17.207031 5.628906 Z M 15.234375 4.300781 C 15.179688 4.300781 15.144531 4.300781 15.109375 4.285156 C 14.929688 4.210938 14.75 4.140625 14.570312 4.070312 C 14.410156 4.015625 14.339844 3.851562 14.390625 3.691406 C 14.445312 3.53125 14.605469 3.460938 14.769531 3.511719 C 14.964844 3.585938 15.164062 3.65625 15.339844 3.746094 C 15.503906 3.800781 15.574219 3.980469 15.503906 4.140625 C 15.449219 4.246094 15.339844 4.300781 15.234375 4.300781 Z M 12.921875 3.726562 C 12.921875 3.726562 12.902344 3.726562 12.902344 3.726562 C 12.707031 3.710938 12.511719 3.691406 12.332031 3.691406 C 12.167969 3.691406 12.027344 3.566406 12.027344 3.40625 C 12.027344 3.226562 12.167969 3.101562 12.332031 3.101562 C 12.527344 3.101562 12.742188 3.101562 12.941406 3.117188 C 13.121094 3.136719 13.226562 3.28125 13.226562 3.441406 C 13.207031 3.601562 13.082031 3.726562 12.921875 3.726562 Z M 12.921875 3.726562 " fill-opacity="1" fill-rule="evenodd"/><g clip-path="url(#a1f3ecd98f)"><path fill="#c4942e" d="M 12.332031 19.625 C 7.3125 19.625 3.242188 15.539062 3.242188 10.539062 C 3.242188 5.519531 7.3125 1.453125 12.332031 1.453125 C 17.332031 1.453125 21.417969 5.519531 21.417969 10.539062 C 21.417969 15.539062 17.332031 19.625 12.332031 19.625 Z M 12.332031 2.042969 C 7.652344 2.042969 3.835938 5.859375 3.835938 10.539062 C 3.835938 15.214844 7.652344 19.015625 12.332031 19.015625 C 17.007812 19.015625 20.808594 15.214844 20.808594 10.539062 C 20.808594 5.859375 17.007812 2.042969 12.332031 2.042969 Z M 12.332031 2.042969 " fill-opacity="1" fill-rule="evenodd"/></g><path fill="#c4942e" d="M 12.332031 20.683594 C 12.167969 20.683594 12.027344 20.539062 12.027344 20.378906 L 12.027344 19.320312 C 12.027344 19.160156 12.167969 19.015625 12.332031 19.015625 C 12.492188 19.015625 12.617188 19.160156 12.617188 19.320312 L 12.617188 20.378906 C 12.617188 20.539062 12.492188 20.683594 12.332031 20.683594 Z M 12.332031 20.683594 " fill-opacity="1" fill-rule="evenodd"/><path fill="#c4942e" d="M 14.230469 22.867188 L 10.429688 22.867188 C 10.269531 22.867188 10.125 22.742188 10.125 22.5625 L 10.125 21.472656 C 10.125 21.363281 10.199219 21.273438 10.289062 21.21875 L 12.167969 20.128906 C 12.277344 20.074219 12.382812 20.074219 12.472656 20.128906 L 14.375 21.21875 C 14.464844 21.273438 14.515625 21.363281 14.515625 21.472656 L 14.515625 22.5625 C 14.515625 22.742188 14.390625 22.867188 14.230469 22.867188 Z M 10.734375 22.277344 L 13.925781 22.277344 L 13.925781 21.652344 L 12.332031 20.71875 L 10.734375 21.652344 Z M 10.734375 22.277344 " fill-opacity="1" fill-rule="evenodd"/><g clip-path="url(#a6c12a3bab)"><path fill="#c4942e" d="M 12.332031 32.046875 C 10.808594 32.046875 9.589844 30.808594 9.589844 29.304688 C 9.589844 28.820312 9.785156 28.40625 10.035156 27.871094 C 10.484375 26.917969 11.148438 25.484375 11.148438 22.5625 C 11.148438 22.402344 11.292969 22.277344 11.453125 22.277344 C 11.613281 22.277344 11.757812 22.402344 11.757812 22.5625 C 11.757812 25.628906 11.039062 27.117188 10.574219 28.121094 C 10.339844 28.605469 10.179688 28.960938 10.179688 29.304688 C 10.179688 30.484375 11.148438 31.4375 12.332031 31.4375 C 13.511719 31.4375 14.464844 30.484375 14.464844 29.304688 C 14.464844 28.960938 14.300781 28.605469 14.070312 28.121094 C 13.601562 27.117188 12.902344 25.628906 12.902344 22.5625 C 12.902344 22.402344 13.03125 22.277344 13.207031 22.277344 C 13.371094 22.277344 13.496094 22.402344 13.496094 22.5625 C 13.496094 25.484375 14.175781 26.917969 14.625 27.871094 C 14.875 28.40625 15.074219 28.820312 15.074219 29.304688 C 15.074219 30.808594 13.835938 32.046875 12.332031 32.046875 Z M 12.332031 32.046875 " fill-opacity="1" fill-rule="evenodd"/></g><g clip-path="url(#6cd0831681)"><path fill="#c4942e" d="M 12.332031 32.046875 C 12.167969 32.046875 12.027344 31.902344 12.027344 31.742188 L 12.027344 27.152344 C 12.027344 26.992188 12.167969 26.867188 12.332031 26.867188 C 12.492188 26.867188 12.617188 26.992188 12.617188 27.152344 L 12.617188 31.742188 C 12.617188 31.902344 12.492188 32.046875 12.332031 32.046875 Z M 12.332031 32.046875 " fill-opacity="1" fill-rule="evenodd"/></g><path fill="#c4942e" d="M 12.332031 13.746094 C 10.199219 13.746094 8.296875 12.5625 7.347656 10.664062 C 7.3125 10.59375 7.3125 10.484375 7.347656 10.394531 C 8.296875 8.496094 10.199219 7.332031 12.332031 7.332031 C 14.445312 7.332031 16.363281 8.496094 17.3125 10.394531 C 17.347656 10.484375 17.347656 10.59375 17.3125 10.664062 C 16.363281 12.5625 14.445312 13.746094 12.332031 13.746094 Z M 7.957031 10.539062 C 8.816406 12.152344 10.484375 13.15625 12.332031 13.15625 C 14.175781 13.15625 15.824219 12.152344 16.703125 10.539062 C 15.824219 8.925781 14.175781 7.921875 12.332031 7.921875 C 10.484375 7.921875 8.816406 8.925781 7.957031 10.539062 Z M 7.957031 10.539062 " fill-opacity="1" fill-rule="evenodd"/><path fill="#c4942e" d="M 12.332031 12.367188 C 11.328125 12.367188 10.503906 11.542969 10.503906 10.539062 C 10.503906 9.535156 11.328125 8.710938 12.332031 8.710938 C 13.335938 8.710938 14.160156 9.535156 14.160156 10.539062 C 14.160156 11.542969 13.335938 12.367188 12.332031 12.367188 Z M 12.332031 9.300781 C 11.648438 9.300781 11.09375 9.855469 11.09375 10.539062 C 11.09375 11.21875 11.648438 11.773438 12.332031 11.773438 C 13.011719 11.773438 13.566406 11.21875 13.566406 10.539062 C 13.566406 9.855469 13.011719 9.300781 12.332031 9.300781 Z M 12.332031 9.300781 " fill-opacity="1" fill-rule="evenodd"/><g clip-path="url(#74f072acde)"><path fill="#c4942e" d="M 29.429688 32.046875 L 16.8125 32.046875 C 16.34375 32.046875 15.988281 31.667969 15.988281 31.222656 L 15.988281 21.433594 C 15.988281 20.988281 16.34375 20.609375 16.8125 20.609375 L 29.429688 20.609375 C 29.875 20.609375 30.253906 20.988281 30.253906 21.433594 L 30.253906 31.222656 C 30.253906 31.667969 29.875 32.046875 29.429688 32.046875 Z M 16.8125 21.203125 C 16.6875 21.203125 16.578125 21.308594 16.578125 21.433594 L 16.578125 31.222656 C 16.578125 31.347656 16.6875 31.4375 16.8125 31.4375 L 29.429688 31.4375 C 29.554688 31.4375 29.644531 31.347656 29.644531 31.222656 L 29.644531 21.433594 C 29.644531 21.308594 29.554688 21.203125 29.429688 21.203125 Z M 16.8125 21.203125 " fill-opacity="1" fill-rule="evenodd"/></g><path fill="#c4942e" d="M 29.949219 23.945312 L 16.292969 23.945312 C 16.113281 23.945312 15.988281 23.800781 15.988281 23.640625 C 15.988281 23.476562 16.113281 23.335938 16.292969 23.335938 L 29.949219 23.335938 C 30.109375 23.335938 30.253906 23.476562 30.253906 23.640625 C 30.253906 23.800781 30.109375 23.945312 29.949219 23.945312 Z M 29.949219 23.945312 " fill-opacity="1" fill-rule="evenodd"/><path fill="#c4942e" d="M 18.351562 22.582031 L 17.761719 22.582031 C 17.601562 22.582031 17.457031 22.4375 17.457031 22.277344 C 17.457031 22.117188 17.601562 21.972656 17.761719 21.972656 L 18.351562 21.972656 C 18.515625 21.972656 18.65625 22.117188 18.65625 22.277344 C 18.65625 22.4375 18.515625 22.582031 18.351562 22.582031 Z M 18.351562 22.582031 " fill-opacity="1" fill-rule="evenodd"/><path fill="#c4942e" d="M 19.769531 22.582031 L 19.175781 22.582031 C 19.015625 22.582031 18.871094 22.4375 18.871094 22.277344 C 18.871094 22.117188 19.015625 21.972656 19.175781 21.972656 L 19.769531 21.972656 C 19.949219 21.972656 20.074219 22.117188 20.074219 22.277344 C 20.074219 22.4375 19.949219 22.582031 19.769531 22.582031 Z M 19.769531 22.582031 " fill-opacity="1" fill-rule="evenodd"/><path fill="#c4942e" d="M 21.183594 22.582031 L 20.59375 22.582031 C 20.433594 22.582031 20.289062 22.4375 20.289062 22.277344 C 20.289062 22.117188 20.433594 21.972656 20.59375 21.972656 L 21.183594 21.972656 C 21.363281 21.972656 21.488281 22.117188 21.488281 22.277344 C 21.488281 22.4375 21.363281 22.582031 21.183594 22.582031 Z M 21.183594 22.582031 " fill-opacity="1" fill-rule="evenodd"/><path fill="#c4942e" d="M 28.480469 22.582031 L 24.589844 22.582031 C 24.429688 22.582031 24.285156 22.4375 24.285156 22.277344 C 24.285156 22.117188 24.429688 21.972656 24.589844 21.972656 L 28.480469 21.972656 C 28.640625 21.972656 28.765625 22.117188 28.765625 22.277344 C 28.765625 22.4375 28.640625 22.582031 28.480469 22.582031 Z M 28.480469 22.582031 " fill-opacity="1" fill-rule="evenodd"/><path fill="#c4942e" d="M 20.773438 30.773438 L 17.886719 30.773438 C 17.546875 30.773438 17.257812 30.484375 17.257812 30.128906 L 17.257812 25.289062 C 17.257812 24.929688 17.546875 24.644531 17.886719 24.644531 L 20.773438 24.644531 C 21.113281 24.644531 21.398438 24.929688 21.398438 25.289062 L 21.398438 30.128906 C 21.398438 30.484375 21.113281 30.773438 20.773438 30.773438 Z M 17.886719 25.234375 C 17.867188 25.234375 17.851562 25.253906 17.851562 25.289062 L 17.851562 30.128906 C 17.851562 30.144531 17.867188 30.164062 17.886719 30.164062 L 20.773438 30.164062 C 20.789062 30.164062 20.808594 30.144531 20.808594 30.128906 L 20.808594 25.289062 C 20.808594 25.253906 20.789062 25.234375 20.773438 25.234375 Z M 17.886719 25.234375 " fill-opacity="1" fill-rule="evenodd"/><path fill="#c4942e" d="M 28.675781 25.46875 L 28.011719 25.46875 C 27.832031 25.46875 27.707031 25.34375 27.707031 25.164062 C 27.707031 25 27.832031 24.875 28.011719 24.875 L 28.675781 24.875 C 28.835938 24.875 28.980469 25 28.980469 25.164062 C 28.980469 25.34375 28.835938 25.46875 28.675781 25.46875 Z M 27.1875 25.46875 L 22.257812 25.46875 C 22.097656 25.46875 21.953125 25.34375 21.953125 25.164062 C 21.953125 25 22.097656 24.875 22.257812 24.875 L 27.1875 24.875 C 27.351562 24.875 27.476562 25 27.476562 25.164062 C 27.476562 25.34375 27.351562 25.46875 27.1875 25.46875 Z M 27.1875 25.46875 " fill-opacity="1" fill-rule="evenodd"/><path fill="#c4942e" d="M 28.675781 26.742188 L 23.945312 26.742188 C 23.765625 26.742188 23.640625 26.597656 23.640625 26.4375 C 23.640625 26.273438 23.765625 26.132812 23.945312 26.132812 L 28.675781 26.132812 C 28.835938 26.132812 28.980469 26.273438 28.980469 26.4375 C 28.980469 26.597656 28.835938 26.742188 28.675781 26.742188 Z M 23.121094 26.742188 L 22.257812 26.742188 C 22.097656 26.742188 21.953125 26.597656 21.953125 26.4375 C 21.953125 26.273438 22.097656 26.132812 22.257812 26.132812 L 23.121094 26.132812 C 23.28125 26.132812 23.40625 26.273438 23.40625 26.4375 C 23.40625 26.597656 23.28125 26.742188 23.121094 26.742188 Z M 23.121094 26.742188 " fill-opacity="1" fill-rule="evenodd"/><path fill="#c4942e" d="M 28.675781 28.011719 L 27.796875 28.011719 C 27.636719 28.011719 27.511719 27.871094 27.511719 27.707031 C 27.511719 27.546875 27.636719 27.402344 27.796875 27.402344 L 28.675781 27.402344 C 28.835938 27.402344 28.980469 27.546875 28.980469 27.707031 C 28.980469 27.871094 28.835938 28.011719 28.675781 28.011719 Z M 26.972656 28.011719 L 22.257812 28.011719 C 22.097656 28.011719 21.953125 27.871094 21.953125 27.707031 C 21.953125 27.546875 22.097656 27.402344 22.257812 27.402344 L 26.972656 27.402344 C 27.152344 27.402344 27.277344 27.546875 27.277344 27.707031 C 27.277344 27.871094 27.152344 28.011719 26.972656 28.011719 Z M 26.972656 28.011719 " fill-opacity="1" fill-rule="evenodd"/><path fill="#c4942e" d="M 28.675781 29.265625 L 25.074219 29.265625 C 24.914062 29.265625 24.769531 29.140625 24.769531 28.980469 C 24.769531 28.820312 24.914062 28.675781 25.074219 28.675781 L 28.675781 28.675781 C 28.835938 28.675781 28.980469 28.820312 28.980469 28.980469 C 28.980469 29.140625 28.835938 29.265625 28.675781 29.265625 Z M 24.25 29.265625 L 22.257812 29.265625 C 22.097656 29.265625 21.953125 29.140625 21.953125 28.980469 C 21.953125 28.820312 22.097656 28.675781 22.257812 28.675781 L 24.25 28.675781 C 24.410156 28.675781 24.554688 28.820312 24.554688 28.980469 C 24.554688 29.140625 24.429688 29.265625 24.25 29.265625 Z M 24.25 29.265625 " fill-opacity="1" fill-rule="evenodd"/><path fill="#c4942e" d="M 28.675781 30.539062 L 26.902344 30.539062 C 26.742188 30.539062 26.613281 30.414062 26.613281 30.253906 C 26.613281 30.074219 26.742188 29.949219 26.902344 29.949219 L 28.675781 29.949219 C 28.835938 29.949219 28.980469 30.074219 28.980469 30.253906 C 28.980469 30.414062 28.835938 30.539062 28.675781 30.539062 Z M 26.078125 30.539062 L 22.257812 30.539062 C 22.097656 30.539062 21.953125 30.414062 21.953125 30.253906 C 21.953125 30.074219 22.097656 29.949219 22.257812 29.949219 L 26.078125 29.949219 C 26.257812 29.949219 26.382812 30.074219 26.382812 30.253906 C 26.382812 30.414062 26.257812 30.539062 26.078125 30.539062 Z M 26.078125 30.539062 " fill-opacity="1" fill-rule="evenodd"/></svg>