<svg xmlns="http://www.w3.org/2000/svg" xmlns:xlink="http://www.w3.org/1999/xlink" width="45" zoomAndPan="magnify" viewBox="0 0 33.75 33.749998" height="45" preserveAspectRatio="xMidYMid meet" version="1.0"><defs><clipPath id="e687867b74"><path d="M 19 3.351562 L 29 3.351562 L 29 16 L 19 16 Z M 19 3.351562 " clip-rule="nonzero"/></clipPath><clipPath id="d064ed532f"><path d="M 2.203125 15.554688 L 16.25 15.554688 L 16.25 30.144531 L 2.203125 30.144531 Z M 2.203125 15.554688 " clip-rule="nonzero"/></clipPath><clipPath id="b94600fe9b"><path d="M 16.300781 22.058594 L 31.238281 22.058594 L 31.238281 29.925781 L 16.300781 29.925781 Z M 16.300781 22.058594 " clip-rule="nonzero"/></clipPath></defs><path fill="#c4942e" d="M 19.105469 29.308594 C 18.5625 29.308594 18.121094 28.863281 18.121094 28.320312 C 18.121094 27.777344 18.5625 27.332031 19.105469 27.332031 C 19.652344 27.332031 20.09375 27.777344 20.09375 28.320312 C 20.09375 28.863281 19.652344 29.308594 19.105469 29.308594 " fill-opacity="1" fill-rule="nonzero"/><g clip-path="url(#e687867b74)"><path fill="#c4942e" d="M 19.359375 7.511719 C 19.5 7.242188 19.707031 7.085938 19.855469 7.003906 C 19.863281 7 19.867188 6.996094 19.871094 6.992188 C 20.039062 6.882812 20.277344 6.683594 20.449219 6.363281 C 20.617188 6.042969 20.65625 5.738281 20.65625 5.539062 L 20.65625 4.617188 L 27.171875 4.617188 L 27.171875 5.980469 C 27.171875 6.390625 27.371094 6.78125 27.707031 7.023438 L 28.292969 7.449219 C 28.496094 7.59375 28.617188 7.828125 28.617188 8.078125 L 28.617188 9.773438 C 28.617188 9.9375 28.550781 10.09375 28.4375 10.210938 L 26.535156 12.113281 C 26.527344 12.117188 26.523438 12.125 26.519531 12.128906 L 26.058594 12.589844 C 25.765625 12.882812 25.292969 12.882812 25.003906 12.589844 C 24.941406 12.527344 24.890625 12.449219 24.875 12.421875 C 24.765625 12.21875 24.757812 11.953125 24.859375 11.738281 C 24.910156 11.632812 24.972656 11.566406 25.007812 11.535156 C 25.203125 11.332031 27.039062 9.503906 27.054688 9.484375 C 27.15625 9.386719 27.15625 9.222656 27.054688 9.125 C 26.957031 9.023438 26.796875 9.023438 26.695312 9.121094 C 26.621094 9.199219 24.839844 10.972656 24.636719 11.179688 C 24.59375 11.222656 24.484375 11.339844 24.394531 11.523438 C 24.226562 11.882812 24.238281 12.320312 24.429688 12.667969 C 24.441406 12.695312 24.519531 12.828125 24.640625 12.953125 C 24.886719 13.195312 25.207031 13.320312 25.53125 13.320312 C 25.851562 13.320312 26.171875 13.195312 26.417969 12.953125 L 26.425781 12.941406 L 26.386719 14.1875 C 26.386719 14.574219 26.074219 14.886719 25.6875 14.886719 C 25.503906 14.886719 25.328125 14.816406 25.195312 14.683594 C 25.0625 14.550781 24.992188 14.375 24.992188 14.1875 L 24.992188 13.613281 C 24.992188 13.472656 24.875 13.359375 24.734375 13.359375 C 24.59375 13.359375 24.480469 13.472656 24.480469 13.613281 L 24.480469 14.953125 C 24.480469 15.339844 24.152344 15.652344 23.753906 15.652344 C 23.558594 15.652344 23.375 15.578125 23.234375 15.445312 C 23.101562 15.316406 23.027344 15.140625 23.027344 14.953125 L 23.027344 10.320312 C 23.027344 9.9375 23.351562 9.621094 23.753906 9.621094 C 23.949219 9.621094 24.132812 9.695312 24.269531 9.828125 C 24.40625 9.960938 24.480469 10.136719 24.480469 10.320312 L 24.480469 10.367188 C 24.480469 10.507812 24.59375 10.621094 24.734375 10.621094 C 24.875 10.621094 24.992188 10.507812 24.992188 10.367188 C 24.992188 9.980469 25.304688 9.667969 25.691406 9.667969 C 25.832031 9.667969 25.945312 9.554688 25.945312 9.414062 C 25.945312 9.273438 25.832031 9.15625 25.691406 9.15625 C 25.3125 9.15625 24.972656 9.332031 24.75 9.605469 C 24.710938 9.554688 24.671875 9.507812 24.625 9.464844 C 24.390625 9.238281 24.082031 9.113281 23.753906 9.113281 C 23.355469 9.113281 23 9.296875 22.773438 9.585938 C 22.554688 9.296875 22.207031 9.113281 21.816406 9.113281 C 21.3125 9.113281 20.878906 9.421875 20.699219 9.863281 C 20.484375 9.683594 20.210938 9.570312 19.910156 9.570312 C 19.648438 9.570312 19.40625 9.652344 19.210938 9.792969 C 19.210938 9.09375 19.210938 8.214844 19.210938 8.097656 C 19.210938 7.953125 19.238281 7.738281 19.359375 7.511719 Z M 19.574219 3.59375 L 19.574219 3.355469 L 28.054688 3.355469 L 28.054688 3.59375 C 28.054688 3.875 27.824219 4.105469 27.542969 4.105469 L 20.402344 4.105469 C 20.398438 4.105469 20.398438 4.105469 20.398438 4.105469 L 20.085938 4.105469 C 19.804688 4.105469 19.574219 3.875 19.574219 3.59375 Z M 21.816406 15.414062 C 21.433594 15.414062 21.117188 15.101562 21.117188 14.714844 L 21.117188 10.320312 C 21.117188 9.9375 21.433594 9.621094 21.816406 9.621094 C 22.203125 9.621094 22.515625 9.9375 22.515625 10.320312 C 22.515625 10.320312 22.515625 10.320312 22.515625 10.324219 L 22.515625 14.714844 C 22.515625 15.101562 22.203125 15.414062 21.816406 15.414062 Z M 19.910156 14.886719 C 19.523438 14.886719 19.210938 14.574219 19.210938 14.1875 L 19.210938 10.78125 C 19.210938 10.394531 19.523438 10.082031 19.910156 10.082031 C 20.292969 10.082031 20.609375 10.394531 20.609375 10.78125 L 20.609375 14.1875 C 20.609375 14.574219 20.292969 14.886719 19.910156 14.886719 " fill-opacity="1" fill-rule="nonzero"/></g><path fill="#c4942e" d="M 6.730469 7.785156 L 6.730469 7.28125 C 6.730469 6.921875 7.027344 6.625 7.390625 6.625 L 11.515625 6.625 C 11.878906 6.625 12.171875 6.921875 12.171875 7.28125 L 12.171875 7.785156 C 12.171875 7.859375 12.1875 8.246094 12.488281 8.546875 C 12.746094 8.804688 13.0625 8.855469 13.230469 8.863281 C 13.253906 8.867188 13.273438 8.871094 13.296875 8.875 L 13.320312 8.882812 L 13.320312 8.339844 C 13.320312 6.367188 11.714844 4.765625 9.746094 4.765625 L 9.207031 4.765625 C 7.234375 4.765625 5.632812 6.367188 5.632812 8.339844 L 5.632812 8.871094 C 5.652344 8.867188 5.671875 8.863281 5.695312 8.859375 C 6.273438 8.839844 6.730469 8.367188 6.730469 7.785156 " fill-opacity="1" fill-rule="nonzero"/><path fill="#c4942e" d="M 10.226562 20.472656 C 9.980469 20.601562 9.703125 20.671875 9.429688 20.671875 C 9.15625 20.671875 8.878906 20.605469 8.632812 20.472656 L 7.714844 25.980469 C 7.703125 26.035156 7.71875 26.089844 7.753906 26.132812 L 9.269531 28.105469 C 9.308594 28.15625 9.367188 28.183594 9.429688 28.183594 C 9.492188 28.183594 9.550781 28.15625 9.589844 28.105469 L 11.105469 26.132812 C 11.140625 26.089844 11.15625 26.035156 11.144531 25.980469 L 10.226562 20.472656 " fill-opacity="1" fill-rule="nonzero"/><path fill="#c4942e" d="M 22.238281 21.75 C 22.238281 21.605469 22.351562 21.492188 22.492188 21.492188 C 22.636719 21.492188 22.75 21.605469 22.75 21.75 L 22.75 22.035156 L 24.195312 22.035156 C 24.210938 22.035156 24.222656 22.023438 24.222656 22.007812 L 24.222656 20.65625 L 22.6875 20.664062 C 22.671875 20.660156 22.652344 20.660156 22.632812 20.65625 C 22.40625 20.605469 22.246094 20.40625 22.246094 20.171875 L 22.246094 18.804688 C 22.246094 18.507812 22.484375 18.269531 22.78125 18.269531 L 23.242188 18.269531 L 23.242188 17.957031 C 23.246094 17.816406 23.359375 17.703125 23.5 17.703125 C 23.640625 17.703125 23.753906 17.820312 23.753906 17.960938 L 23.753906 18.269531 L 24.203125 18.269531 C 24.5 18.269531 24.738281 18.507812 24.738281 18.804688 L 24.738281 19.066406 C 24.738281 19.207031 24.625 19.324219 24.484375 19.324219 C 24.34375 19.324219 24.230469 19.207031 24.230469 19.066406 L 24.230469 18.804688 C 24.230469 18.789062 24.21875 18.777344 24.203125 18.777344 L 22.78125 18.777344 C 22.769531 18.777344 22.757812 18.792969 22.757812 18.804688 L 22.757812 20.152344 L 24.234375 20.144531 C 24.273438 20.144531 24.308594 20.148438 24.34375 20.15625 C 24.574219 20.207031 24.734375 20.410156 24.734375 20.644531 L 24.734375 22.007812 C 24.734375 22.304688 24.492188 22.546875 24.195312 22.546875 L 23.742188 22.546875 L 23.742188 22.9375 C 23.742188 23.078125 23.628906 23.191406 23.488281 23.191406 C 23.347656 23.191406 23.230469 23.078125 23.230469 22.9375 L 23.234375 22.546875 L 22.734375 22.546875 C 22.460938 22.546875 22.238281 22.324219 22.238281 22.050781 Z M 17.890625 21.789062 C 18.714844 21.804688 19.289062 22.347656 19.5625 22.671875 C 19.847656 22.5 20.179688 22.40625 20.515625 22.40625 C 21.246094 22.40625 21.902344 22.839844 22.199219 23.488281 C 22.457031 23.386719 22.726562 23.332031 23.003906 23.332031 C 23.226562 23.332031 23.453125 23.367188 23.65625 23.433594 C 24.121094 23.582031 24.457031 23.875 24.683594 24.152344 C 25.050781 23.492188 25.75 23.070312 26.527344 23.070312 C 26.808594 23.070312 27.082031 23.128906 27.335938 23.230469 C 27.597656 22.253906 28.484375 21.554688 29.527344 21.554688 C 29.714844 21.554688 29.898438 21.582031 30.074219 21.625 L 30.074219 18.15625 C 30.074219 17.804688 29.789062 17.519531 29.4375 17.519531 L 17.394531 17.519531 C 17.042969 17.519531 16.757812 17.804688 16.757812 18.15625 L 16.757812 22.132812 C 16.871094 22.054688 16.988281 21.988281 17.105469 21.941406 C 17.351562 21.835938 17.621094 21.785156 17.890625 21.789062 " fill-opacity="1" fill-rule="nonzero"/><path fill="#c4942e" d="M 5.929688 12.167969 C 5.976562 12.214844 6 12.277344 6 12.34375 L 6 13.160156 C 6 13.910156 6.359375 14.570312 6.898438 14.808594 L 7.234375 14.957031 C 7.238281 14.957031 7.238281 14.957031 7.242188 14.957031 L 8.316406 15.425781 C 8.988281 15.726562 9.734375 15.734375 10.410156 15.449219 L 11.617188 14.945312 C 11.621094 14.945312 11.625 14.945312 11.628906 14.941406 L 11.992188 14.792969 C 12.527344 14.566406 12.90625 13.886719 12.90625 13.140625 L 12.90625 12.34375 C 12.90625 12.277344 12.929688 12.210938 12.976562 12.164062 L 13.527344 11.601562 C 13.628906 11.5 13.6875 11.363281 13.6875 11.214844 L 13.6875 9.941406 C 13.6875 9.699219 13.53125 9.488281 13.300781 9.414062 L 13.171875 9.375 C 12.921875 9.355469 12.488281 9.269531 12.128906 8.90625 C 11.695312 8.476562 11.664062 7.941406 11.664062 7.785156 L 11.664062 7.28125 C 11.664062 7.203125 11.597656 7.136719 11.515625 7.136719 L 7.390625 7.136719 C 7.308594 7.136719 7.242188 7.203125 7.242188 7.28125 L 7.242188 7.785156 C 7.242188 8.632812 6.589844 9.320312 5.746094 9.371094 L 5.601562 9.414062 C 5.375 9.488281 5.21875 9.699219 5.21875 9.941406 L 5.21875 11.214844 C 5.21875 11.355469 5.277344 11.496094 5.378906 11.601562 L 5.929688 12.167969 " fill-opacity="1" fill-rule="nonzero"/><g clip-path="url(#d064ed532f)"><path fill="#c4942e" d="M 14.445312 22.546875 L 12.132812 22.546875 C 11.992188 22.546875 11.878906 22.429688 11.878906 22.289062 C 11.878906 22.148438 11.992188 22.035156 12.132812 22.035156 L 14.445312 22.035156 C 14.585938 22.035156 14.699219 22.148438 14.699219 22.289062 C 14.699219 22.429688 14.585938 22.546875 14.445312 22.546875 Z M 11.511719 26.445312 L 9.996094 28.417969 C 9.859375 28.59375 9.652344 28.695312 9.429688 28.695312 C 9.207031 28.695312 9 28.59375 8.867188 28.417969 L 7.347656 26.445312 C 7.226562 26.289062 7.175781 26.089844 7.210938 25.894531 L 8.164062 20.164062 L 6.71875 19.160156 C 6.601562 19.078125 6.574219 18.921875 6.652344 18.804688 C 6.734375 18.6875 6.894531 18.660156 7.007812 18.742188 L 8.746094 19.945312 C 9.15625 20.230469 9.703125 20.230469 10.113281 19.945312 L 11.851562 18.742188 C 11.964844 18.660156 12.125 18.6875 12.207031 18.804688 C 12.285156 18.921875 12.257812 19.078125 12.140625 19.160156 L 10.695312 20.164062 L 11.648438 25.894531 C 11.683594 26.089844 11.632812 26.289062 11.511719 26.445312 Z M 16.246094 22.609375 L 16.246094 19.875 L 15.214844 19.570312 C 15.207031 19.570312 15.199219 19.566406 15.191406 19.5625 L 12.671875 18.550781 C 11.9375 18.257812 11.464844 17.570312 11.464844 16.796875 L 11.464844 15.5625 L 10.609375 15.921875 C 10.214844 16.085938 9.800781 16.167969 9.386719 16.167969 C 8.953125 16.167969 8.519531 16.078125 8.109375 15.894531 L 7.394531 15.582031 L 7.394531 16.796875 C 7.394531 17.570312 6.921875 18.257812 6.1875 18.554688 L 3.089844 19.792969 C 2.550781 20.011719 2.203125 20.515625 2.203125 21.074219 L 2.203125 30.105469 L 4.464844 30.136719 L 4.464844 23.835938 C 4.464844 23.695312 4.578125 23.582031 4.71875 23.582031 C 4.859375 23.582031 4.976562 23.695312 4.976562 23.835938 L 4.976562 30.144531 L 13.882812 30.09375 L 13.882812 23.835938 C 13.882812 23.695312 14 23.582031 14.140625 23.582031 C 14.28125 23.582031 14.394531 23.695312 14.394531 23.835938 L 14.394531 30.097656 L 16.246094 30.125 L 16.246094 25.164062 C 16.246094 25.152344 16.246094 25.140625 16.25 25.128906 C 15.96875 24.773438 15.796875 24.339844 15.792969 23.882812 C 15.789062 23.382812 15.976562 22.949219 16.246094 22.609375 " fill-opacity="1" fill-rule="nonzero"/></g><g clip-path="url(#b94600fe9b)"><path fill="#c4942e" d="M 29.527344 22.066406 C 28.625 22.066406 27.871094 22.742188 27.777344 23.640625 C 27.777344 23.644531 27.757812 23.789062 27.632812 23.84375 C 27.5 23.90625 27.386719 23.832031 27.386719 23.828125 C 27.132812 23.667969 26.835938 23.582031 26.527344 23.582031 C 25.832031 23.582031 25.21875 24.027344 25 24.6875 C 24.992188 24.710938 24.925781 24.9375 24.734375 24.945312 C 24.566406 24.953125 24.507812 24.8125 24.507812 24.808594 C 24.394531 24.601562 24.070312 24.101562 23.5 23.917969 C 23.347656 23.871094 23.175781 23.84375 23.003906 23.84375 C 22.714844 23.84375 22.433594 23.917969 22.1875 24.0625 C 22.183594 24.0625 22.082031 24.125 21.96875 24.078125 C 21.820312 24.027344 21.8125 23.910156 21.8125 23.90625 C 21.652344 23.324219 21.121094 22.917969 20.515625 22.917969 C 20.207031 22.917969 19.90625 23.023438 19.667969 23.21875 C 19.664062 23.222656 19.59375 23.28125 19.492188 23.273438 C 19.351562 23.261719 19.296875 23.167969 19.292969 23.164062 C 19.199219 23.023438 18.683594 22.316406 17.878906 22.300781 C 17.742188 22.296875 17.53125 22.316406 17.304688 22.414062 C 16.820312 22.617188 16.300781 23.160156 16.304688 23.878906 C 16.308594 24.796875 17.144531 25.449219 17.890625 25.460938 C 18.445312 25.464844 18.863281 25.128906 19.019531 24.980469 C 19.023438 24.976562 19.109375 24.890625 19.222656 24.910156 C 19.332031 24.914062 19.402344 25.015625 19.40625 25.019531 C 19.574219 25.261719 19.820312 25.449219 20.097656 25.539062 C 20.265625 25.59375 20.417969 25.605469 20.515625 25.605469 C 20.6875 25.605469 20.859375 25.570312 21.023438 25.503906 C 21.023438 25.503906 21.167969 25.460938 21.269531 25.535156 C 21.355469 25.601562 21.371094 25.703125 21.371094 25.707031 C 21.460938 26.375 21.957031 26.929688 22.609375 27.089844 C 22.707031 27.128906 22.71875 27.132812 22.761719 27.199219 C 22.808594 27.273438 22.800781 27.332031 22.800781 27.335938 L 22.800781 29.332031 C 22.800781 29.660156 23.070312 29.921875 23.394531 29.921875 C 23.722656 29.921875 23.988281 29.660156 23.988281 29.332031 L 23.988281 26.933594 C 23.988281 26.933594 23.972656 26.808594 24.078125 26.742188 C 24.332031 26.523438 24.511719 26.242188 24.597656 25.921875 C 24.597656 25.921875 24.65625 25.738281 24.816406 25.734375 C 24.976562 25.710938 25.070312 25.871094 25.070312 25.871094 C 25.363281 26.4375 25.929688 26.800781 26.519531 26.800781 C 26.523438 26.800781 26.523438 26.800781 26.527344 26.800781 C 27.28125 26.796875 27.953125 26.21875 28.125 25.425781 C 28.125 25.410156 28.160156 25.28125 28.28125 25.242188 C 28.382812 25.199219 28.492188 25.25 28.519531 25.269531 C 28.816406 25.476562 29.164062 25.585938 29.527344 25.585938 C 29.601562 25.585938 29.664062 25.582031 29.71875 25.574219 C 29.726562 25.574219 29.863281 25.574219 29.953125 25.667969 C 30.019531 25.734375 30.011719 25.820312 30.011719 25.828125 L 30.011719 28.148438 C 30.011719 28.496094 30.292969 28.777344 30.640625 28.777344 C 30.988281 28.777344 31.273438 28.496094 31.273438 28.148438 L 31.273438 24.0625 C 31.273438 24.058594 31.273438 24.054688 31.273438 24.050781 C 31.273438 24.042969 31.273438 24.039062 31.273438 24.035156 C 31.28125 23.960938 31.285156 23.890625 31.285156 23.824219 C 31.285156 22.855469 30.496094 22.066406 29.527344 22.066406 " fill-opacity="1" fill-rule="nonzero"/></g></svg>