<svg xmlns="http://www.w3.org/2000/svg" xmlns:xlink="http://www.w3.org/1999/xlink" width="45" zoomAndPan="magnify" viewBox="0 0 33.75 33.749998" height="45" preserveAspectRatio="xMidYMid meet" version="1.0"><defs><clipPath id="b736f10f65"><path d="M 3.183594 21 L 29.984375 21 L 29.984375 33.5 L 3.183594 33.5 Z M 3.183594 21 " clip-rule="nonzero"/></clipPath><clipPath id="687cca8536"><path d="M 9 0 L 29.984375 0 L 29.984375 24 L 9 24 Z M 9 0 " clip-rule="nonzero"/></clipPath></defs><g clip-path="url(#b736f10f65)"><path fill="#c4942e" d="M 29.796875 22.796875 C 29.507812 22.300781 29.015625 21.941406 28.449219 21.8125 C 27.886719 21.683594 27.289062 21.796875 26.808594 22.113281 L 21.835938 25.457031 C 21.65625 24.636719 20.925781 24.023438 20.054688 24.023438 L 17.996094 24.023438 C 16.957031 24.023438 15.929688 23.746094 15.03125 23.226562 C 14.308594 22.808594 13.480469 22.589844 12.644531 22.589844 C 11.484375 22.589844 10.359375 23.011719 9.484375 23.777344 L 9.175781 24.050781 C 9.015625 23.355469 8.386719 22.828125 7.636719 22.828125 L 4.769531 22.828125 C 3.898438 22.828125 3.1875 23.539062 3.1875 24.414062 L 3.1875 31.910156 C 3.1875 32.789062 3.898438 33.496094 4.769531 33.496094 L 7.636719 33.496094 C 8.507812 33.496094 9.222656 32.789062 9.222656 31.910156 L 9.222656 31.660156 L 11.960938 32.199219 C 13 32.402344 14.054688 32.507812 15.109375 32.507812 C 16.707031 32.507812 18.308594 32.273438 19.839844 31.804688 C 22.019531 31.144531 23.996094 30.058594 25.722656 28.574219 L 29.355469 25.453125 C 30.125 24.789062 30.308594 23.671875 29.796875 22.796875 Z M 28.625 24.605469 L 24.996094 27.730469 C 23.386719 29.109375 21.546875 30.125 19.515625 30.738281 C 17.148438 31.457031 14.609375 31.582031 12.179688 31.105469 L 9.222656 30.519531 L 9.222656 25.503906 L 10.226562 24.617188 C 11.375 23.605469 13.144531 23.425781 14.472656 24.195312 C 15.539062 24.8125 16.761719 25.140625 17.996094 25.140625 L 20.054688 25.140625 C 20.445312 25.140625 20.757812 25.453125 20.757812 25.84375 C 20.757812 26.234375 20.445312 26.550781 20.054688 26.550781 L 14.992188 26.550781 C 14.679688 26.550781 14.433594 26.804688 14.433594 27.109375 C 14.433594 27.417969 14.679688 27.667969 14.992188 27.667969 L 20.054688 27.667969 C 20.546875 27.667969 21 27.46875 21.324219 27.148438 L 27.433594 23.042969 C 27.664062 22.890625 27.933594 22.839844 28.199219 22.902344 C 28.46875 22.964844 28.691406 23.125 28.832031 23.367188 C 29.070312 23.773438 28.988281 24.296875 28.625 24.605469 Z M 28.625 24.605469 " fill-opacity="1" fill-rule="nonzero"/></g><g clip-path="url(#687cca8536)"><path fill="#c4942e" d="M 19.46875 0.078125 C 19.296875 -0.015625 19.085938 -0.015625 18.910156 0.078125 L 9.304688 5.625 C 9.132812 5.726562 9.027344 5.910156 9.027344 6.113281 L 9.027344 17.203125 C 9.027344 17.402344 9.132812 17.589844 9.304688 17.6875 L 18.910156 23.230469 C 19 23.28125 19.097656 23.308594 19.191406 23.308594 C 19.285156 23.308594 19.386719 23.28125 19.46875 23.230469 L 29.078125 17.6875 C 29.25 17.589844 29.355469 17.402344 29.355469 17.203125 L 29.355469 6.113281 C 29.355469 5.910156 29.25 5.726562 29.078125 5.625 Z M 28.238281 16.878906 L 19.191406 22.105469 L 10.144531 16.878906 L 10.144531 6.429688 L 19.191406 1.207031 L 28.238281 6.429688 Z M 28.238281 16.878906 " fill-opacity="1" fill-rule="nonzero"/></g><path fill="#c4942e" d="M 18.910156 2.527344 L 11.425781 6.847656 C 11.253906 6.949219 11.148438 7.132812 11.148438 7.335938 L 11.148438 15.980469 C 11.148438 16.179688 11.253906 16.367188 11.425781 16.460938 L 18.910156 20.785156 C 19 20.835938 19.097656 20.859375 19.191406 20.859375 C 19.285156 20.859375 19.386719 20.835938 19.46875 20.785156 L 26.960938 16.460938 C 27.132812 16.367188 27.238281 16.179688 27.238281 15.980469 L 27.238281 7.335938 C 27.238281 7.132812 27.132812 6.949219 26.960938 6.847656 L 19.46875 2.527344 C 19.296875 2.429688 19.085938 2.429688 18.910156 2.527344 Z M 12.949219 9.265625 C 12.949219 9.019531 13.105469 8.800781 13.339844 8.730469 C 13.570312 8.65625 13.828125 8.746094 13.964844 8.949219 L 16.242188 12.257812 L 16.242188 9.265625 C 16.242188 8.953125 16.496094 8.707031 16.800781 8.707031 C 17.113281 8.707031 17.359375 8.953125 17.359375 9.265625 L 17.359375 14.050781 C 17.359375 14.296875 17.203125 14.507812 16.96875 14.578125 C 16.914062 14.601562 16.859375 14.609375 16.800781 14.609375 C 16.625 14.609375 16.449219 14.519531 16.34375 14.367188 L 14.066406 11.058594 L 14.066406 14.050781 C 14.066406 14.355469 13.816406 14.609375 13.507812 14.609375 C 13.195312 14.609375 12.949219 14.355469 12.949219 14.050781 Z M 19.078125 14.050781 C 19.078125 14.355469 18.832031 14.609375 18.519531 14.609375 C 18.214844 14.609375 17.964844 14.355469 17.964844 14.050781 L 17.964844 9.265625 C 17.964844 8.953125 18.214844 8.707031 18.519531 8.707031 L 20.5625 8.707031 C 20.871094 8.707031 21.121094 8.953125 21.121094 9.265625 C 21.121094 9.574219 20.871094 9.824219 20.5625 9.824219 L 19.078125 9.824219 L 19.078125 10.679688 L 20.5625 10.679688 C 20.871094 10.679688 21.121094 10.929688 21.121094 11.234375 C 21.121094 11.542969 20.871094 11.792969 20.5625 11.792969 L 19.078125 11.792969 Z M 24.878906 9.824219 L 23.847656 9.824219 L 23.847656 14.050781 C 23.847656 14.355469 23.59375 14.609375 23.289062 14.609375 C 22.980469 14.609375 22.730469 14.355469 22.730469 14.050781 L 22.730469 9.824219 L 21.695312 9.824219 C 21.390625 9.824219 21.140625 9.574219 21.140625 9.265625 C 21.140625 8.953125 21.390625 8.707031 21.695312 8.707031 L 24.878906 8.707031 C 25.1875 8.707031 25.4375 8.953125 25.4375 9.265625 C 25.4375 9.574219 25.1875 9.824219 24.878906 9.824219 Z M 24.878906 9.824219 " fill-opacity="1" fill-rule="nonzero"/></svg>