<svg xmlns="http://www.w3.org/2000/svg" xmlns:xlink="http://www.w3.org/1999/xlink" width="45" zoomAndPan="magnify" viewBox="0 0 33.75 33.749998" height="45" preserveAspectRatio="xMidYMid meet" version="1.0"><defs><clipPath id="37a6166d95"><path d="M 2.484375 13 L 10 13 L 10 21 L 2.484375 21 Z M 2.484375 13 " clip-rule="nonzero"/></clipPath><clipPath id="f7c0d49659"><path d="M 10 24 L 23 24 L 23 31.78125 L 10 31.78125 Z M 10 24 " clip-rule="nonzero"/></clipPath><clipPath id="8da39865f3"><path d="M 23 11 L 30.773438 11 L 30.773438 24 L 23 24 Z M 23 11 " clip-rule="nonzero"/></clipPath><clipPath id="c7dc7a560d"><path d="M 24 12 L 30.773438 12 L 30.773438 23 L 24 23 Z M 24 12 " clip-rule="nonzero"/></clipPath></defs><path fill="#c4942e" d="M 7.457031 22.46875 C 7.441406 22.433594 7.421875 22.402344 7.402344 22.363281 C 7.335938 22.246094 7.1875 22.203125 7.070312 22.265625 C 6.949219 22.332031 6.90625 22.480469 6.96875 22.601562 C 7.050781 22.75 7.136719 22.898438 7.222656 23.039062 C 7.273438 23.113281 7.355469 23.15625 7.433594 23.15625 C 7.476562 23.15625 7.519531 23.144531 7.5625 23.121094 C 7.683594 23.050781 7.71875 22.898438 7.644531 22.78125 C 7.582031 22.679688 7.519531 22.574219 7.457031 22.46875 Z M 7.457031 22.46875 " fill-opacity="1" fill-rule="nonzero"/><path fill="#c4942e" d="M 8.183594 23.589844 C 8.101562 23.480469 7.949219 23.460938 7.835938 23.542969 C 7.726562 23.621094 7.707031 23.777344 7.789062 23.886719 C 7.886719 24.023438 7.992188 24.160156 8.097656 24.292969 C 8.148438 24.351562 8.214844 24.382812 8.289062 24.382812 C 8.34375 24.382812 8.402344 24.367188 8.445312 24.328125 C 8.550781 24.242188 8.566406 24.085938 8.480469 23.980469 C 8.382812 23.84375 8.28125 23.722656 8.183594 23.589844 Z M 8.183594 23.589844 " fill-opacity="1" fill-rule="nonzero"/><path fill="#c4942e" d="M 10.605469 25.953125 C 10.476562 25.859375 10.339844 25.757812 10.214844 25.660156 C 10.109375 25.574219 9.949219 25.597656 9.867188 25.703125 C 9.78125 25.808594 9.808594 25.96875 9.914062 26.050781 C 10.046875 26.15625 10.183594 26.253906 10.320312 26.355469 C 10.363281 26.386719 10.414062 26.398438 10.464844 26.398438 C 10.542969 26.398438 10.617188 26.359375 10.667969 26.292969 C 10.675781 26.285156 10.675781 26.285156 10.675781 26.28125 C 10.722656 26.199219 10.722656 26.101562 10.675781 26.019531 C 10.65625 25.996094 10.636719 25.96875 10.605469 25.953125 Z M 10.605469 25.953125 " fill-opacity="1" fill-rule="nonzero"/><path fill="#c4942e" d="M 6.976562 21.496094 C 6.914062 21.347656 6.851562 21.199219 6.789062 21.050781 C 6.742188 20.921875 6.597656 20.859375 6.46875 20.910156 C 6.335938 20.957031 6.277344 21.101562 6.324219 21.230469 C 6.386719 21.386719 6.449219 21.546875 6.515625 21.703125 C 6.5625 21.792969 6.648438 21.851562 6.746094 21.851562 C 6.777344 21.851562 6.816406 21.84375 6.84375 21.832031 C 6.96875 21.769531 7.023438 21.621094 6.976562 21.496094 Z M 6.976562 21.496094 " fill-opacity="1" fill-rule="nonzero"/><path fill="#c4942e" d="M 6.640625 13.140625 C 6.671875 13.152344 6.703125 13.160156 6.742188 13.160156 C 6.839844 13.160156 6.925781 13.101562 6.96875 13.011719 C 7.03125 12.859375 7.101562 12.710938 7.175781 12.570312 C 7.234375 12.445312 7.179688 12.296875 7.0625 12.234375 C 6.9375 12.171875 6.789062 12.230469 6.726562 12.347656 C 6.652344 12.5 6.585938 12.65625 6.515625 12.8125 C 6.457031 12.933594 6.511719 13.085938 6.640625 13.140625 Z M 6.640625 13.140625 " fill-opacity="1" fill-rule="nonzero"/><path fill="#c4942e" d="M 8.121094 10.5625 C 8.164062 10.601562 8.222656 10.617188 8.277344 10.617188 C 8.351562 10.617188 8.417969 10.585938 8.46875 10.527344 C 8.542969 10.4375 8.617188 10.347656 8.691406 10.265625 C 8.722656 10.226562 8.753906 10.195312 8.785156 10.160156 C 8.878906 10.054688 8.863281 9.898438 8.765625 9.8125 C 8.742188 9.792969 8.714844 9.777344 8.691406 9.769531 C 8.597656 9.734375 8.488281 9.757812 8.414062 9.835938 C 8.300781 9.960938 8.191406 10.09375 8.085938 10.226562 C 7.996094 10.320312 8.015625 10.476562 8.121094 10.5625 Z M 8.121094 10.5625 " fill-opacity="1" fill-rule="nonzero"/><path fill="#c4942e" d="M 7.292969 11.796875 C 7.335938 11.820312 7.378906 11.832031 7.421875 11.832031 C 7.507812 11.832031 7.589844 11.789062 7.632812 11.714844 C 7.71875 11.578125 7.804688 11.4375 7.894531 11.304688 C 7.96875 11.195312 7.941406 11.039062 7.824219 10.960938 C 7.714844 10.886719 7.558594 10.910156 7.476562 11.027344 C 7.382812 11.167969 7.292969 11.3125 7.203125 11.453125 C 7.136719 11.574219 7.175781 11.726562 7.292969 11.796875 Z M 7.292969 11.796875 " fill-opacity="1" fill-rule="nonzero"/><path fill="#c4942e" d="M 9.132812 24.695312 C 9.03125 24.59375 8.878906 24.59375 8.777344 24.6875 C 8.679688 24.78125 8.679688 24.941406 8.773438 25.039062 C 8.890625 25.160156 9.015625 25.28125 9.136719 25.394531 C 9.1875 25.4375 9.25 25.460938 9.304688 25.460938 C 9.375 25.460938 9.433594 25.4375 9.484375 25.382812 C 9.578125 25.28125 9.570312 25.128906 9.472656 25.027344 C 9.359375 24.921875 9.242188 24.8125 9.132812 24.695312 Z M 9.132812 24.695312 " fill-opacity="1" fill-rule="nonzero"/><path fill="#c4942e" d="M 22.890625 25.945312 C 22.867188 25.964844 22.839844 25.980469 22.816406 26 L 22.816406 26.59375 C 22.941406 26.515625 23.058594 26.433594 23.175781 26.347656 C 23.289062 26.265625 23.3125 26.113281 23.238281 26 C 23.15625 25.894531 23.003906 25.863281 22.890625 25.945312 Z M 22.890625 25.945312 " fill-opacity="1" fill-rule="nonzero"/><path fill="#c4942e" d="M 25.660156 23.527344 C 25.703125 23.558594 25.753906 23.574219 25.796875 23.574219 C 25.875 23.574219 25.953125 23.535156 26 23.460938 C 26.03125 23.410156 26.070312 23.363281 26.101562 23.3125 L 25.546875 23.3125 C 25.542969 23.398438 25.578125 23.480469 25.660156 23.527344 Z M 25.660156 23.527344 " fill-opacity="1" fill-rule="nonzero"/><path fill="#c4942e" d="M 26.402344 11.664062 C 26.355469 11.585938 26.3125 11.503906 26.261719 11.429688 C 26.191406 11.3125 26.039062 11.273438 25.921875 11.347656 C 25.808594 11.417969 25.773438 11.554688 25.828125 11.664062 Z M 26.402344 11.664062 " fill-opacity="1" fill-rule="nonzero"/><path fill="#c4942e" d="M 16.734375 14.925781 L 16.96875 15.183594 L 17.097656 14.570312 L 16.316406 14.398438 L 16.144531 14.746094 L 16.671875 14.886719 C 16.695312 14.894531 16.714844 14.90625 16.734375 14.925781 Z M 16.734375 14.925781 " fill-opacity="1" fill-rule="nonzero"/><path fill="#c4942e" d="M 13.742188 21.640625 C 16.007812 23.1875 19.074219 22.75 20.820312 20.667969 L 20.042969 20.53125 C 20.011719 20.523438 19.980469 20.511719 19.953125 20.492188 L 19.125 19.929688 C 19.074219 19.890625 19.039062 19.835938 19.03125 19.78125 C 19.023438 19.726562 19.042969 19.65625 19.082031 19.609375 L 20.027344 18.5 L 18.765625 17.636719 C 18.734375 17.617188 18.710938 17.589844 18.691406 17.558594 L 17.859375 15.898438 C 17.824219 15.828125 17.828125 15.742188 17.871094 15.671875 L 18.230469 15.148438 L 17.859375 13.832031 L 16.460938 12.878906 C 16.398438 12.835938 16.359375 12.769531 16.367188 12.695312 C 16.367188 12.621094 16.40625 12.550781 16.464844 12.515625 L 17.359375 11.945312 C 17.152344 11.917969 16.949219 11.90625 16.746094 11.90625 C 15.699219 11.90625 14.65625 12.21875 13.785156 12.792969 C 13.746094 12.816406 13.710938 12.84375 13.671875 12.875 L 14.398438 13.355469 C 14.441406 13.386719 14.460938 13.445312 14.445312 13.492188 L 14.144531 14.550781 L 15.3125 15.351562 C 15.351562 15.375 15.371094 15.417969 15.371094 15.46875 L 15.03125 18.574219 L 16.367188 19.484375 C 16.398438 19.503906 16.417969 19.539062 16.421875 19.578125 C 16.429688 19.613281 16.410156 19.652344 16.386719 19.675781 L 14.910156 21.167969 C 14.886719 21.195312 14.855469 21.207031 14.824219 21.207031 C 14.800781 21.207031 14.773438 21.199219 14.757812 21.1875 L 14.3125 20.882812 L 12.558594 20.535156 C 12.898438 20.964844 13.292969 21.335938 13.742188 21.640625 Z M 15.933594 14.949219 C 15.898438 14.9375 15.867188 14.910156 15.851562 14.878906 C 15.839844 14.851562 15.839844 14.804688 15.851562 14.773438 L 16.136719 14.207031 C 16.164062 14.15625 16.21875 14.125 16.273438 14.136719 L 17.265625 14.359375 C 17.332031 14.371094 17.371094 14.441406 17.359375 14.507812 L 17.152344 15.476562 C 17.140625 15.519531 17.109375 15.554688 17.066406 15.566406 C 17.054688 15.566406 17.050781 15.574219 17.035156 15.574219 C 17 15.574219 16.96875 15.5625 16.945312 15.53125 L 16.570312 15.117188 Z M 15.933594 14.949219 " fill-opacity="1" fill-rule="nonzero"/><path fill="#c4942e" d="M 14.199219 13.523438 L 13.472656 13.039062 C 13.039062 13.382812 12.664062 13.785156 12.347656 14.242188 C 11.121094 16.046875 11.121094 18.449219 12.347656 20.246094 L 14.390625 20.648438 C 14.410156 20.65625 14.421875 20.660156 14.433594 20.667969 L 14.8125 20.925781 L 16.113281 19.609375 L 14.835938 18.738281 C 14.800781 18.714844 14.78125 18.671875 14.78125 18.621094 L 15.121094 15.519531 L 13.9375 14.714844 C 13.894531 14.683594 13.878906 14.625 13.890625 14.578125 Z M 14.199219 13.523438 " fill-opacity="1" fill-rule="nonzero"/><path fill="#c4942e" d="M 21.144531 20.246094 C 22.796875 17.816406 22.171875 14.496094 19.75 12.84375 C 19.144531 12.425781 18.46875 12.148438 17.75 12.011719 L 16.652344 12.707031 L 18.023438 13.640625 C 18.066406 13.671875 18.097656 13.714844 18.109375 13.757812 L 18.484375 15.097656 C 18.503906 15.160156 18.492188 15.226562 18.457031 15.277344 L 18.097656 15.804688 L 18.914062 17.4375 L 20.195312 18.3125 C 20.246094 18.351562 20.28125 18.40625 20.289062 18.460938 C 20.296875 18.515625 20.277344 18.585938 20.238281 18.636719 L 19.292969 19.742188 L 20.085938 20.289062 L 20.988281 20.445312 C 21.050781 20.375 21.101562 20.3125 21.144531 20.246094 Z M 21.144531 20.246094 " fill-opacity="1" fill-rule="nonzero"/><path fill="#c4942e" d="M 25.363281 23.933594 C 25.257812 23.84375 25.101562 23.863281 25.015625 23.96875 C 24.917969 24.09375 24.804688 24.214844 24.699219 24.339844 C 24.605469 24.441406 24.621094 24.601562 24.71875 24.6875 C 24.769531 24.730469 24.824219 24.75 24.886719 24.75 C 24.953125 24.75 25.023438 24.71875 25.070312 24.667969 C 25.183594 24.546875 25.292969 24.414062 25.398438 24.285156 C 25.480469 24.171875 25.46875 24.019531 25.363281 23.933594 Z M 25.363281 23.933594 " fill-opacity="1" fill-rule="nonzero"/><path fill="#c4942e" d="M 25.292969 10.886719 C 25.34375 10.953125 25.417969 10.984375 25.492188 10.984375 C 25.542969 10.984375 25.597656 10.964844 25.640625 10.933594 C 25.753906 10.855469 25.773438 10.699219 25.691406 10.585938 C 25.59375 10.453125 25.488281 10.316406 25.382812 10.183594 C 25.292969 10.078125 25.140625 10.0625 25.035156 10.148438 C 24.929688 10.234375 24.910156 10.390625 24.996094 10.496094 C 25.101562 10.625 25.203125 10.753906 25.292969 10.886719 Z M 25.292969 10.886719 " fill-opacity="1" fill-rule="nonzero"/><path fill="#c4942e" d="M 24.019531 25.027344 C 23.902344 25.140625 23.777344 25.246094 23.660156 25.351562 C 23.554688 25.4375 23.542969 25.597656 23.632812 25.699219 C 23.683594 25.753906 23.753906 25.785156 23.820312 25.785156 C 23.875 25.785156 23.933594 25.765625 23.980469 25.722656 C 24.113281 25.609375 24.234375 25.5 24.359375 25.382812 C 24.457031 25.289062 24.464844 25.132812 24.371094 25.027344 C 24.277344 24.941406 24.117188 24.933594 24.019531 25.027344 Z M 24.019531 25.027344 " fill-opacity="1" fill-rule="nonzero"/><g clip-path="url(#37a6166d95)"><path fill="#c4942e" d="M 9.1875 17.242188 C 9.1875 15.394531 7.6875 13.894531 5.84375 13.894531 C 3.996094 13.894531 2.496094 15.394531 2.496094 17.242188 C 2.496094 19.085938 3.996094 20.585938 5.84375 20.585938 C 7.6875 20.585938 9.1875 19.085938 9.1875 17.242188 Z M 5.84375 19.84375 C 4.40625 19.84375 3.238281 18.679688 3.238281 17.242188 C 3.238281 15.804688 4.40625 14.640625 5.84375 14.640625 C 7.277344 14.640625 8.445312 15.804688 8.445312 17.242188 C 8.445312 18.679688 7.277344 19.84375 5.84375 19.84375 Z M 5.84375 19.84375 " fill-opacity="1" fill-rule="nonzero"/></g><path fill="#c4942e" d="M 5.84375 14.886719 C 4.542969 14.886719 3.488281 15.941406 3.488281 17.242188 C 3.488281 18.542969 4.542969 19.59375 5.84375 19.59375 C 7.144531 19.59375 8.195312 18.542969 8.195312 17.242188 C 8.195312 15.941406 7.144531 14.886719 5.84375 14.886719 Z M 6.585938 16.660156 C 6.585938 16.726562 6.53125 16.78125 6.460938 16.78125 C 6.394531 16.78125 6.335938 16.726562 6.335938 16.660156 L 6.335938 16.621094 C 6.335938 16.347656 6.113281 16.125 5.84375 16.125 C 5.570312 16.125 5.347656 16.347656 5.347656 16.621094 C 5.347656 16.796875 5.453125 16.949219 5.613281 17.019531 L 6.164062 17.234375 C 6.417969 17.339844 6.585938 17.582031 6.585938 17.859375 C 6.585938 18.226562 6.320312 18.535156 5.964844 18.589844 L 5.964844 18.976562 C 5.964844 19.042969 5.910156 19.097656 5.84375 19.097656 C 5.773438 19.097656 5.71875 19.042969 5.71875 18.976562 L 5.71875 18.589844 C 5.363281 18.53125 5.097656 18.226562 5.097656 17.859375 L 5.097656 17.738281 C 5.097656 17.667969 5.15625 17.613281 5.222656 17.613281 C 5.289062 17.613281 5.347656 17.667969 5.347656 17.738281 L 5.347656 17.859375 C 5.347656 18.132812 5.570312 18.355469 5.84375 18.355469 C 6.113281 18.355469 6.335938 18.132812 6.335938 17.859375 C 6.335938 17.6875 6.230469 17.53125 6.070312 17.464844 L 5.519531 17.246094 C 5.265625 17.140625 5.097656 16.898438 5.097656 16.621094 C 5.097656 16.257812 5.363281 15.945312 5.71875 15.890625 L 5.71875 15.507812 C 5.71875 15.4375 5.773438 15.382812 5.84375 15.382812 C 5.910156 15.382812 5.964844 15.4375 5.964844 15.507812 L 5.964844 15.890625 C 6.320312 15.953125 6.585938 16.257812 6.585938 16.621094 Z M 6.585938 16.660156 " fill-opacity="1" fill-rule="nonzero"/><g clip-path="url(#f7c0d49659)"><path fill="#c4942e" d="M 10.921875 31.488281 L 22.570312 31.488281 L 22.570312 24.304688 L 10.921875 24.304688 Z M 12.65625 30.621094 C 12.65625 30.691406 12.601562 30.746094 12.53125 30.746094 C 12.464844 30.746094 12.410156 30.691406 12.410156 30.621094 L 12.410156 29.632812 C 12.410156 29.5625 12.464844 29.507812 12.53125 29.507812 C 12.601562 29.507812 12.65625 29.5625 12.65625 29.632812 Z M 13.398438 30.621094 C 13.398438 30.691406 13.34375 30.746094 13.277344 30.746094 C 13.207031 30.746094 13.152344 30.691406 13.152344 30.621094 L 13.152344 29.632812 C 13.152344 29.5625 13.207031 29.507812 13.277344 29.507812 C 13.34375 29.507812 13.398438 29.5625 13.398438 29.632812 Z M 14.144531 30.621094 C 14.144531 30.691406 14.085938 30.746094 14.019531 30.746094 C 13.953125 30.746094 13.894531 30.691406 13.894531 30.621094 L 13.894531 29.632812 C 13.894531 29.5625 13.953125 29.507812 14.019531 29.507812 C 14.085938 29.507812 14.144531 29.5625 14.144531 29.632812 Z M 15.628906 30.621094 C 15.628906 30.691406 15.574219 30.746094 15.507812 30.746094 C 15.4375 30.746094 15.382812 30.691406 15.382812 30.621094 L 15.382812 29.632812 C 15.382812 29.5625 15.4375 29.507812 15.507812 29.507812 C 15.574219 29.507812 15.628906 29.5625 15.628906 29.632812 Z M 20.835938 30.621094 C 20.835938 30.691406 20.777344 30.746094 20.710938 30.746094 C 20.640625 30.746094 20.585938 30.691406 20.585938 30.621094 L 20.585938 29.632812 C 20.585938 29.5625 20.640625 29.507812 20.710938 29.507812 C 20.777344 29.507812 20.835938 29.5625 20.835938 29.632812 Z M 21.578125 30.621094 C 21.578125 30.691406 21.523438 30.746094 21.453125 30.746094 C 21.386719 30.746094 21.328125 30.691406 21.328125 30.621094 L 21.328125 29.632812 C 21.328125 29.5625 21.386719 29.507812 21.453125 29.507812 C 21.523438 29.507812 21.578125 29.5625 21.578125 29.632812 Z M 20.957031 25.046875 C 21.433594 25.046875 21.824219 25.4375 21.824219 25.914062 C 21.824219 26.390625 21.433594 26.78125 20.957031 26.78125 C 20.480469 26.78125 20.089844 26.390625 20.089844 25.914062 C 20.089844 25.4375 20.480469 25.046875 20.957031 25.046875 Z M 19.84375 29.632812 C 19.84375 29.5625 19.898438 29.507812 19.96875 29.507812 C 20.035156 29.507812 20.089844 29.5625 20.089844 29.632812 L 20.089844 30.621094 C 20.089844 30.691406 20.035156 30.746094 19.96875 30.746094 C 19.898438 30.746094 19.84375 30.691406 19.84375 30.621094 Z M 19.097656 29.632812 C 19.097656 29.5625 19.15625 29.507812 19.222656 29.507812 C 19.292969 29.507812 19.347656 29.5625 19.347656 29.632812 L 19.347656 30.621094 C 19.347656 30.691406 19.292969 30.746094 19.222656 30.746094 C 19.15625 30.746094 19.097656 30.691406 19.097656 30.621094 Z M 17.613281 29.632812 C 17.613281 29.5625 17.667969 29.507812 17.738281 29.507812 C 17.804688 29.507812 17.859375 29.5625 17.859375 29.632812 L 17.859375 30.621094 C 17.859375 30.691406 17.804688 30.746094 17.738281 30.746094 C 17.667969 30.746094 17.613281 30.691406 17.613281 30.621094 Z M 16.871094 29.632812 C 16.871094 29.5625 16.925781 29.507812 16.992188 29.507812 C 17.0625 29.507812 17.117188 29.5625 17.117188 29.632812 L 17.117188 30.621094 C 17.117188 30.691406 17.0625 30.746094 16.992188 30.746094 C 16.925781 30.746094 16.871094 30.691406 16.871094 30.621094 Z M 16.375 30.621094 C 16.375 30.691406 16.316406 30.746094 16.25 30.746094 C 16.179688 30.746094 16.125 30.691406 16.125 30.621094 L 16.125 29.632812 C 16.125 29.5625 16.179688 29.507812 16.25 29.507812 C 16.316406 29.507812 16.375 29.5625 16.375 29.632812 Z M 12.179688 25.101562 C 12.203125 25.066406 12.242188 25.046875 12.285156 25.046875 L 15.753906 25.046875 C 15.804688 25.046875 15.847656 25.070312 15.867188 25.113281 L 16.359375 26.105469 C 16.378906 26.144531 16.378906 26.191406 16.355469 26.222656 C 16.332031 26.261719 16.292969 26.28125 16.25 26.28125 L 12.78125 26.28125 C 12.730469 26.28125 12.6875 26.253906 12.667969 26.210938 L 12.171875 25.21875 C 12.15625 25.1875 12.15625 25.140625 12.179688 25.101562 Z M 12.160156 27.117188 C 12.160156 27.046875 12.214844 26.992188 12.285156 26.992188 L 14.265625 26.992188 C 14.335938 26.992188 14.390625 27.046875 14.390625 27.117188 L 14.390625 28.640625 C 14.390625 28.707031 14.335938 28.765625 14.265625 28.765625 L 12.285156 28.765625 C 12.214844 28.765625 12.160156 28.707031 12.160156 28.640625 Z M 11.664062 29.632812 C 11.664062 29.5625 11.722656 29.507812 11.789062 29.507812 C 11.859375 29.507812 11.914062 29.5625 11.914062 29.632812 L 11.914062 30.621094 C 11.914062 30.691406 11.859375 30.746094 11.789062 30.746094 C 11.722656 30.746094 11.664062 30.691406 11.664062 30.621094 Z M 11.664062 29.632812 " fill-opacity="1" fill-rule="nonzero"/></g><path fill="#c4942e" d="M 16.050781 26.039062 L 15.679688 25.292969 L 12.484375 25.292969 L 12.855469 26.039062 Z M 16.050781 26.039062 " fill-opacity="1" fill-rule="nonzero"/><path fill="#c4942e" d="M 21.578125 25.914062 C 21.578125 26.085938 21.515625 26.230469 21.394531 26.351562 C 21.273438 26.472656 21.128906 26.535156 20.957031 26.535156 C 20.785156 26.535156 20.640625 26.472656 20.519531 26.351562 C 20.398438 26.230469 20.339844 26.085938 20.339844 25.914062 C 20.339844 25.742188 20.398438 25.597656 20.519531 25.476562 C 20.640625 25.355469 20.785156 25.292969 20.957031 25.292969 C 21.128906 25.292969 21.273438 25.355469 21.394531 25.476562 C 21.515625 25.597656 21.578125 25.742188 21.578125 25.914062 Z M 21.578125 25.914062 " fill-opacity="1" fill-rule="nonzero"/><path fill="#c4942e" d="M 12.410156 27.238281 L 13.152344 27.238281 L 13.152344 28.515625 L 12.410156 28.515625 Z M 12.410156 27.238281 " fill-opacity="1" fill-rule="nonzero"/><path fill="#c4942e" d="M 13.398438 27.238281 L 14.144531 27.238281 L 14.144531 27.773438 L 13.398438 27.773438 Z M 13.398438 27.238281 " fill-opacity="1" fill-rule="nonzero"/><path fill="#c4942e" d="M 13.398438 28.019531 L 14.144531 28.019531 L 14.144531 28.515625 L 13.398438 28.515625 Z M 13.398438 28.019531 " fill-opacity="1" fill-rule="nonzero"/><path fill="#c4942e" d="M 21.582031 2.992188 L 11.90625 2.992188 C 11.84375 4.058594 10.988281 4.90625 9.929688 4.96875 L 9.929688 7.699219 C 10.996094 7.761719 11.84375 8.617188 11.90625 9.675781 L 21.578125 9.675781 C 21.640625 8.609375 22.496094 7.761719 23.554688 7.699219 L 23.554688 4.96875 C 22.496094 4.90625 21.644531 4.058594 21.582031 2.992188 Z M 13.277344 6.957031 L 10.796875 6.957031 C 10.730469 6.957031 10.675781 6.902344 10.675781 6.832031 C 10.675781 6.765625 10.730469 6.710938 10.796875 6.710938 L 13.277344 6.710938 C 13.34375 6.710938 13.398438 6.765625 13.398438 6.832031 C 13.398438 6.902344 13.34375 6.957031 13.277344 6.957031 Z M 13.277344 5.964844 L 10.796875 5.964844 C 10.730469 5.964844 10.675781 5.910156 10.675781 5.84375 C 10.675781 5.773438 10.730469 5.71875 10.796875 5.71875 L 13.277344 5.71875 C 13.34375 5.71875 13.398438 5.773438 13.398438 5.84375 C 13.398438 5.910156 13.34375 5.964844 13.277344 5.964844 Z M 18.605469 8.160156 C 18.109375 8.660156 17.453125 8.941406 16.746094 8.941406 C 16.039062 8.941406 15.382812 8.660156 14.886719 8.160156 C 14.410156 7.667969 14.144531 7.023438 14.144531 6.335938 C 14.144531 4.902344 15.308594 3.734375 16.746094 3.734375 C 18.183594 3.734375 19.347656 4.902344 19.347656 6.335938 C 19.347656 7.023438 19.082031 7.667969 18.605469 8.160156 Z M 22.691406 6.957031 L 20.214844 6.957031 C 20.144531 6.957031 20.089844 6.902344 20.089844 6.832031 C 20.089844 6.765625 20.144531 6.710938 20.214844 6.710938 L 22.691406 6.710938 C 22.761719 6.710938 22.816406 6.765625 22.816406 6.832031 C 22.816406 6.902344 22.761719 6.957031 22.691406 6.957031 Z M 22.816406 5.84375 C 22.816406 5.910156 22.761719 5.964844 22.691406 5.964844 L 20.214844 5.964844 C 20.144531 5.964844 20.089844 5.910156 20.089844 5.84375 C 20.089844 5.773438 20.144531 5.71875 20.214844 5.71875 L 22.691406 5.71875 C 22.761719 5.71875 22.816406 5.773438 22.816406 5.84375 Z M 22.816406 5.84375 " fill-opacity="1" fill-rule="nonzero"/><path fill="#c4942e" d="M 16.746094 3.984375 C 15.445312 3.984375 14.390625 5.035156 14.390625 6.335938 C 14.390625 6.957031 14.632812 7.546875 15.066406 7.984375 C 15.089844 8.011719 15.117188 8.027344 15.132812 8.054688 L 15.132812 7.222656 C 15.132812 6.664062 15.585938 6.214844 16.144531 6.214844 L 16.25 6.214844 C 16.167969 6.109375 16.125 5.984375 16.125 5.84375 L 16.125 5.347656 C 16.125 5.003906 16.40625 4.726562 16.746094 4.726562 C 17.085938 4.726562 17.363281 5.003906 17.363281 5.347656 L 17.363281 5.84375 C 17.363281 5.984375 17.316406 6.109375 17.242188 6.214844 L 17.347656 6.214844 C 17.902344 6.214844 18.355469 6.664062 18.355469 7.222656 L 18.355469 8.054688 C 18.382812 8.027344 18.40625 8.011719 18.425781 7.984375 C 18.859375 7.546875 19.097656 6.957031 19.097656 6.335938 C 19.097656 5.035156 18.046875 3.984375 16.746094 3.984375 Z M 16.746094 3.984375 " fill-opacity="1" fill-rule="nonzero"/><path fill="#c4942e" d="M 17.117188 5.84375 L 17.117188 5.347656 C 17.117188 5.140625 16.949219 4.976562 16.746094 4.976562 C 16.539062 4.976562 16.375 5.140625 16.375 5.347656 L 16.375 5.84375 C 16.375 6.046875 16.539062 6.214844 16.746094 6.214844 C 16.949219 6.214844 17.117188 6.046875 17.117188 5.84375 Z M 17.117188 5.84375 " fill-opacity="1" fill-rule="nonzero"/><path fill="#c4942e" d="M 17.347656 6.460938 L 16.144531 6.460938 C 15.722656 6.460938 15.382812 6.800781 15.382812 7.222656 L 15.382812 8.257812 C 15.777344 8.542969 16.25 8.691406 16.746094 8.691406 C 17.242188 8.691406 17.710938 8.535156 18.109375 8.257812 L 18.109375 7.222656 C 18.109375 6.800781 17.765625 6.460938 17.347656 6.460938 Z M 17.347656 6.460938 " fill-opacity="1" fill-rule="nonzero"/><path fill="#c4942e" d="M 24.550781 2 L 8.941406 2 L 8.941406 10.675781 L 24.550781 10.675781 Z M 23.808594 7.824219 C 23.808594 7.894531 23.753906 7.949219 23.683594 7.949219 C 22.660156 7.949219 21.824219 8.785156 21.824219 9.808594 C 21.824219 9.875 21.769531 9.929688 21.703125 9.929688 L 11.789062 9.929688 C 11.722656 9.929688 11.664062 9.875 11.664062 9.808594 C 11.664062 8.785156 10.828125 7.949219 9.808594 7.949219 C 9.738281 7.949219 9.683594 7.894531 9.683594 7.824219 L 9.683594 4.851562 C 9.683594 4.78125 9.738281 4.726562 9.808594 4.726562 C 10.828125 4.726562 11.664062 3.890625 11.664062 2.867188 C 11.664062 2.800781 11.722656 2.746094 11.789062 2.746094 L 21.703125 2.746094 C 21.769531 2.746094 21.824219 2.800781 21.824219 2.867188 C 21.824219 3.890625 22.660156 4.726562 23.683594 4.726562 C 23.753906 4.726562 23.808594 4.78125 23.808594 4.851562 Z M 23.808594 7.824219 " fill-opacity="1" fill-rule="nonzero"/><path fill="#c4942e" d="M 28.019531 17.488281 C 28.019531 17.691406 28.1875 17.859375 28.390625 17.859375 L 29.011719 17.859375 L 29.011719 17.117188 L 28.390625 17.117188 C 28.1875 17.117188 28.019531 17.285156 28.019531 17.488281 Z M 28.019531 17.488281 " fill-opacity="1" fill-rule="nonzero"/><g clip-path="url(#8da39865f3)"><path fill="#c4942e" d="M 30.621094 11.914062 L 24.179688 11.914062 C 23.976562 11.914062 23.808594 12.082031 23.808594 12.285156 L 23.808594 22.691406 C 23.808594 22.898438 23.976562 23.0625 24.179688 23.0625 L 30.621094 23.0625 C 30.828125 23.0625 30.992188 22.898438 30.992188 22.691406 L 30.992188 12.285156 C 30.992188 12.082031 30.828125 11.914062 30.621094 11.914062 Z M 30.25 22.195312 C 30.25 22.265625 30.195312 22.320312 30.125 22.320312 L 24.675781 22.320312 C 24.605469 22.320312 24.550781 22.265625 24.550781 22.195312 L 24.550781 12.78125 C 24.550781 12.710938 24.605469 12.65625 24.675781 12.65625 L 30.125 12.65625 C 30.195312 12.65625 30.25 12.710938 30.25 12.78125 Z M 30.25 22.195312 " fill-opacity="1" fill-rule="nonzero"/></g><path fill="#c4942e" d="M 29.011719 18.976562 L 29.011719 18.109375 L 28.390625 18.109375 C 28.050781 18.109375 27.773438 17.828125 27.773438 17.488281 C 27.773438 17.148438 28.050781 16.871094 28.390625 16.871094 L 29.011719 16.871094 L 29.011719 16.003906 C 29.011719 15.796875 28.84375 15.628906 28.640625 15.628906 L 25.789062 15.628906 L 25.789062 19.347656 L 28.640625 19.347656 C 28.84375 19.347656 29.011719 19.179688 29.011719 18.976562 Z M 29.011719 18.976562 " fill-opacity="1" fill-rule="nonzero"/><g clip-path="url(#c7dc7a560d)"><path fill="#c4942e" d="M 24.800781 22.074219 L 30.003906 22.074219 L 30.003906 12.90625 L 24.800781 12.90625 Z M 25.542969 15.507812 C 25.542969 15.4375 25.597656 15.382812 25.667969 15.382812 L 28.640625 15.382812 C 28.980469 15.382812 29.257812 15.660156 29.257812 16.003906 L 29.257812 18.976562 C 29.257812 19.316406 28.980469 19.59375 28.640625 19.59375 L 25.667969 19.59375 C 25.597656 19.59375 25.542969 19.539062 25.542969 19.472656 Z M 25.542969 15.507812 " fill-opacity="1" fill-rule="nonzero"/></g></svg>