<svg xmlns="http://www.w3.org/2000/svg" xmlns:xlink="http://www.w3.org/1999/xlink" width="45" zoomAndPan="magnify" viewBox="0 0 33.75 33.749998" height="45" preserveAspectRatio="xMidYMid meet" version="1.0"><defs><clipPath id="09bb0a1f67"><path d="M 19 4.832031 L 31 4.832031 L 31 10 L 19 10 Z M 19 4.832031 " clip-rule="nonzero"/></clipPath><clipPath id="fce12258a7"><path d="M 19 23 L 31 23 L 31 28.65625 L 19 28.65625 Z M 19 23 " clip-rule="nonzero"/></clipPath><clipPath id="d37e0e354c"><path d="M 22 14 L 33.5 14 L 33.5 19 L 22 19 Z M 22 14 " clip-rule="nonzero"/></clipPath></defs><path fill="#c4942e" d="M 15.242188 25.535156 L 15.738281 26.402344 C 16.203125 26.171875 16.652344 25.914062 17.078125 25.625 L 16.578125 24.761719 C 16.152344 25.050781 15.707031 25.3125 15.242188 25.535156 Z M 15.242188 25.535156 " fill-opacity="1" fill-rule="nonzero"/><path fill="#c4942e" d="M 12.523438 26.386719 L 12.523438 27.390625 C 13.386719 27.269531 14.214844 27.042969 15 26.726562 L 14.496094 25.855469 C 13.867188 26.097656 13.207031 26.277344 12.523438 26.386719 Z M 12.523438 26.386719 " fill-opacity="1" fill-rule="nonzero"/><path fill="#c4942e" d="M 10.175781 26.480469 L 10.175781 27.476562 C 10.429688 27.496094 10.6875 27.503906 10.949219 27.503906 C 11.207031 27.503906 11.464844 27.496094 11.71875 27.476562 L 11.71875 26.480469 C 11.464844 26.5 11.207031 26.507812 10.949219 26.507812 C 10.6875 26.507812 10.429688 26.5 10.175781 26.480469 Z M 10.175781 26.480469 " fill-opacity="1" fill-rule="nonzero"/><path fill="#c4942e" d="M 6.894531 26.726562 C 7.679688 27.042969 8.511719 27.269531 9.371094 27.390625 L 9.371094 26.386719 C 8.691406 26.277344 8.03125 26.097656 7.398438 25.855469 Z M 6.894531 26.726562 " fill-opacity="1" fill-rule="nonzero"/><path fill="#c4942e" d="M 4.820312 25.625 C 5.246094 25.914062 5.691406 26.171875 6.15625 26.402344 L 6.65625 25.535156 C 6.191406 25.3125 5.742188 25.050781 5.320312 24.761719 Z M 4.820312 25.625 " fill-opacity="1" fill-rule="nonzero"/><path fill="#c4942e" d="M 3.230469 22.832031 L 2.355469 23.335938 C 2.886719 24.007812 3.496094 24.617188 4.167969 25.148438 L 4.671875 24.277344 C 4.144531 23.84375 3.660156 23.363281 3.230469 22.832031 Z M 3.230469 22.832031 " fill-opacity="1" fill-rule="nonzero"/><path fill="#c4942e" d="M 1.96875 20.847656 L 1.105469 21.347656 C 1.332031 21.8125 1.589844 22.261719 1.878906 22.683594 L 2.746094 22.1875 C 2.453125 21.761719 2.195312 21.316406 1.96875 20.847656 Z M 1.96875 20.847656 " fill-opacity="1" fill-rule="nonzero"/><path fill="#c4942e" d="M 1.121094 18.132812 L 0.113281 18.132812 C 0.238281 18.996094 0.464844 19.824219 0.777344 20.609375 L 1.648438 20.105469 C 1.410156 19.476562 1.230469 18.816406 1.121094 18.132812 Z M 1.121094 18.132812 " fill-opacity="1" fill-rule="nonzero"/><path fill="#c4942e" d="M 0.996094 16.558594 C 0.996094 16.296875 1.007812 16.039062 1.027344 15.785156 L 0.0273438 15.785156 C 0.0078125 16.039062 0 16.296875 0 16.558594 C 0 16.816406 0.0078125 17.074219 0.0273438 17.328125 L 1.027344 17.328125 C 1.007812 17.074219 0.996094 16.816406 0.996094 16.558594 Z M 0.996094 16.558594 " fill-opacity="1" fill-rule="nonzero"/><path fill="#c4942e" d="M 1.648438 13.007812 L 0.777344 12.503906 C 0.464844 13.289062 0.238281 14.121094 0.113281 14.980469 L 1.121094 14.980469 C 1.230469 14.296875 1.410156 13.636719 1.648438 13.007812 Z M 1.648438 13.007812 " fill-opacity="1" fill-rule="nonzero"/><path fill="#c4942e" d="M 2.746094 10.929688 L 1.878906 10.429688 C 1.589844 10.855469 1.332031 11.300781 1.105469 11.765625 L 1.96875 12.265625 C 2.195312 11.796875 2.453125 11.351562 2.746094 10.929688 Z M 2.746094 10.929688 " fill-opacity="1" fill-rule="nonzero"/><path fill="#c4942e" d="M 4.671875 8.839844 L 4.167969 7.964844 C 3.496094 8.496094 2.886719 9.105469 2.355469 9.777344 L 3.230469 10.28125 C 3.660156 9.753906 4.144531 9.269531 4.671875 8.839844 Z M 4.671875 8.839844 " fill-opacity="1" fill-rule="nonzero"/><path fill="#c4942e" d="M 6.65625 7.578125 L 6.15625 6.714844 C 5.691406 6.941406 5.246094 7.199219 4.820312 7.488281 L 5.320312 8.355469 C 5.742188 8.0625 6.191406 7.804688 6.65625 7.578125 Z M 6.65625 7.578125 " fill-opacity="1" fill-rule="nonzero"/><path fill="#c4942e" d="M 9.371094 6.730469 L 9.371094 5.722656 C 8.511719 5.847656 7.679688 6.070312 6.894531 6.386719 L 7.398438 7.257812 C 8.03125 7.019531 8.691406 6.839844 9.371094 6.730469 Z M 9.371094 6.730469 " fill-opacity="1" fill-rule="nonzero"/><path fill="#c4942e" d="M 11.71875 6.636719 L 11.71875 5.636719 C 11.464844 5.617188 11.207031 5.609375 10.949219 5.609375 C 10.6875 5.609375 10.429688 5.617188 10.175781 5.636719 L 10.175781 6.636719 C 10.429688 6.617188 10.6875 6.605469 10.949219 6.605469 C 11.207031 6.605469 11.464844 6.617188 11.71875 6.636719 Z M 11.71875 6.636719 " fill-opacity="1" fill-rule="nonzero"/><path fill="#c4942e" d="M 15 6.386719 C 14.214844 6.070312 13.386719 5.847656 12.523438 5.722656 L 12.523438 6.730469 C 13.207031 6.839844 13.867188 7.019531 14.496094 7.257812 Z M 15 6.386719 " fill-opacity="1" fill-rule="nonzero"/><path fill="#c4942e" d="M 17.078125 7.488281 C 16.652344 7.199219 16.203125 6.941406 15.738281 6.714844 L 15.242188 7.578125 C 15.707031 7.804688 16.152344 8.0625 16.578125 8.351562 Z M 17.078125 7.488281 " fill-opacity="1" fill-rule="nonzero"/><path fill="#c4942e" d="M 18.667969 10.28125 L 19.539062 9.777344 C 19.007812 9.105469 18.398438 8.496094 17.726562 7.964844 L 17.226562 8.839844 C 17.753906 9.269531 18.238281 9.753906 18.667969 10.28125 Z M 18.667969 10.28125 " fill-opacity="1" fill-rule="nonzero"/><path fill="#c4942e" d="M 19.152344 10.929688 C 19.441406 11.351562 19.703125 11.796875 19.925781 12.265625 L 20.792969 11.765625 C 20.566406 11.300781 20.304688 10.855469 20.015625 10.429688 Z M 19.152344 10.929688 " fill-opacity="1" fill-rule="nonzero"/><path fill="#c4942e" d="M 21.785156 14.980469 C 21.660156 14.121094 21.433594 13.289062 21.121094 12.503906 L 20.246094 13.007812 C 20.488281 13.636719 20.667969 14.296875 20.777344 14.980469 Z M 21.785156 14.980469 " fill-opacity="1" fill-rule="nonzero"/><path fill="#c4942e" d="M 21.898438 16.558594 C 21.898438 16.296875 21.886719 16.039062 21.871094 15.785156 L 20.871094 15.785156 C 20.890625 16.039062 20.902344 16.296875 20.902344 16.558594 C 20.902344 16.816406 20.890625 17.074219 20.871094 17.328125 L 21.871094 17.328125 C 21.886719 17.074219 21.898438 16.816406 21.898438 16.558594 Z M 21.898438 16.558594 " fill-opacity="1" fill-rule="nonzero"/><path fill="#c4942e" d="M 21.785156 18.132812 L 20.777344 18.132812 C 20.667969 18.816406 20.488281 19.476562 20.246094 20.105469 L 21.121094 20.609375 C 21.433594 19.824219 21.660156 18.996094 21.785156 18.132812 Z M 21.785156 18.132812 " fill-opacity="1" fill-rule="nonzero"/><path fill="#c4942e" d="M 19.152344 22.1875 L 20.015625 22.683594 C 20.304688 22.261719 20.566406 21.8125 20.792969 21.347656 L 19.925781 20.851562 C 19.703125 21.316406 19.441406 21.761719 19.152344 22.1875 Z M 19.152344 22.1875 " fill-opacity="1" fill-rule="nonzero"/><path fill="#c4942e" d="M 20.027344 17.695312 C 20.027344 17.6875 20.027344 17.683594 20.027344 17.675781 C 20.074219 17.308594 20.097656 16.9375 20.097656 16.558594 C 20.097656 16.179688 20.074219 15.804688 20.027344 15.4375 C 20.027344 15.429688 20.027344 15.425781 20.027344 15.417969 C 19.617188 12.136719 17.460938 9.386719 14.519531 8.132812 C 13.753906 7.8125 12.941406 7.585938 12.089844 7.480469 C 12.085938 7.480469 12.085938 7.480469 12.085938 7.480469 C 12.082031 7.480469 12.074219 7.480469 12.070312 7.476562 C 12.058594 7.476562 12.050781 7.476562 12.042969 7.472656 C 11.683594 7.429688 11.316406 7.410156 10.949219 7.410156 C 10.578125 7.410156 10.214844 7.429688 9.855469 7.472656 C 9.847656 7.476562 9.835938 7.476562 9.828125 7.476562 C 9.820312 7.480469 9.816406 7.480469 9.808594 7.480469 C 6.523438 7.890625 3.777344 10.046875 2.523438 12.988281 C 2.199219 13.753906 1.976562 14.570312 1.871094 15.425781 C 1.824219 15.796875 1.800781 16.171875 1.800781 16.558594 C 1.800781 16.941406 1.824219 17.320312 1.871094 17.691406 C 1.976562 18.542969 2.199219 19.363281 2.523438 20.125 C 3.777344 23.066406 6.523438 25.222656 9.808594 25.632812 C 9.808594 25.632812 9.808594 25.632812 9.808594 25.636719 C 9.816406 25.636719 9.820312 25.636719 9.828125 25.636719 C 9.835938 25.636719 9.847656 25.640625 9.855469 25.640625 C 10.214844 25.683594 10.578125 25.707031 10.949219 25.707031 C 11.316406 25.707031 11.683594 25.683594 12.042969 25.640625 C 12.050781 25.640625 12.058594 25.636719 12.070312 25.636719 C 12.074219 25.636719 12.078125 25.636719 12.085938 25.636719 C 12.085938 25.632812 12.085938 25.632812 12.089844 25.632812 C 16.222656 25.117188 19.511719 21.832031 20.027344 17.695312 Z M 11.148438 24.589844 C 11.085938 24.625 11.015625 24.644531 10.949219 24.644531 C 10.878906 24.644531 10.808594 24.625 10.746094 24.589844 L 4.09375 20.746094 C 3.96875 20.675781 3.894531 20.542969 3.894531 20.398438 L 3.894531 12.714844 C 3.894531 12.570312 3.96875 12.4375 4.09375 12.367188 L 10.746094 8.527344 C 10.871094 8.453125 11.023438 8.453125 11.148438 8.527344 L 17.804688 12.367188 C 17.925781 12.4375 18.003906 12.570312 18.003906 12.714844 L 18.003906 20.398438 C 18.003906 20.542969 17.925781 20.675781 17.804688 20.746094 Z M 11.148438 24.589844 " fill-opacity="1" fill-rule="nonzero"/><path fill="#c4942e" d="M 4.695312 12.949219 L 4.695312 20.167969 L 10.949219 23.777344 L 17.199219 20.167969 L 17.199219 12.949219 L 10.949219 9.339844 Z M 8.464844 11.824219 C 8.75 11.671875 9.050781 11.546875 9.355469 11.453125 C 9.570312 11.386719 9.792969 11.503906 9.859375 11.714844 C 9.925781 11.929688 9.808594 12.152344 9.59375 12.21875 C 9.335938 12.300781 9.082031 12.40625 8.839844 12.535156 C 8.777344 12.566406 8.714844 12.578125 8.652344 12.578125 C 8.507812 12.578125 8.367188 12.503906 8.296875 12.367188 C 8.191406 12.167969 8.265625 11.925781 8.464844 11.824219 Z M 5.84375 14.964844 C 5.9375 14.660156 6.0625 14.359375 6.214844 14.070312 C 6.316406 13.875 6.558594 13.800781 6.757812 13.90625 C 6.953125 14.007812 7.027344 14.25 6.925781 14.449219 C 6.796875 14.6875 6.691406 14.945312 6.609375 15.203125 C 6.554688 15.375 6.398438 15.488281 6.226562 15.488281 C 6.1875 15.488281 6.148438 15.480469 6.105469 15.46875 C 5.894531 15.402344 5.777344 15.179688 5.84375 14.964844 Z M 6.757812 19.210938 C 6.695312 19.242188 6.632812 19.257812 6.570312 19.257812 C 6.425781 19.257812 6.285156 19.179688 6.214844 19.042969 C 6.0625 18.757812 5.9375 18.457031 5.84375 18.148438 C 5.777344 17.9375 5.894531 17.710938 6.105469 17.644531 C 6.320312 17.578125 6.542969 17.699219 6.609375 17.910156 C 6.691406 18.171875 6.796875 18.425781 6.925781 18.667969 C 7.027344 18.863281 6.953125 19.105469 6.757812 19.210938 Z M 9.859375 21.398438 C 9.804688 21.570312 9.648438 21.679688 9.476562 21.679688 C 9.4375 21.679688 9.398438 21.675781 9.355469 21.664062 C 9.050781 21.566406 8.75 21.441406 8.464844 21.292969 C 8.265625 21.1875 8.191406 20.945312 8.296875 20.75 C 8.398438 20.550781 8.640625 20.476562 8.839844 20.582031 C 9.082031 20.707031 9.335938 20.8125 9.59375 20.894531 C 9.808594 20.960938 9.925781 21.1875 9.859375 21.398438 Z M 13.433594 21.292969 C 13.148438 21.441406 12.847656 21.566406 12.539062 21.664062 C 12.5 21.675781 12.460938 21.679688 12.421875 21.679688 C 12.25 21.679688 12.089844 21.570312 12.035156 21.398438 C 11.972656 21.1875 12.089844 20.960938 12.300781 20.894531 C 12.5625 20.8125 12.816406 20.707031 13.058594 20.582031 C 13.253906 20.476562 13.496094 20.550781 13.601562 20.75 C 13.703125 20.945312 13.628906 21.1875 13.433594 21.292969 Z M 16.054688 18.148438 C 15.957031 18.457031 15.832031 18.757812 15.683594 19.042969 C 15.609375 19.179688 15.472656 19.257812 15.328125 19.257812 C 15.265625 19.257812 15.199219 19.242188 15.140625 19.210938 C 14.945312 19.105469 14.867188 18.863281 14.972656 18.667969 C 15.097656 18.425781 15.207031 18.171875 15.285156 17.910156 C 15.351562 17.699219 15.578125 17.578125 15.789062 17.644531 C 16 17.710938 16.121094 17.9375 16.054688 18.148438 Z M 15.140625 13.90625 C 15.335938 13.800781 15.578125 13.875 15.683594 14.070312 C 15.832031 14.359375 15.957031 14.660156 16.054688 14.964844 C 16.121094 15.179688 16 15.402344 15.789062 15.46875 C 15.75 15.480469 15.710938 15.488281 15.671875 15.488281 C 15.5 15.488281 15.339844 15.375 15.285156 15.203125 C 15.207031 14.945312 15.097656 14.6875 14.972656 14.449219 C 14.867188 14.25 14.945312 14.007812 15.140625 13.90625 Z M 15.023438 16.558594 C 15.023438 18.804688 13.195312 20.632812 10.949219 20.632812 C 8.703125 20.632812 6.875 18.804688 6.875 16.558594 C 6.875 14.3125 8.703125 12.484375 10.949219 12.484375 C 13.195312 12.484375 15.023438 14.3125 15.023438 16.558594 Z M 12.035156 11.714844 C 12.101562 11.503906 12.328125 11.386719 12.539062 11.453125 C 12.847656 11.546875 13.148438 11.671875 13.433594 11.824219 C 13.628906 11.925781 13.703125 12.167969 13.601562 12.367188 C 13.53125 12.503906 13.390625 12.578125 13.246094 12.578125 C 13.183594 12.578125 13.117188 12.566406 13.058594 12.535156 C 12.816406 12.40625 12.5625 12.300781 12.300781 12.21875 C 12.089844 12.152344 11.972656 11.929688 12.035156 11.714844 Z M 12.035156 11.714844 " fill-opacity="1" fill-rule="nonzero"/><path fill="#c4942e" d="M 7.679688 16.558594 C 7.679688 18.359375 9.144531 19.828125 10.949219 19.828125 C 12.75 19.828125 14.21875 18.359375 14.21875 16.558594 C 14.21875 14.753906 12.75 13.289062 10.949219 13.289062 C 9.144531 13.289062 7.679688 14.753906 7.679688 16.558594 Z M 11.332031 14.101562 L 11.332031 14.320312 C 11.890625 14.484375 12.296875 15.003906 12.296875 15.613281 C 12.296875 15.835938 12.117188 16.015625 11.894531 16.015625 C 11.671875 16.015625 11.492188 15.835938 11.492188 15.613281 C 11.492188 15.3125 11.246094 15.070312 10.949219 15.070312 C 10.941406 15.070312 10.9375 15.070312 10.929688 15.070312 L 10.925781 15.070312 C 10.636719 15.078125 10.40625 15.320312 10.40625 15.613281 C 10.40625 15.910156 10.648438 16.15625 10.949219 16.15625 C 11.691406 16.15625 12.296875 16.761719 12.296875 17.503906 C 12.296875 18.113281 11.890625 18.628906 11.332031 18.796875 L 11.332031 19.015625 C 11.332031 19.234375 11.152344 19.414062 10.929688 19.414062 C 10.710938 19.414062 10.527344 19.234375 10.527344 19.015625 L 10.527344 18.785156 C 9.992188 18.605469 9.601562 18.101562 9.601562 17.503906 C 9.601562 17.28125 9.78125 17.101562 10.003906 17.101562 C 10.226562 17.101562 10.40625 17.28125 10.40625 17.503906 C 10.40625 17.804688 10.648438 18.046875 10.949219 18.046875 C 11.246094 18.046875 11.492188 17.804688 11.492188 17.503906 C 11.492188 17.203125 11.246094 16.960938 10.949219 16.960938 C 10.207031 16.960938 9.601562 16.355469 9.601562 15.613281 C 9.601562 15.015625 9.992188 14.507812 10.527344 14.332031 L 10.527344 14.101562 C 10.527344 13.878906 10.710938 13.699219 10.929688 13.699219 C 11.152344 13.699219 11.332031 13.878906 11.332031 14.101562 Z M 11.332031 14.101562 " fill-opacity="1" fill-rule="nonzero"/><path fill="#c4942e" d="M 18.667969 22.832031 C 18.238281 23.363281 17.753906 23.84375 17.226562 24.277344 L 17.726562 25.148438 C 18.398438 24.617188 19.007812 24.007812 19.539062 23.335938 Z M 18.667969 22.832031 " fill-opacity="1" fill-rule="nonzero"/><g clip-path="url(#09bb0a1f67)"><path fill="#c4942e" d="M 25.503906 9.238281 C 25.726562 9.238281 25.90625 9.058594 25.90625 8.835938 L 25.90625 6.535156 L 28.015625 6.535156 C 28.1875 7.039062 28.664062 7.398438 29.226562 7.398438 C 29.933594 7.398438 30.507812 6.824219 30.507812 6.121094 C 30.507812 5.414062 29.933594 4.839844 29.226562 4.839844 C 28.65625 4.839844 28.171875 5.214844 28.007812 5.730469 L 25.503906 5.730469 C 25.285156 5.730469 25.105469 5.910156 25.105469 6.132812 L 25.105469 8.433594 L 19.433594 8.433594 C 19.679688 8.691406 19.914062 8.957031 20.136719 9.238281 Z M 25.503906 9.238281 " fill-opacity="1" fill-rule="nonzero"/></g><g clip-path="url(#fce12258a7)"><path fill="#c4942e" d="M 29.226562 25.714844 C 28.664062 25.714844 28.1875 26.078125 28.015625 26.578125 L 25.90625 26.578125 L 25.90625 24.28125 C 25.90625 24.058594 25.726562 23.878906 25.503906 23.878906 L 20.136719 23.878906 C 19.914062 24.15625 19.679688 24.425781 19.433594 24.683594 L 25.105469 24.683594 L 25.105469 26.980469 C 25.105469 27.203125 25.285156 27.382812 25.503906 27.382812 L 28.007812 27.382812 C 28.171875 27.902344 28.65625 28.277344 29.226562 28.277344 C 29.933594 28.277344 30.507812 27.703125 30.507812 26.996094 C 30.507812 26.289062 29.933594 25.714844 29.226562 25.714844 Z M 29.226562 25.714844 " fill-opacity="1" fill-rule="nonzero"/></g><path fill="#c4942e" d="M 29.585938 8.070312 C 28.980469 8.070312 28.488281 8.5625 28.488281 9.167969 C 28.488281 9.359375 28.535156 9.539062 28.621094 9.695312 L 27.113281 11.207031 L 21.410156 11.207031 C 21.5 11.382812 21.589844 11.5625 21.667969 11.746094 C 21.671875 11.746094 21.671875 11.75 21.671875 11.753906 C 21.679688 11.765625 21.683594 11.773438 21.6875 11.789062 C 21.6875 11.789062 21.691406 11.789062 21.691406 11.789062 C 21.722656 11.863281 21.753906 11.933594 21.785156 12.007812 L 27.277344 12.007812 C 27.386719 12.007812 27.488281 11.96875 27.5625 11.890625 L 29.242188 10.210938 C 29.351562 10.246094 29.464844 10.265625 29.585938 10.265625 C 30.191406 10.265625 30.683594 9.773438 30.683594 9.167969 C 30.683594 8.5625 30.191406 8.070312 29.585938 8.070312 Z M 29.585938 8.070312 " fill-opacity="1" fill-rule="nonzero"/><path fill="#c4942e" d="M 22.535156 14.574219 C 22.578125 14.824219 22.609375 15.078125 22.636719 15.335938 C 22.636719 15.339844 22.636719 15.347656 22.640625 15.351562 C 22.640625 15.359375 22.640625 15.367188 22.640625 15.378906 L 27.277344 15.378906 C 27.386719 15.378906 27.488281 15.335938 27.5625 15.257812 L 29.242188 13.578125 C 29.351562 13.613281 29.464844 13.632812 29.585938 13.632812 C 30.191406 13.632812 30.683594 13.140625 30.683594 12.535156 C 30.683594 11.933594 30.191406 11.441406 29.585938 11.441406 C 28.980469 11.441406 28.488281 11.933594 28.488281 12.535156 C 28.488281 12.726562 28.535156 12.90625 28.621094 13.0625 L 27.113281 14.574219 Z M 22.535156 14.574219 " fill-opacity="1" fill-rule="nonzero"/><path fill="#c4942e" d="M 29.585938 22.847656 C 29.464844 22.847656 29.351562 22.867188 29.242188 22.902344 L 27.5625 21.222656 C 27.488281 21.148438 27.386719 21.105469 27.277344 21.105469 L 21.785156 21.105469 C 21.753906 21.179688 21.722656 21.25 21.691406 21.324219 C 21.691406 21.324219 21.691406 21.324219 21.6875 21.328125 C 21.683594 21.34375 21.675781 21.355469 21.667969 21.371094 C 21.667969 21.371094 21.667969 21.375 21.664062 21.378906 C 21.585938 21.558594 21.5 21.734375 21.410156 21.910156 L 27.113281 21.910156 L 28.621094 23.417969 C 28.535156 23.574219 28.488281 23.753906 28.488281 23.945312 C 28.488281 24.550781 28.980469 25.042969 29.585938 25.042969 C 30.191406 25.042969 30.683594 24.550781 30.683594 23.945312 C 30.683594 23.339844 30.191406 22.847656 29.585938 22.847656 Z M 29.585938 22.847656 " fill-opacity="1" fill-rule="nonzero"/><path fill="#c4942e" d="M 29.585938 19.480469 C 29.464844 19.480469 29.351562 19.5 29.242188 19.535156 L 27.5625 17.855469 C 27.488281 17.78125 27.386719 17.738281 27.277344 17.738281 L 22.640625 17.738281 C 22.640625 17.746094 22.640625 17.753906 22.640625 17.761719 C 22.636719 17.769531 22.636719 17.773438 22.636719 17.777344 C 22.609375 18.035156 22.578125 18.289062 22.535156 18.542969 L 27.113281 18.542969 L 28.621094 20.050781 C 28.535156 20.207031 28.488281 20.386719 28.488281 20.578125 C 28.488281 21.183594 28.980469 21.675781 29.585938 21.675781 C 30.191406 21.675781 30.683594 21.183594 30.683594 20.578125 C 30.683594 19.972656 30.191406 19.480469 29.585938 19.480469 Z M 29.585938 19.480469 " fill-opacity="1" fill-rule="nonzero"/><g clip-path="url(#d37e0e354c)"><path fill="#c4942e" d="M 31.890625 14.910156 C 31.128906 14.910156 30.488281 15.441406 30.324219 16.15625 L 22.695312 16.15625 C 22.699219 16.289062 22.699219 16.421875 22.699219 16.558594 C 22.699219 16.691406 22.699219 16.824219 22.695312 16.960938 L 30.34375 16.960938 C 30.535156 17.636719 31.15625 18.132812 31.890625 18.132812 C 32.78125 18.132812 33.5 17.410156 33.5 16.519531 C 33.5 15.632812 32.78125 14.910156 31.890625 14.910156 Z M 31.890625 14.910156 " fill-opacity="1" fill-rule="nonzero"/></g></svg>